<svg xmlns="http://www.w3.org/2000/svg" viewBox="0 0 73.11 69.91"><defs><style>.cls-1{fill:#fff;}.cls-2{fill:#909090;}.cls-3{fill:#9b9b9b;}.cls-4{fill:#f5f6f6;}.cls-5{fill:#a8a8a8;}.cls-6{fill:#868686;}.cls-7{fill:#b5b5b5;}.cls-8{fill:#f3f3f3;}.cls-9{fill:#fdfcfc;}</style></defs><g id="Layer_2" data-name="Layer 2"><g id="Layer_1-2" data-name="Layer 1"><path class="cls-1" d="M60.72,15c-.13-.49-.56-.48-.93-.56-1-.4-1.16-1.88-2.08-2.09-2.82-.64-4.87-2.59-7.26-3.93C43.81,4.71,36.8,2.81,29.17,3.76a2.39,2.39,0,0,1-2.5-.87A5.83,5.83,0,0,0,23.07.74c-1.36-1-2.85-.8-4.34-.46-3.44.78-5.24,3.32-6.65,6.27C9.9,7,7.78,7.62,5.6,8.05A6.51,6.51,0,0,0,.08,15.23c.52,4.56,2.28,8.39,6.15,11,1.17.8,2.42,1.5,3.63,2.25a.77.77,0,0,0,.53.75A4.53,4.53,0,0,0,13.82,32c1.14.37,1,1.28.9,2.16a27.13,27.13,0,0,0-.17,6.43c.09.83,0,2.17,1,2.1s.66-1.41.68-2.2c.05-2,0-4-.07-6,0-.41-.07-.89.31-1.08a1.39,1.39,0,0,1,1.31.35,1.84,1.84,0,0,1,.56,1.73c0,1-.09,2.07,0,3.09,0,.58.32,1.17,1.08.53a1,1,0,0,1,1,.75c.16.75.21,1.83,1.26,1.59.83-.18.79-1.26.9-2a3,3,0,0,0-.26-1.14V36.91c1.59-.36,2.55,1,3.88,1.38a2.86,2.86,0,0,1,1,1.46l-.07.56c-.74.18-1.35.47-1.44,1.36a21,21,0,0,0-.47,4.26c.21,2.13.27,4.28.34,6.42.09,2.54.11,5.07.17,7.61,0,.5.18,1.06.73,1s.56-.68.54-1.12c0-1.27-.13-2.54-.22-3.81-.22-3.17,0-6.36-.54-9.53-.32-1.86-.37-3.79.9-5.44a18.2,18.2,0,0,0,.64,3.94.5.5,0,0,0,1-.07,6.53,6.53,0,0,0,0-1.17c.12-1.33-.7-2.62-.14-4,1.08.14,1.09.94,1.15,1.77.1,1.42.2,2.84.38,4.26.06.44.34,1,.94.85s.48-.56.49-1c0-1.3-.27-2.64.45-4a7.63,7.63,0,0,1,.58,2.91c.16,1.34.21,2.68.36,4a.76.76,0,0,0,.78.74h0c.53,0,.57-.44.56-.85,0-.87-.14-1.75-.09-2.62.08-1.23-.74-2.49.08-3.7a1.4,1.4,0,0,1,.29,0,7.4,7.4,0,0,0,.92.26A2.45,2.45,0,0,1,38,44.82a2.49,2.49,0,0,1,0,.47,5.25,5.25,0,0,0,.27,1.41.67.67,0,0,0,.71.51.7.7,0,0,0,.77-.63V43.74c2.25-.17,2.3-.17,2.07,1.76a7.11,7.11,0,0,0,.36,2.09c.07.51.3,1,.91.84.44-.1.53-.57.51-1a15.93,15.93,0,0,1-.24-3.08c.15-1.19.84-1.23,1.57-.31-.24,4.76.54,8.62,2.17,10-.51-2.11-.27-4.12-.63-6-.21-1.13.11-2.42-.7-3.43v-1l.5-.46a1.68,1.68,0,0,0,.45-.06l5.23.15c.72,1.69.39,3.9,2.69,5.28-.26-1.21-.42-2-.61-2.87-.53-2.32-.53-2.32,1.84-2.59l1,2.46a4,4,0,0,0,1.52,3.34A3,3,0,0,0,57.79,46c0-.27.06-.69-.48-.51h0c.63-.78-.15-1.54,0-2.32l.46-.77h0c.67-.2,1.21-.22,1.3.72a10.22,10.22,0,0,0,1.64,3.8c-.12,1.62,1,2.62,2,3.63.53.53,1,1.22,2,.74a1.9,1.9,0,0,0,1-2,7.2,7.2,0,0,0-.39-2.57c-.66-1.7,0-3.71-1.3-5.23V40.19l.52-.46a5.91,5.91,0,0,0,2.77-.68c.63.22.7.82.89,1.33.57,1.57,1.1,3.16,1.73,4.71a16.82,16.82,0,0,0,1.23,2.29.59.59,0,0,0,.8.25l0,0a.63.63,0,0,0,.29-.82,5.62,5.62,0,0,0-.56-1.31,20,20,0,0,1-1.86-5.13c-.34-1.11-.33-1.89.87-2.58A4.46,4.46,0,0,0,73,34c.32-6.38-1.69-11.74-7-15.57l-3.19-2.1c-.76-.22-1.06-1.32-2.11-1.39ZM39.34,61.74a27.25,27.25,0,0,0,.39,4.77,7.72,7.72,0,0,0,1,2.94.79.79,0,0,0,1,.4.76.76,0,0,0,.19-.12.68.68,0,0,0,.36-.9.53.53,0,0,0-.06-.1,4.76,4.76,0,0,1-.73-2.25c-.2-4.51-.67-9,.33-13.52A6.68,6.68,0,0,0,42,51.29c0-.45,0-1.07-.63-1.06s-.53.52-.54.92a6.38,6.38,0,0,1-.24,2.13C39.56,56,39.56,58.89,39.34,61.74ZM52.69,51.61c-.61.27-.8.55-.8.87,0,2.62-.13,5.25,0,7.86a16,16,0,0,0,1.51,5.5c.2.47.45,1.22,1.1,1,.82-.24.25-.9.16-1.4-.41-2.16-1.54-4.14-1.56-6.42,0-1.11-.05-2.22-.08-3.33A11.23,11.23,0,0,0,52.69,51.61Zm5.94,2.49-.45.21a12.19,12.19,0,0,0,.44,1.57c1.21,2.69,2.44,5.38,3.72,8a23.58,23.58,0,0,0,1.48,2.46c.22.33.58.64,1,.38s.37-.81,0-1.21c-1.89-2.41-3-5.24-4.38-8A16.06,16.06,0,0,0,58.63,54.1Z"/><path class="cls-2" d="M9.82,28.54c-1.21-.75-2.46-1.45-3.63-2.25C2.32,23.64.56,19.81,0,15.29A6.51,6.51,0,0,1,5.56,8.11C7.74,7.68,9.86,7,12,6.61c.56.06,1.15.35,1.65-.17,4.18-.49,8.4-.77,12.46-2.29-.69-1.9-2.4-2.07-3.79-2.72l.71-.69a5.84,5.84,0,0,1,3.64,2.09,2.39,2.39,0,0,0,2.5.87c7.63-1,14.64,1,21.28,4.67,2.39,1.34,4.44,3.29,7.26,3.93.92.21,1.06,1.69,2.08,2.09l-.52,1.14c-.79-.37-1,.18-1.16.75-1,0-1.85.09-1.7,1.43a3.38,3.38,0,0,1-.33,2h-1.6a6.14,6.14,0,0,1,0-2.34c.12-.6.08-1.24.77-1.62s.87-1.06.48-2.08c-.69,1.49-1.93,1.18-3.06,1.24a.8.8,0,0,1,.39-.77c1.39-1.05,1.42-1.33.12-2.34a12.41,12.41,0,0,0-3.79-2.24A30.64,30.64,0,0,0,35,4.74a19.48,19.48,0,0,0-5.49.34c-.78.18-1.08.49-.9,1.32.11.52.67,1.13,0,1.64h-.33c-.13-.28-.24-.57-.35-.86-.66-1.75-.66-1.75-2.57-1.38-3.29.63-6.53,1.53-9.92,1.57-.75,0-1.54,0-1.93,1s-2,0-2.33,1.4c0,.16-.34-.15-.34-.37,0-1-.73-.8-1.37-.79-.93,0-1.4.68-1.93,1.26a1,1,0,0,0-1.11-.74C2.31,9.5.58,11.59,1.17,15.61a15,15,0,0,0,2.47,6.64c.72,1,1.41,2.11,2.84,2.24h0c-.07.41.14.53.51.49H7c0,.36.21.5.54.51l.52-.07a3,3,0,0,0,3.36,1.06c.76-.16,1.51-.37,2.27-.57l.8.14a8.53,8.53,0,0,1-4.17,1.79A.88.88,0,0,0,9.82,28.54Z"/><path class="cls-3" d="M45.86,43.68v1L45,44.19c-.73-.92-1.42-.88-1.57.31a15.93,15.93,0,0,0,.24,3.08c0,.41-.07.88-.51,1-.61.14-.84-.33-.91-.84a7.11,7.11,0,0,1-.36-2.09c.23-1.93.18-1.93-2.07-1.76v2.75a.69.69,0,0,1-.67.72h-.1a.67.67,0,0,1-.71-.51,5.25,5.25,0,0,1-.27-1.41,2.45,2.45,0,0,0-2-2.83,2.48,2.48,0,0,0-.47,0,7.4,7.4,0,0,1-.92-.26c.33-.69.9-.48,1.44-.41,1.47.2,1.78,0,1.51-1.3a64.36,64.36,0,0,1-.8-15.12h.91c.68.73.49,1.64.48,2.5a63.49,63.49,0,0,0,.9,13.34c.28,1.35.54,1.51,1.86,1.43s1.13-.86,1-1.69A92.31,92.31,0,0,1,42,27c.13-2.64-.72-5.2-.51-7.87.12-1.55.88-3.07.3-5-.5,1.16-.83,2.12-1.31,3-.79,1.45-.87,3.2-2,4.49-.5.07-.86-.29-1.28-.44l-.05-1.41a1.09,1.09,0,0,0,1-.79,5.9,5.9,0,0,1,1.43-2.6c.2-.14.49-.23.57-.41.57-1.35.84-2.86,2.12-3.83a1.09,1.09,0,0,0,.23-.9c-.13-.83.52-1.28.84-1.9s.59-.83,1.12-.52.37.81.17,1.27c-1,2.25-.4,4.81-1.41,7.06-.15.33,0,.78-.1,1.16-.69,3.77.56,7.5,0,11.34C42.59,33,43,36.43,43,39.86A12.76,12.76,0,0,0,43.17,42c.11.54.55.73,1.1.68a.82.82,0,0,0,.71-.82,7.75,7.75,0,0,0,0-1.18,48.8,48.8,0,0,1,.85-8h.59c-.16,2.77-.31,5.54-.47,8.31,0,.69,0,1.29.84,1.45v.75a1.68,1.68,0,0,1-.45.06A.53.53,0,0,0,45.86,43.68Z"/><path class="cls-3" d="M66.07,18.63c5.35,3.83,7.36,9.19,7,15.57a4.46,4.46,0,0,1-2.29,3.74c-1.2.69-1.21,1.47-.87,2.58a20,20,0,0,0,1.86,5.13A5.62,5.62,0,0,1,72.33,47a.63.63,0,0,1-.29.82.59.59,0,0,1-.81-.2l0,0A16.82,16.82,0,0,1,70,45.26c-.63-1.55-1.16-3.14-1.73-4.71-.19-.51-.26-1.11-.89-1.33l-.16-.53.14.12a6.76,6.76,0,0,0,.9,0c.38-.05.85-.2.71-.65s-.65-.22-1-.26a21.75,21.75,0,0,1-1.06-3.13c-.91-3.38-.72-7-1.91-10.26.12-.09.32-.28.35-.25.51.38,1,1,1.51,0a4.11,4.11,0,0,1,.86.25,21,21,0,0,1,.11,2.86,23.69,23.69,0,0,0,1.06,9.08c.33,1,.89,1.22,1.66.46a4,4,0,0,0,1.25-2.77,19,19,0,0,0-1.55-8.61,7.14,7.14,0,0,0-1.61-2.63c-.66-.57-.74.1-.88.54-.92.12-1.33-.3-1.23-1.21a3.62,3.62,0,0,0-1-3Z"/><path class="cls-2" d="M19.39,39.22c-.76.64-1,0-1.08-.53-.07-1,0-2.06,0-3.09a1.84,1.84,0,0,0-.56-1.73c-.4-.3-.85-.58-1.31-.35s-.32.67-.31,1.08c0,2,.12,4,.07,6,0,.79.43,2.13-.68,2.2s-.94-1.27-1-2.1a27.13,27.13,0,0,1,.17-6.43c.11-.88.24-1.79-.9-2.16l.45-.44c.54,0,.86-.15.85-.76s.05-1.37.08-2.06l.89.47c0,.48.09,1,.12,1.43.1,1.82.1,1.82,2.28,2.11.37-3.56.78-7.1.82-10.68.43.11,1.38-.47,1.2.43-.45,2.21.61,3.3,2.47,4l-.36.48c-2.3-.13-2.44,0-2.5,2.45,0,.32-.33.7.15.95l.19-.67,2.08-.55c-.09,1.33-.21,2.66-.24,4,0,1-.17,2.08.91,2.73a1,1,0,0,0-.82,1v1.42A1.27,1.27,0,0,1,21,37.36a1.09,1.09,0,0,1,0-.18,10.92,10.92,0,0,0-.24-1.41.66.66,0,0,0-.71-.52c-.39,0-.51.35-.52.68C19.42,37,19.41,38.1,19.39,39.22Zm.88-4.56A4.17,4.17,0,0,0,20,31.54,2.59,2.59,0,0,0,20.27,34.66Z"/><path class="cls-2" d="M34.39,42.3c-.82,1.21,0,2.47-.08,3.7-.05.87.06,1.75.09,2.62,0,.41,0,.83-.56.85a.77.77,0,0,1-.77-.73c-.15-1.34-.2-2.68-.36-4a7.63,7.63,0,0,0-.58-2.91c-.72,1.4-.41,2.74-.45,4,0,.41,0,.88-.49,1s-.88-.41-.94-.85c-.18-1.42-.28-2.84-.38-4.26-.06-.83-.07-1.63-1.15-1.77l-1.46-.1a2.86,2.86,0,0,0-1-1.46c.51-.59,1.2-.41,1.84-.42a4.58,4.58,0,0,0,.33.87.93.93,0,0,0,1.23.39c.43-.2.33-.66.35-1,0-.71.06-1.42.08-2.14.87-.1.88-.74.92-1.4,0-.46-.14-1.09.71-1.27a34.94,34.94,0,0,0-.26,6.22c0,.56.07,1.2.86,1.12s.58-.63.59-1.1L33,34.18h.91c.08.65-.24,1.39.42,1.92C34.17,38.11,33.58,40.21,34.39,42.3Z"/><path class="cls-4" d="M34.39,42.3c-.81-2.09-.22-4.19-.09-6.29a2.46,2.46,0,0,0,.24-2.47A12.55,12.55,0,0,0,34.78,31a36.57,36.57,0,0,1,1.53-8.81.72.72,0,0,1,.41,0c0,1.11.08,2.21.11,3.32a64.36,64.36,0,0,0,.8,15.12c.27,1.29,0,1.5-1.51,1.3-.54-.07-1.11-.28-1.44.41A1,1,0,0,0,34.39,42.3Z"/><path class="cls-5" d="M39.34,61.74c.22-2.85.22-5.72,1.18-8.47a6.41,6.41,0,0,0,.24-2.13c0-.4.06-.92.54-.92.65,0,.63.61.63,1.06A6.68,6.68,0,0,1,41.81,53c-1,4.49-.53,9-.33,13.52a4.76,4.76,0,0,0,.73,2.25.68.68,0,0,1-.19.94l-.11.06a.78.78,0,0,1-1.1-.09.76.76,0,0,1-.12-.19,7.72,7.72,0,0,1-1-2.94A28.17,28.17,0,0,1,39.34,61.74Z"/><path class="cls-4" d="M56.07,19.74a3.38,3.38,0,0,0,.33-2c.56.12.5.62.61,1-.08,1.6.65,3.16.33,4.78-.77.61.38,1,.2,1.36-1,1.64,0,3.27-.12,4.88-.2,2.48.46,4.9.42,7.37a3.36,3.36,0,0,0,.76,2.21,4.34,4.34,0,0,1-.75,3.16h0a.17.17,0,0,1-.24,0,0,0,0,0,0,0,0c-1.36-2.26-1.43-4.82-1.59-7.31-.2-2.93-.15-5.87-.21-8.8-.12-1,.4-2.13-.31-3.11.67-.43.51-1.09.47-1.71a.61.61,0,0,0,0-.46Z"/><path class="cls-6" d="M55.82,26.42c.06,2.93,0,5.87.21,8.8.16,2.49.23,5,1.58,7.31-.06.25-.12.49-.19.73-.12.78.66,1.54,0,2.32h-.5l-1-2.46a.92.92,0,0,0-.43-.86,8.37,8.37,0,0,0-.2-1.66c-1.54-5-1.19-10.06-1.21-15.14C54.89,25.43,55.07,26.43,55.82,26.42Z"/><path class="cls-7" d="M28.07,38c-.64,0-1.33-.17-1.84.42C24.9,38,23.94,36.63,22.35,37a1,1,0,0,1,.82-1.05c1.21.1,2,1.2,3.35,1.4.32-2.26-.31-4.4-.31-6.55.93-.31.82.75,1.47,1.09.82-2.81.3-5.57.26-8.32-.35.33-.41.76-.82,1V22.58c.95,0,.64-.47.28-.91-.1-1.65,1-3.18.45-4.87.59,0,1.33.09,1.11.82-.57,1.85.21,3.62.06,5.44-.11,1.27-.51,2.47-.5,3.77,0,1.89-.11,3.79-.19,5.67S28.25,36.14,28.07,38Z"/><path class="cls-7" d="M27.18,41.19c-1.27,1.65-1.22,3.58-.9,5.44.55,3.17.32,6.36.54,9.53.09,1.27.18,2.54.22,3.81,0,.44.11,1.1-.54,1.12s-.72-.55-.73-1.05c-.06-2.54-.08-5.07-.17-7.61-.07-2.14-.13-4.29-.34-6.42a21,21,0,0,1,.47-4.26c.09-.89.7-1.18,1.44-1.37C27.17,40.65,27.18,40.92,27.18,41.19Z"/><path class="cls-3" d="M52.69,51.61a11.38,11.38,0,0,1,.3,4.11c0,1.11.08,2.22.08,3.33,0,2.28,1.15,4.26,1.56,6.42.09.5.66,1.16-.16,1.4-.65.19-.9-.56-1.1-1a16,16,0,0,1-1.51-5.5c-.1-2.61,0-5.24,0-7.86C51.89,52.16,52.07,51.88,52.69,51.61Z"/><path class="cls-7" d="M64.14,41.63c1.29,1.52.64,3.53,1.3,5.23a7.2,7.2,0,0,1,.39,2.57,1.9,1.9,0,0,1-1,2c-1,.48-1.51-.21-2-.74-1-1-2.08-2-2-3.63h.93c.88.72,1,2.07,2.15,2.67a3,3,0,0,0,.19-2,23.23,23.23,0,0,0-.7-3.21C63.07,43.4,62.94,42.35,64.14,41.63Z"/><path class="cls-3" d="M55.53,42.27a.92.92,0,0,1,.43.86c-2.37.27-2.37.27-1.84,2.59.19.83.35,1.66.61,2.87-2.3-1.38-2-3.59-2.69-5.28L52,42.12a73.23,73.23,0,0,1-.46-9h1.11c-.3,2.32.35,4.58.37,6.88S53.07,42.25,55.53,42.27Z"/><path class="cls-3" d="M58.63,54.1a15.91,15.91,0,0,1,1.87,3.5c1.36,2.71,2.49,5.54,4.38,7.95.32.4.5.87,0,1.21s-.79,0-1-.38a23.58,23.58,0,0,1-1.48-2.46c-1.28-2.66-2.51-5.35-3.72-8a12.19,12.19,0,0,1-.44-1.57Z"/><path class="cls-4" d="M64.14,41.63c-1.2.72-1.08,1.77-.77,2.91a23.41,23.41,0,0,1,.7,3.2,3,3,0,0,1-.19,2c-1.12-.6-1.27-2-2.15-2.67-.43-1-.89-2-1.28-3.06-.73-1.92.27-3.14,2.32-2.82.45.07.85.44,1.35.38Z"/><path class="cls-2" d="M64.12,41.55c-.5.06-.9-.31-1.35-.38-2.05-.32-3.05.9-2.32,2.82.39,1,.85,2,1.28,3.06H60.8a10.22,10.22,0,0,1-1.64-3.8c-.09-.94-.63-.92-1.3-.72a4.34,4.34,0,0,0,.75-3.16h.75c.13.6.08,1.48.9,1.43s2.13,0,2.48-1.34l1.44-.11,3.07-.62.16.53a5.91,5.91,0,0,1-2.77.68.46.46,0,0,0-.51.41.09.09,0,0,0,0,0Z"/><path class="cls-5" d="M23.07.74l-.67.63C19.16.1,14.24,3,13.73,6.37c-.5.52-1.09.23-1.65.17,1.41-2.95,3.21-5.49,6.65-6.27C20.18,0,21.67-.26,23.07.74Z"/><path class="cls-7" d="M45,44.16l.84.49c.81,1,.49,2.3.7,3.43.36,1.93.12,3.94.63,6.05C45.54,52.74,44.76,48.92,45,44.16Z"/><path class="cls-7" d="M19.39,39.22c0-1.12,0-2.24.07-3.35,0-.33.13-.65.52-.68a.66.66,0,0,1,.71.52,10.92,10.92,0,0,1,.24,1.41,1.26,1.26,0,0,0,1.22,1.29,1.08,1.08,0,0,0,.18,0,3,3,0,0,1,.26,1.14c-.11.75-.07,1.83-.9,2-1.05.24-1.1-.84-1.26-1.59A1,1,0,0,0,19.39,39.22Z"/><path class="cls-5" d="M27.18,41.19v-.81a1.27,1.27,0,0,1,.07-.55l1.46.1c-.56,1.34.26,2.63.14,4V45.1a.5.5,0,0,1-1,.07A17.94,17.94,0,0,1,27.18,41.19Z"/><path class="cls-7" d="M52,42.11l.06,1.2-5.23-.15v-.75C48.5,42,50.27,42.5,52,42.11Z"/><path class="cls-5" d="M57,45.59h.45l.48.51a3,3,0,0,1,.59,2.84A4,4,0,0,1,57,45.59Z"/><path class="cls-2" d="M66.07,18.63l-.57.63H65a7.13,7.13,0,0,1-2.68-2.09l.6-.68Z"/><path class="cls-7" d="M14.23,31.64l-.45.44a4.53,4.53,0,0,1-3.43-2.79h0C11.94,29.57,12.8,31.08,14.23,31.64Z"/><path class="cls-2" d="M60.72,15c1.05.07,1.35,1.17,2.17,1.56l-.6.68A5.93,5.93,0,0,1,60.2,16Z"/><path class="cls-3" d="M60.72,15l-.52,1a1.47,1.47,0,0,1-.93-.45l.52-1.14C60.16,14.49,60.59,14.48,60.72,15Z"/><path class="cls-7" d="M9.82,28.54a.87.87,0,0,1,.47-.72v1.49h0A.76.76,0,0,1,9.82,28.54Z"/><path class="cls-7" d="M64.12,40.36a.48.48,0,0,1,.48-.47h0Z"/><path class="cls-5" d="M57.42,43.26c.07-.24.13-.48.19-.73a.19.19,0,0,0,.26,0h0Z"/><path class="cls-6" d="M57.88,46.09l-.48-.51C57.94,45.4,57.83,45.82,57.88,46.09Z"/><path class="cls-7" d="M45.86,43.68a.53.53,0,0,1,.5-.46Z"/><path class="cls-8" d="M28.07,38c.18-1.81.2-3.64.29-5.45s.22-3.78.19-5.67c0-1.3.39-2.5.5-3.77.15-1.82-.63-3.59-.06-5.44.22-.73-.52-.84-1.11-.82-.89.18-.95,1.56-2.05,1.43-.45,0-.8.56-1.44.23.19-1.18.38-2.41.6-3.63.37-2,.78-4,1.12-6,.1-.58.38-1.43-.38-1.68s-.82.67-1.07,1.17c-.13.29-.26.58-.4.86a1.76,1.76,0,0,0-1,1.91c-1,1-1.2,2.47-1.89,3.88-.93-1.16-.88-2.7-2.05-3.31S17.74,9.88,17,8.31c-.2,1.52-1.81,1-1.88,2.28-.19,0-.27.09-.23.25l.28-.2c1.27,0,1,.95,1,1.71.11,3.42-.74,6.78-.66,10.2a4.05,4.05,0,0,1-1.84,3.39c-.76.2-1.51.41-2.27.57A3,3,0,0,1,8,25.45a5.22,5.22,0,0,0-1.52-2.36h0a1,1,0,0,0-.49-1H6a15,15,0,0,1,0-9.87A.49.49,0,0,0,6,12H6c.91-.42,1.14-1.33,1.55-2.11.53-.59,1-1.25,1.93-1.27.64,0,1.34-.23,1.37.79,0,.22.31.53.34.37.29-1.38,2-.48,2.33-1.4s1.18-1,1.93-1c3.39,0,6.63-.94,9.92-1.57,1.91-.37,1.91-.37,2.57,1.38.11.29.22.58.35.86h.33c.65-.51.09-1.12,0-1.64-.18-.83.12-1.14.9-1.32A19.48,19.48,0,0,1,35,4.73,30.67,30.67,0,0,1,49.36,9.52l-.76.12c-1.73-.45-1.82-.4-2.81,1.63.15,0,.32.08.43,0,1.53-.74,1.53-.74,1.57.79a8.65,8.65,0,0,1,0,1.44c-.31,2.9-.64,5.79-1,8.69v.14c-.55,3.4-.71,6.83-1,10.25a48.8,48.8,0,0,0-.85,8,7.75,7.75,0,0,1,0,1.18.82.82,0,0,1-.71.82c-.55.05-1-.14-1.1-.68A12.76,12.76,0,0,1,43,39.77c0-3.43-.4-6.91.13-10.25.61-3.84-.64-7.57,0-11.34.07-.38,0-.83.1-1.16,1-2.25.45-4.81,1.41-7.06.2-.46.35-1-.17-1.27s-.88,0-1.12.52-1,1.07-.84,1.9a1.09,1.09,0,0,1-.23.9c-1.28,1-1.55,2.48-2.12,3.83-.08.18-.37.27-.57.41.13-.46.26-.92.37-1.38a.86.86,0,0,0-.65-1c-.53-.18-.57.31-.72.61l-1.42,2.75c-.72-.6-.38-1.29-.21-2,.38-1.46.78-2.93,1.11-4.4.11-.5.38-1.17-.29-1.49s-.82.32-1.18.6S36,10.84,35.31,11a21.81,21.81,0,0,1-.06-3.79c0-.54-.23-1-.85-.87a.82.82,0,0,0-.67,1,.89.89,0,0,0,0,.14c.78,3.39-.16,6.53-1.15,9.72a21.72,21.72,0,0,0-1.3,4.27c-.3,2.81-1,5.55-1.15,8.43a31.8,31.8,0,0,0-.18,6.1,19,19,0,0,1-.08,2.14c0,.38.08.84-.35,1a.93.93,0,0,1-1.23-.39A3.61,3.61,0,0,1,28.07,38ZM32.86,9.09c-.16.08-.42.12-.15.37l.23-.29.19-.3c-.15,0-.24,0-.27.22ZM30.51,13c-.22.08-.38.22-.36.45,0,.06.15.11.24.16L30.5,13c.3-.14.6-.28.2-.64-.06.22-.13.41-.19.64ZM7.38,16.8a11.93,11.93,0,0,0,.82,4.87c1.18,2.37,3.19,2.5,4.85.43s1.82-4.36,1.61-6.78a2.45,2.45,0,0,0-1.42-2.08A5.12,5.12,0,0,1,12,12.53c-.6-.55-1.09-1.18-2-.79a3.11,3.11,0,0,0-1.71,1.58,8.73,8.73,0,0,0-.88,3.48Z"/><path class="cls-9" d="M48.61,9.66l.76-.12a12.41,12.41,0,0,1,3.79,2.24c1.3,1,1.27,1.29-.12,2.34a.8.8,0,0,0-.39.77,5.42,5.42,0,0,0-.89,4.35c-.18,1.23-.41,2.46-.55,3.7-.21,2-.56,4,.43,5.87-.86,1.3-.39,2.77-.52,4.16l.4.18a73.23,73.23,0,0,0,.46,9c-1.71.38-3.48-.15-5.19.29-.83-.16-.88-.76-.84-1.45.16-2.77.31-5.54.47-8.31a26.51,26.51,0,0,0,1.39-9,21.16,21.16,0,0,1,.2-4.5A32.4,32.4,0,0,0,48.61,9.66Z"/><path class="cls-5" d="M24.26,9.13c.14-.28.27-.57.4-.86.25-.5.2-1.45,1.07-1.17s.48,1.1.38,1.68c-.34,2-.75,4-1.12,6-.22,1.22-.41,2.45-.6,3.63.64.33,1-.19,1.44-.23a25.73,25.73,0,0,0-2.18,5.64c-.23.89,0,1.91-.71,2.69-1.86-.68-2.92-1.77-2.47-4,.18-.9-.77-.32-1.2-.43-1.57.69-1.87,2.21-2.16,3.63a10.88,10.88,0,0,1-1.06,3.51l-.89-.47V26.7a.67.67,0,0,0-.61-.74h-.07l-.8-.14a4.05,4.05,0,0,0,1.84-3.39c-.08-3.42.77-6.78.66-10.2,0-.76.28-1.69-1-1.71v0c.07-1.29,1.68-.76,1.88-2.28.78,1.57,1.17,2.72,2.36,3.35s1.12,2.15,2,3.31c.69-1.41.89-2.86,1.89-3.88h0L24,14.4c.39-1.34.74-2.55,1.08-3.77.21-.77.17-1.44-.82-1.59Zm-7.89,14A13.72,13.72,0,0,0,18,18.55c.13-.59.18-1.58.83-1.55,1.77.07,1.18-1.09,1.08-1.87-.2-1.58-1.19-2.63-2.65-3.64a80.54,80.54,0,0,0-.93,11.61Zm5.21-.42c.08-.11.22-.22.22-.33,0-.31.21-.89-.21-.81s-.33.71,0,1.11Z"/><path class="cls-4" d="M59.27,15.55a1.47,1.47,0,0,0,.93.45,5.93,5.93,0,0,0,2.09,1.21A7.13,7.13,0,0,0,65,19.3c0,.26.06.53.08.79-1.11-.08-1.39.6-1.41,1.53-1.11,2.57-1.2,5.35-1.4,8.07-.23,3.25.39,6.48.5,9.73-.35,1.3-1.52,1.28-2.48,1.34s-.77-.83-.9-1.43a70.09,70.09,0,0,1-.62-8.8c0-1.1-.58-2.21-.24-3.29a5.81,5.81,0,0,0-.23-3.75,23.56,23.56,0,0,0,0-4.75,6.26,6.26,0,0,0-.15-2.44C58.29,15.74,58.48,15.18,59.27,15.55Z"/><path class="cls-4" d="M6.5,24.52c-1.43-.13-2.12-1.23-2.84-2.24a15,15,0,0,1-2.47-6.64c-.59-4,1.14-6.11,5.27-6.48C7,10.21,5.58,11,6,12H6a.83.83,0,0,0-.71.55,11.47,11.47,0,0,0-.91,5.55c.15,1.41.18,3.05,1.63,4H6c0,.43-.06.85.49,1v1.45Z"/><path class="cls-4" d="M13.69,6.4C14.2,3,19.12.12,22.36,1.4c1.39.65,3.1.82,3.79,2.72C22.07,5.63,17.87,5.91,13.69,6.4Z"/><path class="cls-8" d="M55.53,42.27c-2.43,0-2.5,0-2.53-2.26s-.67-4.56-.37-6.88a7.45,7.45,0,0,0,0-5.32c-.35-1.07.11-2.27-.52-3.3a.81.81,0,0,0,.3-1l.34-4.25a1.88,1.88,0,0,0,.68-1.18.79.79,0,0,1,.82-.76.57.57,0,0,1,.18,0,6.14,6.14,0,0,0,0,2.34c0,.47-.07.95-.11,1.42-.75,1.42.07,2.92-.25,4.36,0,5.08-.33,10.18,1.21,15.14A8.37,8.37,0,0,1,55.53,42.27Z"/><path class="cls-4" d="M14.45,26a.69.69,0,0,1,.69.67s0,.05,0,.07v2.05c0,.69-.08,1.37-.08,2.06s-.31.79-.85.76c-1.43-.56-2.29-2.07-3.9-2.33V27.82A8.56,8.56,0,0,0,14.45,26Z"/><path class="cls-7" d="M54.46,17.35a.79.79,0,0,0-1,.55,1.13,1.13,0,0,0,0,.18,1.8,1.8,0,0,1-.69,1.18h-1a5.42,5.42,0,0,1,.88-4.35c1.13-.06,2.37.25,3.06-1.24.39,1,.23,1.69-.48,2.08S54.58,16.74,54.46,17.35Z"/><path class="cls-3" d="M58.07,16.3a6.26,6.26,0,0,1,.15,2.44H57.07c-.11-.4,0-.9-.61-1C56.26,16.39,57.12,16.28,58.07,16.3Z"/><path class="cls-5" d="M6.07,12c-.44-1,.94-1.81.44-2.86a1,1,0,0,1,1.11.74C7.16,10.74,6.93,11.6,6.07,12Z"/><path class="cls-6" d="M54.37,21.11c0-.47.07-.95.11-1.42h1.6c0,.47-.07.94-.1,1.41Z"/><path class="cls-5" d="M6.5,24.52V23A5.22,5.22,0,0,1,8,25.4l-.52.07L7,25H7a.5.5,0,0,0-.51-.49Z"/><path class="cls-4" d="M7,25l.54.51C7.17,25.46,7,25.32,7,25Z"/><path class="cls-4" d="M6.48,24.5A.5.5,0,0,1,7,25C6.62,25,6.41,24.91,6.48,24.5Z"/><path class="cls-7" d="M30.07,36c-.31-2.05.1-4.07.18-6.1.12-2.88.85-5.62,1.15-8.43a21.72,21.72,0,0,1,1.3-4.27c1-3.19,1.93-6.33,1.15-9.72a.85.85,0,0,1,.5-1.07l.14,0c.62-.1.86.33.85.87a21.81,21.81,0,0,0,.06,3.79c.66-.12.82-.74,1.24-1.07s.63-.85,1.18-.6.4,1,.29,1.49c-.33,1.47-.73,2.94-1.11,4.4-.17.69-.51,1.38.21,2a1.13,1.13,0,0,1-.36,1.05c-1.43.86-.16,1,.34,1.41a13.29,13.29,0,0,0,.05,1.41c-.4.21-.44.6-.51,1a.72.72,0,0,0-.41,0c-.36-.64-1-.47-1.58-.59L36.3,13a7.39,7.39,0,0,0-2,3.45c-.56,2-.4,4.1-.67,6.14-.32,2.44-.92,4.82-1.26,7.26-.08.61,0,.9.59,1v3.3l-.09,5.48c0,.47.05,1-.59,1.1-.79.08-.88-.56-.86-1.12a34.94,34.94,0,0,1,.26-6.22c-.85.18-.68.81-.71,1.27C30.94,35.29,30.93,35.93,30.07,36Z"/><path class="cls-8" d="M38.51,21.58c1.13-1.29,1.21-3,2-4.49.48-.88.81-1.84,1.31-3,.58,1.92-.18,3.44-.3,5-.21,2.67.64,5.23.51,7.87a92.31,92.31,0,0,0,0,14.11c.08.83.19,1.61-1,1.69s-1.58-.08-1.86-1.43A63.49,63.49,0,0,1,38.27,28c0-.86.2-1.77-.48-2.5h0c1.13-.06.81-.83.74-1.48A3.56,3.56,0,0,0,38.51,21.58Z"/><path class="cls-7" d="M48.61,9.66a31.93,31.93,0,0,1-.6,9.45,21.16,21.16,0,0,0-.2,4.5,26.51,26.51,0,0,1-1.39,9h-.59c.27-3.42.43-6.85,1-10.24.29,0,.2-.1,0-.15.32-2.9.65-5.79,1-8.69a8.66,8.66,0,0,0,0-1.44c0-1.53,0-1.53-1.57-.79a1.24,1.24,0,0,1-.43,0C46.79,9.26,46.88,9.21,48.61,9.66Z"/><path class="cls-2" d="M37.18,19.74c-.5-.37-1.77-.55-.34-1.41a1.13,1.13,0,0,0,.36-1l1.42-2.75c.15-.3.08-.83.72-.61s.8.48.65,1.05-.24.92-.37,1.38A5.9,5.9,0,0,0,38.19,19,1.1,1.1,0,0,1,37.18,19.74Z"/><path class="cls-2" d="M38.51,21.58a3.53,3.53,0,0,1,0,2.42c-.88.17-.74.86-.74,1.48h-.91c0-1.11-.07-2.21-.11-3.32.07-.38.11-.77.51-1C37.65,21.29,38,21.65,38.51,21.58Z"/><path class="cls-4" d="M67.78,23.48c.14-.44.22-1.11.88-.54a7.14,7.14,0,0,1,1.61,2.63,19,19,0,0,1,1.55,8.61A4,4,0,0,1,70.57,37c-.77.76-1.33.58-1.66-.46a23.69,23.69,0,0,1-1.06-9.08,21,21,0,0,0-.11-2.86C67.76,24.19,67.77,23.83,67.78,23.48Z"/><path class="cls-4" d="M67.25,38.74l-3.07.62c-.16-1.89-.23-3.78-.42-5.66a23.16,23.16,0,0,1,.38-8.09,1.21,1.21,0,0,1,.88-1c1.19,3.31,1,6.88,1.91,10.26A21.75,21.75,0,0,0,68,38c-.09.37-.64.41-.6.87Z"/><path class="cls-7" d="M65.07,24.55a1.21,1.21,0,0,0-.88,1,23.16,23.16,0,0,0-.38,8.09c.19,1.88.26,3.77.42,5.66l-1.44.11c-.11-3.25-.73-6.48-.5-9.73.2-2.72.29-5.5,1.4-8.07.78-.14.76.84,1.41,1V20.07a7,7,0,0,0-.08-.79h.54a3.62,3.62,0,0,1,1,3c-.1.91.31,1.33,1.23,1.21v1.07c-.3-.09-.83-.31-.86-.25-.53,1-1,.38-1.51,0C65.34,24.27,65.14,24.46,65.07,24.55Z"/><path class="cls-2" d="M67.39,38.81c0-.46.51-.5.6-.87.36,0,.88-.18,1,.26s-.33.6-.71.65S67.69,38.84,67.39,38.81Z"/><path class="cls-9" d="M22.94,26.56c.68-.78.48-1.8.71-2.69a25.73,25.73,0,0,1,2.18-5.64c1.1.13,1.16-1.25,2.05-1.43.54,1.69-.55,3.22-.45,4.86a1.17,1.17,0,0,0-.28.92v1.93a13.19,13.19,0,0,0-.91,6.28c0,2.15.63,4.29.31,6.55-1.34-.2-2.14-1.3-3.35-1.4-1.08-.65-.93-1.74-.91-2.73,0-1.33.15-2.66.24-4A2.8,2.8,0,0,0,22.61,27Z"/><path class="cls-4" d="M16.07,29.29a11,11,0,0,0,1-3.55c.29-1.42.59-2.94,2.16-3.63a103.31,103.31,0,0,1-.82,10.68c-2.18-.29-2.18-.29-2.28-2.11C16.14,30.25,16.07,29.74,16.07,29.29Z"/><path class="cls-5" d="M22.58,27a2.8,2.8,0,0,1-.08,2.18l-2.08.55a.67.67,0,0,0-.34-.28C20.14,27,20.28,26.91,22.58,27Z"/><path class="cls-8" d="M20.27,34.66A2.59,2.59,0,0,1,20,31.54,4.17,4.17,0,0,1,20.27,34.66Z"/><path class="cls-8" d="M20.07,29.49a.67.67,0,0,1,.34.28l-.19.67C19.75,30.19,20.07,29.81,20.07,29.49Z"/><path class="cls-3" d="M33,34.12v-3.3c.13-.54.27-1.08.37-1.63.48-2.55,1-5.1,1.42-7.64.55.12,1.22-.05,1.58.59A36.57,36.57,0,0,0,34.81,31a12.55,12.55,0,0,1-.24,2.59.83.83,0,0,0-.66.55Z"/><path class="cls-7" d="M33.88,34.09a.83.83,0,0,1,.66-.55A2.46,2.46,0,0,1,34.3,36C33.64,35.48,34,34.74,33.88,34.09Z"/><path class="cls-7" d="M58.27,23.49a5.81,5.81,0,0,1,.23,3.75c-.34,1.08.2,2.19.24,3.29a70.09,70.09,0,0,0,.62,8.8h-.75a3.36,3.36,0,0,1-.76-2.21c0-2.47-.62-4.89-.42-7.37.12-1.61-.84-3.24.12-4.88.18-.31-1-.75-.2-1.36Z"/><path class="cls-2" d="M54.37,21.11H56a.61.61,0,0,1,0,.46c-1.16.3-1.22.89-.47,1.71.71,1,.19,2.08.31,3.11-.75,0-.93-1-1.7-.95C54.44,24,53.62,22.53,54.37,21.11Z"/><path class="cls-2" d="M58.27,23.49h-.92c.32-1.62-.41-3.18-.33-4.78h1.24A23.86,23.86,0,0,1,58.27,23.49Z"/><path class="cls-6" d="M55.51,23.31c-.75-.82-.69-1.41.47-1.71C56.07,22.22,56.18,22.88,55.51,23.31Z"/><path class="cls-8" d="M26.21,30.79a13.19,13.19,0,0,1,.91-6.28c.41-.19.47-.62.82-1,0,2.75.56,5.51-.26,8.32C27.07,31.54,27.14,30.48,26.21,30.79Z"/><path class="cls-8" d="M27.15,22.58a1.17,1.17,0,0,1,.28-.92C27.79,22.11,28.07,22.54,27.15,22.58Z"/><path class="cls-7" d="M52.68,27.81a7.45,7.45,0,0,1,0,5.32H51.52c-.14-.06-.41-.13-.4-.18.13-1.39-.34-2.86.52-4.16Z"/><path class="cls-7" d="M7.38,16.8a8.73,8.73,0,0,1,.88-3.48A3.11,3.11,0,0,1,10,11.74c1-.39,1.45.24,2,.79a5.12,5.12,0,0,0,1.22.71,2.45,2.45,0,0,1,1.42,2.08c.21,2.42,0,4.75-1.61,6.78S9.38,24,8.2,21.67A11.93,11.93,0,0,1,7.38,16.8Zm1.07,1c.48,1.13.06,2.86,1.34,4.14a1.32,1.32,0,0,0,1.82.36,1.21,1.21,0,0,0,.24-.21,6.21,6.21,0,0,0,2-5.61,2.09,2.09,0,0,0-1.41-2c-1.68-.57-4,1.15-4,3.26Z"/><path class="cls-5" d="M6.07,22.11c-1.45-1-1.48-2.6-1.63-4a11.47,11.47,0,0,1,.91-5.55A.83.83,0,0,1,6.06,12a.49.49,0,0,1,0,.24A15,15,0,0,0,6.07,22.11Z"/><path class="cls-5" d="M23.29,11a1.76,1.76,0,0,1,1-1.91h0a1.56,1.56,0,0,1-.94,1.93Z"/><path class="cls-5" d="M6.51,23.07c-.55-.14-.53-.56-.49-1A1,1,0,0,1,6.51,23.07Z"/><path class="cls-7" d="M30.51,13l.19-.64c.4.36.1.5-.2.64Z"/><path class="cls-7" d="M30.5,13l-.11.61c-.09,0-.24-.1-.24-.16a.47.47,0,0,1,.36-.45Z"/><path class="cls-7" d="M32.86,9.09c0-.19.12-.26.27-.22l-.19.3Z"/><path class="cls-7" d="M32.94,9.17l-.23.29c-.27-.25,0-.29.15-.37Z"/><path class="cls-5" d="M15.16,10.59l-.28.2c0-.16,0-.24.23-.25Z"/><path class="cls-9" d="M46.81,22.24c.2.05.29.1,0,.15Z"/><path class="cls-5" d="M52.68,27.81l-1,1c-1-1.89-.64-3.89-.43-5.87.14-1.24.37-2.47.55-3.7h1l-.33,4.25c-.67.16-1.07.4-.3,1C52.79,25.54,52.33,26.74,52.68,27.81Z"/><path class="cls-8" d="M16.37,23.1a81,81,0,0,1,.93-11.64A5.21,5.21,0,0,1,20,15.1c.1.78.69,1.94-1.08,1.87-.65,0-.7,1-.83,1.55A13.72,13.72,0,0,1,16.37,23.1Z"/><path class="cls-8" d="M23.33,11.07a1.56,1.56,0,0,0,.94-1.93c1,.15,1,.82.82,1.59C24.75,12,24.4,13.16,24,14.5Z"/><path class="cls-8" d="M21.58,22.68c-.32-.4-.29-1.09,0-1.14s.23.5.21.81C21.8,22.46,21.66,22.57,21.58,22.68Z"/><path class="cls-2" d="M65.07,20.09v2.54c-.65-.17-.63-1.15-1.41-1C63.66,20.74,63.94,20,65.07,20.09Z"/><path class="cls-7" d="M52.16,24.51c-.77-.6-.37-.84.3-1A.81.81,0,0,1,52.16,24.51Z"/><path class="cls-8" d="M34.73,21.55c-.47,2.54-.94,5.08-1.42,7.64-.1.55-.24,1.09-.37,1.63-.6-.09-.67-.38-.59-1,.34-2.44.94-4.82,1.26-7.26.27-2,.11-4.11.67-6.14a7.39,7.39,0,0,1,2-3.45Z"/><path class="cls-3" d="M37.72,25.48c0-.62-.14-1.31.74-1.48C38.53,24.65,38.85,25.42,37.72,25.48Z"/><path class="cls-9" d="M8.45,17.74c0-2.13,2.31-3.85,4-3.36a2.09,2.09,0,0,1,1.41,2,6.21,6.21,0,0,1-2,5.61,1.31,1.31,0,0,1-1.85.09,1.21,1.21,0,0,1-.21-.24C8.51,20.62,8.93,18.89,8.45,17.74Z"/></g></g></svg>