<svg xmlns="http://www.w3.org/2000/svg" viewBox="0 0 84.18 110.29"><defs><style>.cls-1{fill:#fff;}.cls-2{fill:#9b9b9b;}.cls-3{fill:#4e5764;}.cls-4{fill:#868686;}.cls-5{fill:#a8a8a8;}.cls-6{fill:#909090;}.cls-7{fill:#b5b5b5;}.cls-8{fill:#243143;}.cls-9{fill:#19212d;}.cls-10{fill:#202834;}.cls-11{fill:#f3f3f3;}.cls-12{fill:#101722;}.cls-13{fill:#f5f6f6;}</style></defs><g id="Layer_2" data-name="Layer 2"><g id="Layer_1-2" data-name="Layer 1"><path class="cls-1" d="M14.82,16.33c0,1.1-.9,2.44,1.07,3,.67.17.5,1-.28,1.3a7.18,7.18,0,0,1-1.14.22,5.58,5.58,0,0,0-3.94-.21c-2.1.43-3.62,2-5.52,2.72A6.42,6.42,0,0,0,1.6,26.82c-2.74,6-1.81,11.78,1.57,17a51,51,0,0,1,4.75,10,8.43,8.43,0,0,0,3.81,6.51,29.06,29.06,0,0,1,6.79,6.35c1,1.36,2.08,2.35,3.94,2.12a7.57,7.57,0,0,1,2.12.33c.46.76-.33,2,.89,2.46l.1.88c-.74.64,0,1.67-.45,2.23-1.38,1.88-.17,3.44.43,5.07a13.44,13.44,0,0,1,.62,2c.91,4.38,1.18,8.85,1.89,13.26a11.86,11.86,0,0,0,2.8,6.14,3.79,3.79,0,0,0-.45-3.41c-1.45-2.93-1.26-6.22-2-9.32,1.23-1.67,0-3.14-.41-4.66-.33-1.29-.82-2.44-.34-3.92.3-.92.71-2.43.17-3.2-1.27-1.78-1-3.61-.89-5.51.63,0,1.33.37,1.79-.38l.89.44c1.27.06,2.6.54,3.7-.56l.83-.15c.93.78,2,.25,3,.31s1.6.5,1.59,1.6.09,2.23.12,3.34c.06,2.9,1,5.66,1.27,8.5a84.15,84.15,0,0,0,4.18,17.41,7.32,7.32,0,0,0,1,1.87.71.71,0,0,0,.62.17.54.54,0,0,0,.46-.61.2.2,0,0,0,0-.11,10.94,10.94,0,0,0-.55-1.58,58.62,58.62,0,0,1-2.66-8.67c-1-4.11-1.61-8.29-2.34-12.45a31.61,31.61,0,0,1-.52-8.46c2.57.76,4.8,0,7-.85.57.93.36,1.94.7,2.84a8.11,8.11,0,0,0,1.68,2.3,3.2,3.2,0,0,1,.5,1.83,42.13,42.13,0,0,0,2.06,9.07,28.87,28.87,0,0,1,1.11,5.38A30.2,30.2,0,0,0,55,99a14.15,14.15,0,0,1,.94,3.44,19.3,19.3,0,0,0,2.33,7c.27.47.51,1.18,1.21.79.5-.28.22-.86,0-1.29a29.14,29.14,0,0,1-2.07-6.11c-1.14-5.12-2.61-10.17-3.69-15.32-.76-3.62-2.26-7.09-2.46-10.86a3.54,3.54,0,0,0-1-2.13,6.08,6.08,0,0,1-1.14-2.6c-.39-1.61-.3-1.76,1.3-2,.57-.09,1.12-.1,1.5-.61a15.44,15.44,0,0,0,5.71.1,6.44,6.44,0,0,1,2.07,3A82.23,82.23,0,0,1,62,83.18c.11.77-.08,1.6.47,2.28.51,2.89.31,5.87,1.15,8.73a48.73,48.73,0,0,1,1.4,7,10.42,10.42,0,0,0,.84,3.93c0,1.18.11,2.37.11,3.55,0,.59,0,1.19.76,1.17a.93.93,0,0,0,1.07-.75.87.87,0,0,0-.07-.53c-.28-1.14-.6-2.28-.9-3.42a21.56,21.56,0,0,0-.63-4.8c.27-.33.3-.64-.09-.9,0-2-.83-3.79-1.08-5.72.24-.58-.07-.93-.52-1.21-.24-2.2-.49-4.39-.73-6.59.15-2.62-.55-5.15-.92-7.71a21.14,21.14,0,0,0-1.24-5.83c-1-2.34-1.09-2.32.83-4.16a4.82,4.82,0,0,1,1.41-.13c1.53.31,3,.48,4.22-.8A2,2,0,0,1,69.93,67c.79.12,1.56.3,2.35.38,2.24.2,3.21-1.14,2.4-3.25a2.33,2.33,0,0,0-.79-1.16c-1.09-.8-.92-1.48.11-2.17,1.3-.88,2.64-1.73,3.85-2.71,1.38-1.12,2.86-2.28,1.69-4.42A1.58,1.58,0,0,1,80,51.71c.62-.65,1.17-.05,1.66.3a1.61,1.61,0,0,0,2,.11,2.1,2.1,0,0,0,.23-2.43A3.68,3.68,0,0,0,83,48.56c-.59-.64-1.21-1.25-1.82-1.87.6-1-.45-2.23.27-3.25a1.89,1.89,0,0,0-.23-2.67,1.66,1.66,0,0,0-.34-.22,5,5,0,0,1-2.06-4.1,2.85,2.85,0,0,0-.76-1.94c-1.8-1.81-3.54-3.67-5.3-5.52a31.28,31.28,0,0,0-8.55-6.47c-3-1.54-6.34-2.15-9.47-3.35a16.64,16.64,0,0,0-4.07-1.35,37.23,37.23,0,0,0-7.16-.3c-1.16.07-2.4.5-3.47-.38-.33-.69-1.07-1.14-1-2.08,0-.61-.54-.92-1.13-1.06-.24-1.08-.1-2.31-1.22-3-.15-.4-.3-.81-.44-1.21a2.51,2.51,0,0,0-.89-2.22,1.22,1.22,0,0,0-.18-.36C35.07,5.51,33.92,4.32,33,3,30.85,0,26.19-1.43,23,2.15a25.35,25.35,0,0,0-6.13,10.36C15.05,13.19,14.67,14.62,14.82,16.33Z"/><path class="cls-2" d="M52,69.26c-.38.51-.93.52-1.5.61-1.6.24-1.69.39-1.3,2a6.08,6.08,0,0,0,1.14,2.6,3.54,3.54,0,0,1,1,2.13c.2,3.77,1.7,7.24,2.46,10.86,1.08,5.15,2.55,10.2,3.69,15.32a29.14,29.14,0,0,0,2.07,6.11c.2.43.48,1,0,1.29-.7.39-.94-.32-1.21-.79a19.3,19.3,0,0,1-2.33-7A14.15,14.15,0,0,0,55.08,99a30.2,30.2,0,0,1-1.68-6.47,28.87,28.87,0,0,0-1.11-5.38A42.13,42.13,0,0,1,50.23,78a3.2,3.2,0,0,0-.5-1.83,8.11,8.11,0,0,1-1.68-2.3c-.34-.9-.13-1.91-.7-2.84-2.19.86-4.42,1.61-7,.85a31.61,31.61,0,0,0,.52,8.46c.73,4.16,1.34,8.34,2.34,12.45a58.62,58.62,0,0,0,2.66,8.67,10.94,10.94,0,0,1,.55,1.58.53.53,0,0,1-.32.69l-.11,0a.71.71,0,0,1-.62-.17,7.32,7.32,0,0,1-1-1.87,84.15,84.15,0,0,1-4.18-17.41c-.31-2.84-1.21-5.6-1.27-8.5,0-1.11-.12-2.23-.12-3.34s-.49-1.53-1.59-1.6-2.08.47-3-.31c.29-.64,1-.32,1.47-.71l2.38-.27c.1.11.19.29.32.33,1.3.41,2.7.25,3.9,1.39.74.7,1-.49,1.07-1.19h0a3.94,3.94,0,0,1,2.44-.5c.79.15,1.72.31,2.33-.55L49,69C49.92,69.29,51,68.87,52,69.26ZM39.53,71.79s.09.11.14.12.11-.07.16-.11l-.21-.15Z"/><path class="cls-3" d="M52,69.26c-1-.39-2,0-3-.27.11-.72,1.14-.85,1.09-1.68.37-.7.92-1.3,1.64-.62a3.1,3.1,0,0,0,2.42.6c.86,0,1.73,0,2.59,0,.37.5.92.39,1.43.41h.51c1.62-.35,3-1.57,4.78-1.35.68-.12,1.46.12,2-.5,1.07-.48,2.6-.27,2.89-1.92.81-.08,1.2-.78,1.62-1.28.54-.66.17-1.17-.65-1.3a2.23,2.23,0,0,1,0-.36l.06-.52c.58-1,1.85-1.28,2.28-2.39,1-.14,2-.32,3-.55,1.94-.56,3.62-3.09,2.84-4.49s.28-3-.64-4.35l.46-.13c1.64.77,1.64.77,2.59-.55.48-.41.33-1,.45-1.52l.89.16c.61.62,1.23,1.23,1.82,1.87a3.68,3.68,0,0,1,.87,1.13,2.1,2.1,0,0,1-.23,2.43,1.61,1.61,0,0,1-2-.11c-.49-.35-1-1-1.66-.3a1.58,1.58,0,0,0-.46,1.93c1.17,2.14-.31,3.3-1.69,4.42-1.21,1-2.55,1.83-3.85,2.71-1,.69-1.2,1.37-.11,2.17a2.33,2.33,0,0,1,.79,1.16c.81,2.11-.16,3.45-2.4,3.25-.79-.08-1.56-.26-2.35-.38a2,2,0,0,0-1.82.32c-1.25,1.28-2.69,1.11-4.22.8a4.82,4.82,0,0,0-1.41.13c-1.74-.23-3.11,1.1-4.79,1.13A15.34,15.34,0,0,1,52,69.26Zm19.91-4c.58,0,1-.3,1-.81s0-1.5-.86-1.79c-.48-.17-1.39.78-1.38,1.4,0,.79.68.91,1.25,1.16ZM71.68,61a2.82,2.82,0,0,0,1.91-1.46.53.53,0,0,0-.3-.69l-.09,0c-.47-.14-2.2,1.35-2.1,1.79.05.2.22.36.58.34Zm7-9.63c0-.27-.08-.43-.35-.4a.49.49,0,0,0-.36.22.39.39,0,0,0,.2.5l0,0c.31.05.43-.16.5-.38Z"/><path class="cls-3" d="M35.62,69.88c-.42.39-1.18.07-1.47.71l-.83.15a7.63,7.63,0,0,0-3.46-.2c-.54,0-.63.36-.24.76l-.89-.43L27,71c-1.21-.22-.9,1-1.43,1.47a8.78,8.78,0,0,0-.1-.88c.16-1,.62-2.08-.89-2.46a7.57,7.57,0,0,0-2.12-.33c-1.86.23-3-.76-3.94-2.12a29.06,29.06,0,0,0-6.79-6.35,8.43,8.43,0,0,1-3.81-6.51c1.78-.8,1.78-.8,1.29-2.44,2.32,1,2.79,3.73,4.62,5.22.12.1.11.49,0,.68-.64,1.36.47,2.16,1.15,2.85s1.49.75,1.05,1.89c-.09.24.32.66.62.61,1.32-.21,2.16.81,3.23,1.23.54.21.87.51,1.44,0s1.06-.22.93.56a2.43,2.43,0,0,0,.36,1.34c-.11,1.07,1.16.82,1.45,1.5a1.54,1.54,0,0,1-2.17.15,2,2,0,0,1-.3-.35c-.71-1-1.43-.66-2.41-.59.73.8,1.17,1.63,2.16,1.68a7.8,7.8,0,0,1,3,.38.44.44,0,0,0,.59-.18.39.39,0,0,0,0-.26c0-.27-.3-.52-.47-.77.18-.35.36-.7.53-1h.94a5.13,5.13,0,0,1,1.18.07c.92.28.55.79.08,1.17s-1,.9-.62,1.59,1,.09,1.45.08h1.18c1.43-.06,2.85.53,4.3-.37a1.29,1.29,0,0,1,1.82.17A1.26,1.26,0,0,1,35.62,69.88Z"/><path class="cls-4" d="M81.22,46.7l-.9-.16a1.24,1.24,0,0,1-.59-.87c.9-.63-.13-1.28,0-1.91A6.17,6.17,0,0,0,78,39.28a2.06,2.06,0,0,1-.73-1.64c.19-2-.94-3.25-2.26-4.43-.7-.63-1.47-1.19-2.2-1.78-.17-.34-.31-.7-.79-.67h0c0-1-.78-1.57-1.42-2.1-3.29-2.77-6.74-5.3-11.08-6.2a3.07,3.07,0,0,0-2.88-.83h0c-.29-.74-.89-.55-1.44-.49h0c-.87-1.29-2.23-1.38-3.59-1.46h-.14a8.68,8.68,0,0,0-4-1,45.13,45.13,0,0,0-7.06.49c0-.74-.64-1.36-.35-2.13,1.07.88,2.31.45,3.47.38a37.23,37.23,0,0,1,7.16.3,16.64,16.64,0,0,1,4.07,1.35c3.13,1.2,6.46,1.81,9.47,3.35a31.28,31.28,0,0,1,8.55,6.47c1.76,1.85,3.5,3.71,5.3,5.52a2.81,2.81,0,0,1,.76,1.94,5,5,0,0,0,2.06,4.1,1.88,1.88,0,0,1,.8,2.55,1.85,1.85,0,0,1-.23.34C80.77,44.47,81.82,45.66,81.22,46.7Z"/><path class="cls-2" d="M9.18,51.41c.49,1.64.49,1.64-1.29,2.44A51.35,51.35,0,0,0,3.17,43.78c-3.38-5.24-4.31-11.07-1.57-17A6.42,6.42,0,0,1,5,23.32c1.9-.76,3.42-2.29,5.52-2.72a5.58,5.58,0,0,1,3.94.21,1.6,1.6,0,0,1-1.29.86,1.1,1.1,0,0,0-.85-.31c-3.4.3-6,2.32-8.64,4.14a3.81,3.81,0,0,0-1.64,3.73A7.74,7.74,0,0,1,2,30.3a12.54,12.54,0,0,1-.41,2.79,3.29,3.29,0,0,0,.23,3.09,13,13,0,0,1,.75,1.71c-1,.78-.72,1.63-.13,2.49a6.27,6.27,0,0,0,1.5,2.9h.45c.61,0,.64.66,1,.91a20.33,20.33,0,0,0,3.76,7.25Z"/><path class="cls-5" d="M25.54,72.51c.53-.44.22-1.69,1.43-1.47v.2c-.1,1.9-.38,3.73.89,5.51.54.77.13,2.28-.17,3.2-.48,1.48,0,2.63.34,3.92.38,1.52,1.64,3,.41,4.66.71,3.1.52,6.39,2,9.32a3.79,3.79,0,0,1,.45,3.41,11.86,11.86,0,0,1-2.8-6.14c-.71-4.41-1-8.88-1.89-13.26a13.44,13.44,0,0,0-.62-2c-.6-1.63-1.81-3.19-.43-5.07C25.5,74.18,24.8,73.15,25.54,72.51Z"/><path class="cls-3" d="M40.08,17.15c-.29.77.39,1.39.35,2.12-.24.54.34.35.48.56-.74,1.44-.48,3.1-1,4.59h-.84c-.21-1.23.26-2.56-.52-3.71,0-.71,0-1.7-1-1.39a18.6,18.6,0,0,1-4.47.31c-.71,0-1.24.22-1.36,1h-.84a3.23,3.23,0,0,0-2.21-1l-3.15-.07v-.8a.82.82,0,0,1,1-.45c3.21,1,6.49-.12,9.72.36.56.09,1.19,0,1.28-.76a3.78,3.78,0,0,0-.47-3c-.54-.74-.7-1.79-2-1.66-.69.06-1.3-.37-1-1.21.48-1.66.06-3.34.28-5h1a1.22,1.22,0,0,1,.18.36,2,2,0,0,0,.89,2.22c.14.4.29.81.44,1.21a3.39,3.39,0,0,0,1.22,3c.59.14,1.16.45,1.13,1.06C39,16,39.75,16.46,40.08,17.15Zm-1,1.94.1.2c0-.13.11-.26.14-.39s-.07-.13-.1-.19c0,.12-.09.25-.13.38Z"/><path class="cls-5" d="M57.71,69.41c1.68,0,3-1.36,4.79-1.13-1.92,1.84-1.88,1.82-.83,4.16a21.14,21.14,0,0,1,1.24,5.83c.37,2.56,1.07,5.09.92,7.71-.4-.22-.56-1.07-1.27-.47-.55-.68-.36-1.51-.47-2.28a81.35,81.35,0,0,0-2.31-10.82A6.42,6.42,0,0,0,57.71,69.41Z"/><path class="cls-2" d="M35.19,7.18h-1c-.26-.15-.62-.22-.56-.65a8,8,0,0,0-3-4.41,4.92,4.92,0,0,0-6.69.25,17,17,0,0,0-2.83,3.49c-.31.46-.38.86.15,1.2L20,8.34c-.67,0-.87.55-1.1,1-.52,1-1,2.07-1.49,3.1l-.64.06A25.45,25.45,0,0,1,22.92,2.12C26.15-1.46,30.81,0,33,3,33.92,4.29,35.06,5.48,35.19,7.18Z"/><path class="cls-6" d="M62.56,85.46c.71-.6.87.25,1.27.47.24,2.2.49,4.39.73,6.59A.89.89,0,0,0,65,93.69l.09,0c.25,1.93,1,3.76,1.08,5.72-.39.34-.34.64.09.9a21.56,21.56,0,0,1,.63,4.8H66a10.42,10.42,0,0,1-.84-3.93,48.73,48.73,0,0,0-1.4-7C62.92,91.33,63.07,88.35,62.56,85.46Z"/><path class="cls-4" d="M25.49,18.86v.8c-.64.07-1.37-.13-1.84.53-1.51,0-3.08-.36-4.31.92a3.58,3.58,0,0,1-1.1.42,8.62,8.62,0,0,0-5.8,2.26A3.89,3.89,0,0,1,10.18,25h0a1.23,1.23,0,0,0-.56-1.19c1.35-.48,2.79-.79,3.6-2.16a1.6,1.6,0,0,0,1.29-.86,7.18,7.18,0,0,0,1.14-.22c.78-.28,1-1.13.28-1.3-2-.51-1.07-1.85-1.07-3,.37.14.78.33.87.71.39,1.7,1.53,2,3,1.66-.14.54-.36,1.2.57,1A25.31,25.31,0,0,1,23,19.14c.46,0,.57-.45.62-.85C24.31,18.09,24.8,18.87,25.49,18.86Z"/><path class="cls-3" d="M18.69,18.7c-1.47.29-2.61,0-3-1.66-.09-.38-.5-.57-.87-.71-.15-1.71.23-3.14,2-3.85l.64-.06.4.26a4.41,4.41,0,0,0-.71,3c.1,1.68,1.39,1.45,2.12,2.08C19.3,18.21,18.92,18.41,18.69,18.7Z"/><path class="cls-2" d="M65.92,105.13h.93c.3,1.14.62,2.28.9,3.42a.92.92,0,0,1-1,1.28c-.8,0-.76-.58-.76-1.17A29.8,29.8,0,0,0,65.92,105.13Z"/><path class="cls-2" d="M29.62,71.3c-.39-.4-.3-.71.24-.76a7.63,7.63,0,0,1,3.46.2C32.22,71.84,30.92,71.41,29.62,71.3Z"/><path class="cls-2" d="M37.92,14a3.39,3.39,0,0,1-1.22-3C37.82,11.7,37.68,12.93,37.92,14Z"/><path class="cls-5" d="M24.55,69.17c1.51.38,1.05,1.47.89,2.46C24.22,71.14,25,69.93,24.55,69.17Z"/><path class="cls-2" d="M36.26,9.76a2,2,0,0,1-.89-2.22A2.51,2.51,0,0,1,36.26,9.76Z"/><path class="cls-2" d="M26.92,71.24V71l1.76-.17C28.27,71.61,27.57,71.28,26.92,71.24Z"/><path class="cls-7" d="M65.08,93.73a.87.87,0,0,1-.55-1.11l0-.1C65,92.8,65.32,93.15,65.08,93.73Z"/><path class="cls-2" d="M66.25,100.35c-.43-.26-.48-.56-.09-.9C66.55,99.71,66.52,100,66.25,100.35Z"/><path class="cls-8" d="M35.62,69.88a1.29,1.29,0,0,0-2.06-1.08c-1.45.9-2.87.31-4.3.37H28.08c-.39,0-1.07.66-1.45-.08s.08-1.16.62-1.59.84-.89-.08-1.17A5.13,5.13,0,0,0,26,66.26c.52-1.22.93-2.44,0-3.64a4.37,4.37,0,0,1-.5-4.65,12.36,12.36,0,0,1,.14-1.35,3.16,3.16,0,0,0,1.4-.2c.48-.2.8,0,.72.52-.25,1.63,1,1.78,1.9,1.53,1.18-.34,2.18.21,3.27.14s1.1,1.37,1.9,1.2c1.64-.34,1.26.71,1.21,1.52,0,.54-.41,1-.19,1.62s-.2.93-.73.87c-1.31-.16-1.68,1.07-2.48,1.63s-.21,1.15.12,1.7.79.34,1.24.15,1.17-.75,1.8-.51c2.53.93,5.2-1.06,7.71.39.27.15.78-.07,1.15-.18s.77-.24.89,0c.71,1.34,1.57.35,2.4.26a15.28,15.28,0,0,1,2.14,0c.05.83-1,1-1.09,1.68l-.91.1c-1.44-.62-3-.19-4.47-.38-.35,0-.86-.13-1,.34s.52.68.69,1.09h0a2.54,2.54,0,0,1-1.77-.58c-1.18-1.26-2.36-1.06-3.52,0Zm-1.36-8.76a9.4,9.4,0,0,0-3.69-1.79c-.37.69-.36,1.51.07,1.61,1.05.24,2.12,1,3.62.18Zm-2.68,3.29c.77,0,1.47-.22,1.51-1.13s-.62-.76-1.18-.78a1.28,1.28,0,0,0-1.38,1.16c0,.05,0,.09,0,.14C30.47,64.41,31.12,64.32,31.58,64.41Z"/><path class="cls-3" d="M38,69.61c1.16-1.11,2.34-1.31,3.52,0a2.54,2.54,0,0,0,1.77.58c-.07.7-.33,1.89-1.07,1.19-1.2-1.14-2.6-1-3.9-1.39C38.19,69.9,38.1,69.72,38,69.61Z"/><path class="cls-3" d="M43.29,70.14c-.17-.41-.86-.53-.69-1.09s.64-.39,1-.34c1.49.19,3-.24,4.47.38-.61.86-1.54.7-2.33.55A3.9,3.9,0,0,0,43.29,70.14Z"/><path class="cls-1" d="M39.53,71.79l.09-.14.21.15s-.11.11-.16.11S39.58,71.83,39.53,71.79Z"/><path class="cls-9" d="M50.06,67.31a15.28,15.28,0,0,0-2.14,0c-.83.09-1.69,1.08-2.4-.26-.12-.24-.57-.1-.89,0s-.88.33-1.15.18c-2.51-1.45-5.18.54-7.71-.39-.63-.24-1.22.26-1.8.51s-.89.43-1.24-.15-.79-1.23-.12-1.7,1.17-1.79,2.48-1.63c.53.06,1-.24.73-.87s.16-1.08.19-1.62c.05-.81.43-1.86-1.21-1.52-.8.17-.95-1.26-1.9-1.2s-2.09-.48-3.27-.14c-.91.25-2.15.1-1.9-1.53.08-.54-.24-.72-.72-.52a3.21,3.21,0,0,1-1.41.2l-.5-.48a3.33,3.33,0,0,1-.43-1.85.32.32,0,0,0,0-.55l-.24-2.38a.9.9,0,0,0,.68-.44,5.81,5.81,0,0,1,3.88.85A4.65,4.65,0,0,1,31.06,56c1.62-1.78,3.2-.43,4.72-.66.32,0,.56.21.72.52,1.11,2.11,3.1,1.82,5,1.78a.68.68,0,0,0,.71-.52c.1-.5-.19-.73-.62-.83l-.47-.1a1.17,1.17,0,0,1-.9-1.39s0,0,0-.06c.15-.57.79-.4,1.24-.41,1.55-.06,3.17.23,4.5-.89-.16-.61-.81-.88-.74-1.51a2.42,2.42,0,0,1,2.12.88c1,1.06,2.47,1,3.73,1.43a.91.91,0,0,0,1-.44.67.67,0,0,0-.09-1l-.08,0c-1.11-.5-.81-1.63-1.21-2.64-2.15,2-3.42-.89-5.23-.83-.43.74-.19,1.48-.29,2.17-1.14.23-1.67-1.09-2.75-1.09-.34,0-.48-.37-.37-.71.25-.73.06-1.28-.69-1.47a1.6,1.6,0,0,0-2.13.89c-.39-.21-.79-.41-1.16-.65-.76-.49-.88-.05-.9.59-.54,0-1.34.13-1.42-.54-.18-1.47-.48-3,.29-4.42s.43-2.89.27-4.49c-.92.45-.82,1.21-1.16,1.72-.83,1.27-1.84,1.39-2.92.28a2.56,2.56,0,0,1-.59-1.28l.08-.86c1.25-.21,1.51-1,1.17-2.08-.24-.8,0-1.2.87-1.27.42,0,1,.14,1.12-.71-1.49-.38-2.46-1.22-2.26-3,0-.43-.46-.57-.87-.63-.11-.64.09-1.35-.47-1.88-.05-.15-.11-.29-.16-.44-.12-.42,1.19-1.52-.61-1.15-.62.13-1.6-.27-1.5-1.13s1.05-.6,1.72-.55c.08,0,.18-.16.43-.38-1.12-.38-1-1.9-2.3-2.17-2.24-.43-2.23-.49-2.38-2.85H29.4a2.58,2.58,0,0,0,1.33.45c.61.36,1.24.7,1.83,1.08s1.16,1,1.68.71c1.07-.5,1,.49,1.44.81,1,.74.68-1.11,1.48-.87.19.06.35.3.48.48a1.39,1.39,0,0,0,1.42.64h.84c.06,1.26.84,1.61,1.94,1.55v.48c-.74.37-.11,1-.28,1.49a.9.9,0,0,0,.45,1.2,1.24,1.24,0,0,0,1.62-.58c.33-.62.61-1.26.94-1.93.77.31,1.33,1,2.21.76.45-.12.79-.29.46-.77s-.47-.81.14-.82,1.46-.07,1.38.79c0,.48-.4.62.34.88a4.83,4.83,0,0,0,2.9.38l.86.57c.14,1,1,1.27,1.72,1.33A4.43,4.43,0,0,1,56.84,31c.09.06.08.27.12.42-.4.63-1.07-.38-1.48.25-.15.95.94.93,1.24,1.53-.83,1.6-.25,3.6-1.46,5.21-.45-.2-.88-.37-1.29-.59-1.41-.77-1.76-.68-2.54.73-.3.55-.38,1.36-.83,1.67-1.48,1-1.64,2.33-.78,4.1-2-.45-3.79-.72-5.41.37,1.46,1.85,1.46,1.85,4.26,2.14-.24.5-1.08.71-.8,1.34s1,.34,1.49.41h.48c1.07.09,1.68-.29,1.6-1.46a8.34,8.34,0,0,1,0-1c.22.08.55.08.65.24a13.88,13.88,0,0,1,1.19,2c.51,1,1.59-.25,2.07.53.92,1.5,3,1.29,3.92,2.85.23.41.82.42,1.23.62,1.58.82,4.28.34,4,3.37,0,.13.32.33.52.42.41.17.72.39.54.87-.51,1.4.88,1.45,1.45,2.08s1,1.68,2.25,1.4l-.06.52-.29.22.34.14c.82.13,1.19.64.65,1.3-.42.5-.81,1.2-1.62,1.28-.62-.12-1.28-.08-1.65-.77a2.13,2.13,0,0,0-1.11-.87c-.66-.3-1.43-.71-1.94,0s.15,1.23.67,1.58a2.18,2.18,0,0,1,1.14,1.94c-.56.62-1.34.38-2,.5-.11-.45.35-.89,0-1.36-2.14.06-4,1.48-6.16,1.36-.41,0-.52.53-.57.94-.86,0-1.73,0-2.59,0a3.1,3.1,0,0,1-2.42-.6C51,66,50.43,66.61,50.06,67.31ZM40.92,45.16a3.64,3.64,0,0,0-.44-2.26c-.29-.44-.64-.68-1.16-.47s-.55.61-.44,1.14c.24,1.14,1,1.45,2,1.6.09.79.37,1.4,1.32,1.34a.39.39,0,0,0,.41-.47C42.38,45.08,41.58,45.19,40.92,45.16ZM45.15,48c.34,0,.7,0,.78-.36s-.3-.48-.6-.52-.68,0-.76.36.27.44.54.52ZM61.86,61.89c.11-.08.34-.17.41-.33s-.11-.41-.33-.44-.63,0-.62.39.18.35.5.38Z"/><path class="cls-8" d="M69.32,60.52c-1.21.28-1.64-.72-2.25-1.4s-2-.68-1.45-2.08c.18-.48-.13-.7-.54-.87-.2-.09-.53-.29-.52-.42.24-3-2.46-2.55-4-3.37-.41-.2-1-.21-1.23-.62-.88-1.56-3-1.35-3.92-2.85-.48-.78-1.56.51-2.07-.53a13.88,13.88,0,0,0-1.19-2c-.1-.16-.43-.16-.65-.24a17.44,17.44,0,0,1,1-1.86c.68-1,1.2-.93,2,0,.59.7,1.14,1.53,2.27,1.35.54,1,2.07,1.1,2.11,2.52,0,.12.36.33.56.32,1.67,0,3.43.94,5-.38h.94c1.06.62,1.86,1.88,3.38,1.4h0c-.07.52-.3.9-.86.95-1,.07-1.09.71-1.07,1.48v1.41c-.3,0-.67.06-.73.38-.09.52.38.52.73.59.08.23.16.27.2.1s-.13-.07-.19-.11l.47-1h1.92c.28.51.42,1.11,1,1.45,0,1.34,1.21,2.13,1.45,3.36C71.17,59.24,69.92,59.55,69.32,60.52Zm-3.4-9.62c-.07-1.09,0-1.92-.92-1.78s-1.28,1.1-1.41,2c-.09.6.43.74.94.78C65.54,52,65.92,51.41,65.92,50.9Z"/><path class="cls-9" d="M71.6,58.13c-.24-1.23-1.49-2-1.45-3.36.47-.12,1-.74,1.37.13.18.39,0,1.08.67,1.06s.79-.69,1-1.16A1.08,1.08,0,0,0,73,53.3a.61.61,0,0,1-.18-.84c.36-.58,1-.73,1.56-1,1-.6-.79-1.49.07-1.72s.92-1.07,1.4-1.54,1.28-1,1.49.35l-.07.1-.46.13c.92,1.33-.17,2.91.64,4.35s-.9,3.93-2.84,4.49Q73.13,58,71.6,58.13Zm3.22-4.51a.52.52,0,0,0,.39-.16c.05-.09-.09-.27-.14-.4-.14,0-.34.07-.39.17S74.77,53.49,74.82,53.62Z"/><path class="cls-8" d="M65.45,65.9A2.18,2.18,0,0,0,64.31,64c-.52-.35-1.11-.93-.67-1.58s1.28-.34,1.94,0a2.13,2.13,0,0,1,1.11.87c.37.69,1,.65,1.65.77C68.05,65.63,66.52,65.41,65.45,65.9Z"/><path class="cls-8" d="M56.71,67.34c0-.41.16-1,.57-.94,2.19.12,4-1.3,6.16-1.36.34.47-.12.91,0,1.36-1.78-.22-3.16,1-4.78,1.35q-.24-.52-.51,0C57.63,67.73,57.08,67.84,56.71,67.34Z"/><path class="cls-8" d="M71.92,65.22c-.56-.25-1.26-.37-1.27-1.2,0-.62.9-1.57,1.38-1.4.81.29.76,1.15.86,1.79S72.49,65.23,71.92,65.22Z"/><path class="cls-9" d="M79.92,48.06c-1,1.32-1,1.32-2.59.55l.07-.1c.89-.35,1-1.11,1-1.92C79.4,46.49,79.11,47.84,79.92,48.06Z"/><path class="cls-7" d="M71.68,61c-.36,0-.53-.14-.58-.38-.1-.44,1.63-1.93,2.1-1.79a.52.52,0,0,1,.42.62.32.32,0,0,1,0,.09A2.82,2.82,0,0,1,71.68,61Z"/><path class="cls-8" d="M79.92,48.06c-.77-.22-.48-1.57-1.56-1.47a1.65,1.65,0,0,1,1-1,.68.68,0,0,1,.4,0,1.24,1.24,0,0,0,.59.87C80.21,47.05,80.36,47.65,79.92,48.06Z"/><path class="cls-5" d="M78.72,51.34c-.07.22-.19.43-.46.34a.38.38,0,0,1-.26-.47s0,0,0-.05a.49.49,0,0,1,.36-.22C78.64,50.91,78.76,51.07,78.72,51.34Z"/><path class="cls-8" d="M69.31,61.41,69,61.27l.29-.22A2.23,2.23,0,0,0,69.31,61.41Z"/><path class="cls-10" d="M58.14,67.75q.26-.52.51,0Z"/><path class="cls-10" d="M25.47,58a4.37,4.37,0,0,0,.5,4.65c1,1.2.54,2.42,0,3.64H25c-.67-.86-1.61-.39-2.44-.51a2.43,2.43,0,0,1-.36-1.34c.13-.78-.29-1.12-.93-.56s-.9.2-1.44,0c-1.07-.42-1.91-1.44-3.23-1.23-.3.05-.71-.37-.62-.61.44-1.14-.46-1.3-1.05-1.89s-1.79-1.49-1.15-2.85a.93.93,0,0,0,0-.68c-1.83-1.49-2.3-4.18-4.62-5.22h0a12.68,12.68,0,0,0-1.7-4.84c-.4-.84-.86-2.06-2.06-2.41-.39-.25-.42-.91-1-.91,0,0-.11-.13-.16-.12a1.54,1.54,0,0,0-.35.1H4c.24-1.49-.58-2.58-1.4-3.66V37.83a13,13,0,0,0-.75-1.71A3.29,3.29,0,0,1,1.6,33,12.54,12.54,0,0,0,2,30.24a2.54,2.54,0,0,0,2.91-1.83c.93-2.58,2.88-3.17,5.2-3.37h0c-.21,1,1.14.75,1.22,1.65-1,.49-2.31.15-3.24,1.11a6.81,6.81,0,0,1,2,2c-.17,1-1.26,1.72-.91,2.88-.63.11-1.25.22-.43,1,0,.63-.07,1.26-.11,1.89-1.16.64-1.16.69.11,2,.43,4.66,3.16,8.19,5.79,11.76a2.23,2.23,0,0,0,2.69.83c2.22-.63,2.85-.06,3.6,2.17.32,1,.9,1.86,1.29,2.81A1.86,1.86,0,0,0,24,56.26a.73.73,0,0,1,.12.35l-.06.58c-.82.94,0,.86.57.88Z"/><path class="cls-11" d="M24.52,67.41c.17.25.44.5.47.77a.41.41,0,0,1-.36.48.43.43,0,0,1-.27,0,7.8,7.8,0,0,0-3-.38c-1,0-1.43-.88-2.16-1.68,1-.07,1.7-.39,2.41.59a1.54,1.54,0,0,0,2.12.49,1.42,1.42,0,0,0,.35-.29A1.12,1.12,0,0,0,24.52,67.41Z"/><path class="cls-8" d="M24.52,67.41a1.22,1.22,0,0,1-.46-.06c-.29-.68-1.56-.43-1.45-1.5.83.12,1.77-.35,2.44.51C24.92,66.67,24.7,67,24.52,67.41Z"/><path class="cls-8" d="M72.83,31.41c.73.59,1.5,1.15,2.2,1.78,1.32,1.18,2.45,2.48,2.26,4.43A2.06,2.06,0,0,0,78,39.26a6.17,6.17,0,0,1,1.74,4.48,1.41,1.41,0,0,0-1.44.92h-.49c-.34-1.27-1.54-1.65-2.41-2.39l-.49-.5c.59,0,1.18-.19,1.25-.85,0-.49-.47-.56-.86-.62-.73-.1-.72-.65-.86-1.21a2.52,2.52,0,0,0-2.71-1.88c-.79.18-1.38-.28-2.08-.23h0c-.76-1.61-1.6-3.24.75-4.34-1.28-1-1.93-2.11-1.59-3.62l3.24,1.76h0C72.06,31.27,72.48,31.31,72.83,31.41Z"/><path class="cls-11" d="M72.07,30.8,68.83,29l-9.27-5.9V22.5c4.34.9,7.79,3.43,11.08,6.2C71.29,29.23,72.09,29.77,72.07,30.8Z"/><path class="cls-3" d="M51.53,19.76h.14a5.46,5.46,0,0,0,3.59,1.46h0c.31.66.88.57,1.44.49h0c.06.25.12.49.17.74a9,9,0,0,1-6.82-1.76L50,20C50.47,19.61,51,19.78,51.53,19.76Z"/><path class="cls-7" d="M51.53,19.76a2.78,2.78,0,0,0-1.56.15,10.5,10.5,0,0,0-3.31-.11c-1.48-.89-2.92.18-4.39.06H40.91c-.14-.21-.72,0-.48-.56a46.36,46.36,0,0,1,7.06-.48A8.57,8.57,0,0,1,51.53,19.76Z"/><path class="cls-7" d="M56.86,22.41l-.17-.74a3.07,3.07,0,0,1,2.88.83v.64A10.66,10.66,0,0,1,56.86,22.41Z"/><path class="cls-7" d="M55.26,21.19a5.46,5.46,0,0,1-3.59-1.46C53,19.81,54.39,19.9,55.26,21.19Z"/><path class="cls-5" d="M78.32,44.68a1.41,1.41,0,0,1,1.44-.92c-.16.63.87,1.28,0,1.91a.68.68,0,0,0-.4,0Z"/><path class="cls-11" d="M72.83,31.41c-.35-.12-.77-.16-.79-.67C72.52,30.73,72.66,31.09,72.83,31.41Z"/><path class="cls-7" d="M56.7,21.67c-.56.08-1.13.17-1.44-.49C55.81,21.12,56.41,20.93,56.7,21.67Z"/><path class="cls-11" d="M13.18,21.66c-.81,1.37-2.25,1.68-3.6,2.16-2.82.64-5.49,1.51-6.75,4.51a3.31,3.31,0,0,1-.78.89,3.81,3.81,0,0,1,1.64-3.73c2.65-1.82,5.24-3.84,8.64-4.14A1.1,1.1,0,0,1,13.18,21.66Z"/><path class="cls-8" d="M2.05,29.22a3.31,3.31,0,0,0,.78-.89c1.26-3,3.93-3.87,6.75-4.51A1.23,1.23,0,0,1,10.14,25c-2.32.2-4.27.79-5.2,3.37A2.53,2.53,0,0,1,2,30.29C2,29.93,2,29.57,2.05,29.22Z"/><path class="cls-3" d="M5.42,44.16c1.2.35,1.66,1.57,2.06,2.41a12.68,12.68,0,0,1,1.7,4.84A20.33,20.33,0,0,1,5.42,44.16Z"/><path class="cls-11" d="M2.54,39.61c.82,1.08,1.64,2.17,1.4,3.66-.6-.92-1.41-1.73-1.5-2.9C2.47,40.11,2.5,39.86,2.54,39.61Z"/><path class="cls-7" d="M2.54,39.61a6.89,6.89,0,0,1-.1.76c-.59-.86-.83-1.71.13-2.49Z"/><path class="cls-11" d="M3.92,43.23a1.54,1.54,0,0,1,.35-.1c.05,0,.11.08.16.12Z"/><path class="cls-8" d="M19.27,17.75c-.73-.63-2-.4-2.12-2.08a4.41,4.41,0,0,1,.71-3,2.43,2.43,0,0,0,1.92-2.3c.12-.68.18-1.37.27-2.06L21.27,7l1.33-.42c1.08.73,2.48-.27,3.55.66a1.58,1.58,0,0,0,.63-.57,2.16,2.16,0,0,0,0-1.58h0a9.25,9.25,0,0,0,6,1.11l.86.29c-.06.43.3.5.56.65-.22,1.66.2,3.34-.28,5-.25.84.36,1.27,1,1.21,1.32-.13,1.48.92,2,1.66a3.78,3.78,0,0,1,.47,3c-.09.72-.72.85-1.28.76-3.23-.48-6.51.6-9.72-.36a.82.82,0,0,0-1,.45c-.69,0-1.18-.77-1.94-.48l-1.33-.33c-.37-.84-.88-.9-1.5-.25Z"/><path class="cls-8" d="M40.92,19.83h1.36c1.36,1.67,2.7,1.65,4.39-.06a10.5,10.5,0,0,1,3.31.11,2.69,2.69,0,0,0,.07.74,4.51,4.51,0,0,1-1.56.53c-.57,0-1.2.21-1.12.93s.73.45,1.16.51.72.09.82.38c.42,1.22,1.58,1.12,2.48,1.53,1.41.64,3.12.64,4.29,1.67a3.41,3.41,0,0,0,2.6,1.24,1.45,1.45,0,0,1,1.49,1c.24.66-.45.91-.85,1.26-.15.14-.44.2-.17.55l.88.05V32.7C59,33,58,33.94,56.73,33.17c-.3-.6-1.39-.58-1.24-1.53.41-.63,1.08.38,1.48-.25,0-.15,0-.36-.12-.42a4.43,4.43,0,0,0-2.26-1.19c-.77-.06-1.58-.34-1.72-1.33l3.81.2c-2.32-1.82-4.66-2.39-6.74-3.5l-.44.6L52,27.88a4.83,4.83,0,0,1-2.9-.38c-.74-.26-.39-.4-.34-.88.08-.86-.86-.8-1.38-.79s-.4.43-.14.82,0,.65-.46.77c-.88.22-1.44-.45-2.21-.76-.33.67-.61,1.31-.94,1.93a1.13,1.13,0,0,1-1.38.66.92.92,0,0,1-.76-1,1.09,1.09,0,0,1,.07-.24c.17-.49-.46-1.12.28-1.49.17.27.42.44.71.22a.49.49,0,0,0,.16-.69.24.24,0,0,0-.08-.09c-.24-.25-.53,0-.8.08-1.1.06-1.88-.29-1.94-1.55C40.43,22.93,40.17,21.27,40.92,19.83Z"/><path class="cls-8" d="M10.1,29.8a6.47,6.47,0,0,0-2-2c.93-1,2.24-.62,3.24-1.11-.08-.9-1.43-.68-1.22-1.65a3.89,3.89,0,0,0,2.26-1.22,8.62,8.62,0,0,1,5.8-2.26,3.58,3.58,0,0,0,1.1-.42c1.53.15,3.09.4,4.31-.92.47-.66,1.2-.46,1.84-.53l3.15.07c.07.58.52.95.78,1.42H26.45A13.91,13.91,0,0,1,20,22a1.24,1.24,0,0,0-1.52.87,1.43,1.43,0,0,0,0,.22c2.73.27,3,.61,2.08,2.41-1.31-.47-2,.1-2.29,1.35h0c-.46-.12-.73-.05-.5.51h0c-.3-.44-.65,0-1,0-1.85-.58-2.33-.35-2.89,1.38l-.44.16c-1.74-.81-1.74-.81-1.94.69l-.92.28Z"/><path class="cls-8" d="M39.05,24.41a1.39,1.39,0,0,1-1.42-.64c-.13-.18-.29-.42-.48-.48-.8-.24-.46,1.61-1.48.87-.46-.32-.37-1.31-1.44-.81-.52.25-1.15-.37-1.68-.71s-1.22-.72-1.83-1.08c0-.3.07-.6.1-.9h.84a2.86,2.86,0,0,1,2.84.46c1.36,1.1,1.47,1.22,2.49-.24.61-.86,1-.34,1.54-.15C39.31,21.89,38.84,23.22,39.05,24.41Z"/><path class="cls-10" d="M38.53,20.74c-.53-.19-.93-.71-1.54.15-1,1.46-1.13,1.34-2.49.24a2.86,2.86,0,0,0-2.84-.46c.12-.79.65-1,1.36-1a18.6,18.6,0,0,0,4.47-.31C38.55,19,38.49,20,38.53,20.74Z"/><path class="cls-4" d="M30.82,20.7a6.88,6.88,0,0,1-.1.9,2.58,2.58,0,0,1-1.33-.45c-.26-.47-.71-.84-.78-1.42C29.54,19.61,30.16,20.22,30.82,20.7Z"/><path class="cls-4" d="M39.09,19.09a1.09,1.09,0,0,1,.14-.38c0,.06.11.13.1.19s-.1.26-.14.39C39.16,19.22,39.12,19.16,39.09,19.09Z"/><path class="cls-11" d="M33.67,6.51l-.86-.29a12.3,12.3,0,0,0-2.52-2.08c-1.75-1.35-2.56-1.1-3.51,1h0c-1.54.05-3.11,0-4.15,1.49l-1.33.42c-.53-.34-.46-.74-.15-1.2A17,17,0,0,1,24,2.36a4.92,4.92,0,0,1,6.69-.25A8,8,0,0,1,33.67,6.51Z"/><path class="cls-11" d="M20.05,8.32C20,9,19.9,9.7,19.78,10.38a2.43,2.43,0,0,1-1.92,2.3l-.4-.26c.49-1,1-2.08,1.49-3.1C19.18,8.87,19.38,8.32,20.05,8.32Z"/><path class="cls-7" d="M22.22,18.05l1.33.33c-.05.4-.16.83-.62.85a25.31,25.31,0,0,0-3.67.51c-.93.16-.71-.5-.57-1,.22-.29.61-.49.58-.95h1.45A1.47,1.47,0,0,0,22.22,18.05Z"/><path class="cls-7" d="M23.62,20.19c-1.22,1.32-2.78,1.07-4.31.92C20.54,19.83,22.11,20.15,23.62,20.19Z"/><path class="cls-5" d="M34.26,61.12c-1.5.85-2.57.06-3.62-.18-.43-.1-.44-.92-.07-1.61A9.4,9.4,0,0,1,34.26,61.12Z"/><path class="cls-9" d="M31.58,64.41c-.46,0-1.11,0-1.06-.61a1.28,1.28,0,0,1,1.16-1.39h.24c.56,0,1.21,0,1.18.78S32.35,64.34,31.58,64.41Z"/><path class="cls-3" d="M24.11,57.15l.06-.58a.93.93,0,0,0,.93-.4l.5.48c0,.45-.09.9-.13,1.35h-.79A1.1,1.1,0,0,0,24.11,57.15Z"/><path class="cls-12" d="M56.72,33.14c1.25.77,2.25-.18,3.34-.47.62.26,1,.85,1.93.6,2-.57,3.47.72,4.35,2.12A3.12,3.12,0,0,0,69.67,37h0a15.74,15.74,0,0,0,2.11,2.89,5.4,5.4,0,0,0,3.15,1.9l.5.5a2.3,2.3,0,0,0,2.19,2.39h.7l1,1a1.65,1.65,0,0,0-1,1c0,.81-.07,1.57-1,1.92-.21-1.32-1-.81-1.49-.35s-.43,1.28-1.4,1.54.95,1.12-.07,1.72c-.54.31-1.2.46-1.56,1a.61.61,0,0,0,.18.84,1.08,1.08,0,0,1,.22,1.5c-.26.47-.39,1.14-1,1.16s-.49-.67-.67-1.06c-.37-.87-.9-.25-1.37-.13-.54-.34-.68-.94-1-1.45.82-.19,2-.29,1.76-1.39s-.76-2.31-2.23-2.45h0c-.79-1.63-1.49-1.92-3.38-1.4h-.94a2.5,2.5,0,0,0-1.56-1.61c-1-.36-1.3.75-2.06.75-1.33-2.06-1.33-2.06-4.06-1.6-1.13.18-1.68-.65-2.27-1.35-.82-1-1.34-1-2,0a17.44,17.44,0,0,0-1,1.86,8.34,8.34,0,0,0,0,1c.08,1.17-.53,1.55-1.6,1.46h-.48c-.52-.07-1.2.23-1.49-.41s.56-.84.8-1.34c-2.8-.29-2.8-.29-4.26-2.14,1.62-1.09,3.38-.82,5.41-.37-.86-1.77-.7-3.05.78-4.1.45-.31.53-1.12.83-1.67.78-1.41,1.13-1.5,2.54-.73.41.22.84.39,1.29.59C56.47,36.74,55.92,34.74,56.72,33.14Z"/><path class="cls-8" d="M39.23,49c.38-1.07,1.24-1.1,2.13-.89s.94.74.69,1.47c-.11.34,0,.71.37.71,1.08,0,1.61,1.32,2.76,1.09v.47c-.07.63.58.9.74,1.51-1.33,1.12-3,.83-4.5.89-.45,0-1.09-.16-1.24.41A1.18,1.18,0,0,0,41,56.13l.06,0,.47.1c.43.1.72.33.62.83a.68.68,0,0,1-.71.52c-1.88,0-3.87.33-5-1.78-.16-.31-.4-.57-.72-.52-1.52.23-3.1-1.12-4.72.66-.1-2-.73-3.32-2.07-4.16A5.81,5.81,0,0,0,25.06,51c.05-.74-.58-1.93,1.09-1.58.31.07.72-.37.43-.54-2-1.16-.31-1.12.42-1.48a1.26,1.26,0,0,0,.7-1.18c0-.66,0-1.07.82-1.06.19,0,.31,0,.33-.4.14-2.52.82-3.55,2.76-4.46a2.56,2.56,0,0,0,.59,1.28c1.08,1.11,2.09,1,2.92-.28.34-.51.24-1.27,1.16-1.72.16,1.6.48,3.07-.27,4.49s-.47,2.95-.29,4.42c.08.67.88.51,1.42.54.22.4.33,1,.66,1.18A30.58,30.58,0,0,1,42,52.34a.65.65,0,0,0,.63-.13c.27-.29.07-.56-.2-.76C41.37,50.64,40.3,49.84,39.23,49Zm-5.17,1c.37-1.89-.76-2.31-2-2.84-.29,2.21-.29,2.21,2,2.88Zm-3,1.19c-.13-.06-.3-.19-.39-.15s-.13.25-.19.38c.14.06.3.19.4.16s.16-.21.21-.35Z"/><path class="cls-3" d="M31.64,40.25c-1.94.91-2.62,1.94-2.76,4.46,0,.36-.14.41-.33.4-.79,0-.86.4-.82,1.06a1.26,1.26,0,0,1-.7,1.18c-.73.36-2.38.32-.42,1.48.29.17-.12.61-.43.54-1.67-.35-1,.84-1.09,1.58a.9.9,0,0,1-.68.44c-.49-2-.8-4,1.55-5.14A1.17,1.17,0,0,0,26.43,45c-.19-1,.37-1.69.53-2.53.57-.28,1.15-.53,1.71-.83a1,1,0,0,0,.58-1.19c-.33-1-.3-2.22-1.33-2.93-.08-.82.24-1.73-.55-2.38a15.56,15.56,0,0,0-.63-4.18c-.25-1.35-.58-2.67-2.08-3.18a9.67,9.67,0,0,0-5.83,0c-.47,1.63-1.69,1-2.74.93H14c.56-1.73,1-2,2.89-1.38-.07.3,0,.6.32.65a.54.54,0,0,0,.66-.6h0c.37,0,.82.14.5-.51h0a2.26,2.26,0,0,0,2.68-1c.82.18,1.59.73,2.49.19a1.08,1.08,0,0,1,1.15,0,31,31,0,0,1,4.64,3.5c.84.86,1.32.46,2,.2.56.53.36,1.24.47,1.88l-.4.14c-.35-.15-1.07-.86-1-.18.18,1.6-.11,3.51,1.64,4.6.57,1.09-.45,2-.28,3.1Zm-1.37-1c.13-.06.32-.09.38-.19s-.06-.27-.09-.4a1.25,1.25,0,0,0-.4.2.26.26,0,0,0,.11.43Z"/><path class="cls-10" d="M31.28,29.85c-.71.26-1.19.66-2-.2a31,31,0,0,0-4.64-3.5,1.08,1.08,0,0,0-1.15,0c-.9.54-1.67,0-2.49-.19l-.39-.4c.95-1.8.65-2.14-2.08-2.41A1.25,1.25,0,0,1,19.88,22l.21,0a13.91,13.91,0,0,0,6.42-.86c.15,2.36.14,2.42,2.38,2.85,1.35.27,1.18,1.79,2.3,2.17-.25.22-.35.39-.43.38-.67-.05-1.6-.48-1.72.55-.1.86.88,1.26,1.5,1.13,1.8-.37.49.73.61,1.15A2.83,2.83,0,0,0,31.28,29.85Z"/><path class="cls-7" d="M27.37,35.1c.79.65.47,1.56.55,2.38.46,1.8-.85,3.26-1,5-.16.84-.72,1.58-.53,2.53a1.17,1.17,0,0,1-.47,1.29c-2.35,1.18-2,3.13-1.55,5.14l.24,2.38v.55A3.33,3.33,0,0,0,25,56.17a.93.93,0,0,1-.93.4.73.73,0,0,0-.12-.35,9.65,9.65,0,0,0-.28-2.57c-.31-1.93-1.34-3.72-1.14-5.74a.91.91,0,0,1,.07-.46c2.4-2.25,3.1-5.24,3.88-8.29C26.92,37.81,26.49,36.32,27.37,35.1Z"/><path class="cls-12" d="M45.19,51.89v-.47c.09-.69-.15-1.43.28-2.17,1.81-.06,3.08,2.87,5.23.83.4,1,.1,2.14,1.21,2.64a.67.67,0,0,1,.23.92l-.06.08a.91.91,0,0,1-1,.44c-1.26-.44-2.72-.37-3.73-1.43A2.4,2.4,0,0,0,45.19,51.89Z"/><path class="cls-7" d="M52,27.85l-2.51-2.13.44-.6c2.08,1.11,4.42,1.68,6.74,3.5l-3.81-.2Z"/><path class="cls-7" d="M39.23,49c1.07.8,2.14,1.6,3.2,2.41.27.2.47.47.2.76a.65.65,0,0,1-.63.13,30.58,30.58,0,0,0-4.17-2.18c-.33-.18-.44-.78-.66-1.18,0-.64.14-1.08.9-.59C38.44,48.63,38.84,48.83,39.23,49Z"/><path class="cls-8" d="M31.72,39.41c-.17-1.06.85-2,.28-3.1-.21-1.47-.43-3-.65-4.42l.4-.14c.41.06.92.2.87.63-.2,1.75.77,2.59,2.26,3-.12.85-.7.67-1.12.71-.85.07-1.11.47-.87,1.27C33.23,38.41,33,39.18,31.72,39.41Z"/><path class="cls-8" d="M40.92,45.17c-1-.15-1.79-.46-2-1.6-.11-.53-.11-.93.44-1.14s.87,0,1.16.47A3.64,3.64,0,0,1,41,45.16Z"/><path class="cls-8" d="M40.92,45.16c.7,0,1.5-.08,1.72.88.06.28-.16.45-.41.47-.95.06-1.23-.55-1.32-1.34Z"/><path class="cls-12" d="M45.11,48c-.27-.08-.69-.07-.58-.52s.45-.4.76-.36.71.06.6.52S45.45,48,45.11,48Z"/><path class="cls-8" d="M61.82,61.89c-.32,0-.53-.13-.54-.38,0-.41.31-.45.62-.39s.45.18.33.44S61.92,61.81,61.82,61.89Z"/><path class="cls-10" d="M41.83,26c.27-.07.56-.33.8-.08a.48.48,0,0,1,0,.7.24.24,0,0,1-.09.08c-.29.22-.54,0-.71-.22C41.83,26.29,41.83,26.13,41.83,26Z"/><path class="cls-3" d="M24.67,54.32v-.55C24.92,54,24.92,54.13,24.67,54.32Z"/><path class="cls-9" d="M56.72,45.62c2.73-.46,2.73-.46,4.06,1.6.76,0,1-1.11,2.06-.75a2.5,2.5,0,0,1,1.56,1.61c-1.58,1.32-3.34.34-5,.38-.2,0-.56-.2-.56-.32C58.79,46.72,57.26,46.59,56.72,45.62Z"/><path class="cls-9" d="M68.72,49.48c1.47.14,2,1.42,2.23,2.45s-.94,1.2-1.76,1.39h-2.4V51.91c0-.77.11-1.41,1.07-1.48C68.42,50.41,68.65,50,68.72,49.48Z"/><path class="cls-9" d="M65.92,50.9c0,.51-.33,1.05-1.39,1-.51,0-1-.18-.94-.78.13-.87.39-1.81,1.41-2S65.8,49.81,65.92,50.9Z"/><path class="cls-9" d="M65.34,48.08c1.89-.52,2.59-.23,3.38,1.4C67.2,50,66.4,48.7,65.34,48.08Z"/><path class="cls-10" d="M66.79,53.32h.48l-.47,1h0c-.35-.07-.82-.07-.73-.59C66.12,53.41,66.49,53.35,66.79,53.32Z"/><path class="cls-10" d="M66.8,54.28a.34.34,0,0,1,.19.11s-.12.13-.2-.1Z"/><path class="cls-12" d="M74.82,53.62c0-.13-.18-.3-.14-.39s.25-.12.39-.17c.05.13.18.3.14.4S74.92,53.57,74.82,53.62Z"/><path class="cls-3" d="M22.63,47.91c-.2,2,.83,3.81,1.14,5.74a9.65,9.65,0,0,1,.28,2.57,1.86,1.86,0,0,1-1.91-1.12c-.39-1-1-1.84-1.29-2.81-.75-2.23-1.38-2.8-3.6-2.17a2.23,2.23,0,0,1-2.69-.83c-2.63-3.57-5.36-7.1-5.79-11.76.81-.7.23-1.34-.11-2,0-.63.07-1.26.11-1.89a.92.92,0,0,0,.43-1c-.35-1.16.74-1.88.91-2.88h.56c-.15.78,0,1.25.94.95h0c.36,1-.39,1.65-.67,2.43a10,10,0,0,0-.56,5.38A19.55,19.55,0,0,0,14,46.7c1.59,2,3,2.61,5.58,1.42A4.34,4.34,0,0,1,22.63,47.91Z"/><path class="cls-8" d="M8.66,35.55c.34.64.92,1.28.11,2C7.5,36.24,7.5,36.19,8.66,35.55Z"/><path class="cls-8" d="M24.11,57.15a1.1,1.1,0,0,1,.57.88C24.07,58,23.29,58.09,24.11,57.15Z"/><path class="cls-8" d="M9.2,32.68a.92.92,0,0,1-.43,1C7.92,32.9,8.57,32.79,9.2,32.68Z"/><path class="cls-9" d="M69.67,37a3.12,3.12,0,0,1-3.33-1.61C65.46,34,64,32.7,62,33.27c-.89.25-1.31-.34-1.93-.6V31.24c.82.12,1.53-.43,2.31-.45,1.34,0,3-.89,3.6,1.26a.67.67,0,0,0,.84.44.58.58,0,0,0,.32-.21c.4-.47.78-1,.14-1.67-.94-.92-2.51-1-3.12-2.36a.34.34,0,0,0-.48-.12.46.46,0,0,0-.12.12c-.81,1.17-1.49-.05-2.34-.18-.24.83-.16,1.84-1.16,2.2l-.88-.05c-.27-.35,0-.41.17-.55.4-.35,1.09-.6.85-1.26a1.45,1.45,0,0,0-1.49-1,3.39,3.39,0,0,1-2.61-1.24c-1.17-1-2.88-1-4.29-1.67-.9-.41-2.06-.31-2.48-1.53-.1-.29-.49-.34-.82-.38s-1.09.13-1.16-.51.55-.89,1.12-.93A4.51,4.51,0,0,0,50,20.62a9,9,0,0,0,6.82,1.76,10.7,10.7,0,0,0,2.7.73L68.81,29c-.34,1.51.31,2.61,1.59,3.62C68.07,33.76,68.92,35.41,69.67,37Z"/><path class="cls-9" d="M74.92,41.8a5.4,5.4,0,0,1-3.15-1.9A15.74,15.74,0,0,1,69.66,37c.7,0,1.29.41,2.08.23a2.52,2.52,0,0,1,2.71,1.88c.14.56.13,1.11.86,1.21.39.06.9.13.86.62C76.11,41.61,75.52,41.76,74.92,41.8Z"/><path class="cls-9" d="M77.83,44.69a2.3,2.3,0,0,1-2.4-2.18V42.3C76.29,43,77.49,43.41,77.83,44.69Z"/><path class="cls-3" d="M46.66,19.8c-1.69,1.71-3,1.73-4.39.06C43.74,20,45.18,18.91,46.66,19.8Z"/><path class="cls-3" d="M26.78,5.11c.95-2.07,1.76-2.32,3.51-1a12.3,12.3,0,0,1,2.52,2.08A9.19,9.19,0,0,1,26.78,5.11Z"/><path class="cls-3" d="M22.6,6.62c1-1.46,2.61-1.44,4.15-1.49a2.16,2.16,0,0,1,0,1.58,1.58,1.58,0,0,1-.63.57C25.08,6.35,23.68,7.35,22.6,6.62Z"/><path class="cls-3" d="M22.22,18.05a1.45,1.45,0,0,1-1.5-.25C21.34,17.15,21.85,17.21,22.22,18.05Z"/><path class="cls-12" d="M60.07,30.28c1-.36.92-1.37,1.16-2.2.85.13,1.53,1.35,2.34.18a.35.35,0,0,1,.6,0c.61,1.36,2.18,1.44,3.12,2.36.64.63.26,1.2-.14,1.67A.68.68,0,0,1,66,32.06c-.63-2.15-2.26-1.29-3.6-1.26-.78,0-1.49.57-2.31.45C60.08,30.92,60.07,30.6,60.07,30.28Z"/><path class="cls-13" d="M22.63,47.91a4.32,4.32,0,0,0-3,.24c-2.6,1.19-4,.63-5.58-1.42a19.55,19.55,0,0,1-3.66-8.18A10,10,0,0,1,11,33.17c.28-.78,1-1.47.68-2.43,1.07-.19,1.32-1.24,1.95-1.89l.44-.16a18.74,18.74,0,0,1,2.12,0c1.05,0,2.27.7,2.74-.93a9.67,9.67,0,0,1,5.83,0c1.5.51,1.83,1.83,2.08,3.18a15.56,15.56,0,0,1,.63,4.18c-.88,1.22-.45,2.71-.79,4.06-.78,3-1.48,6-3.88,8.29C22.62,47.54,22.66,47.75,22.63,47.91Zm-6.8-12.45c-1.27,1.41-2.75,2.76-1.41,4.95.18.31.07.78.17,1.16a3.28,3.28,0,0,0,3.71,2.7c.83.1,1.11-.76,1.79-1a2.76,2.76,0,0,0,1.67-3.49,39.7,39.7,0,0,1-1-4.43c-.11-1.36-1-1.68-2-2s-1.62.21-2.1,1.06A7.9,7.9,0,0,1,15.83,35.46Zm6.29,7.17.2-.09c-.06,0-.11-.12-.17-.12s-.12.06-.18.09Z"/><path class="cls-3" d="M13.53,28.85c-.63.65-.88,1.7-1.95,1.89h0a1.55,1.55,0,0,0,0-1.23C11.79,28,11.79,28,13.53,28.85Z"/><path class="cls-13" d="M20.58,25.54l.39.4a2.26,2.26,0,0,1-2.68,1C18.57,25.64,19.27,25.07,20.58,25.54Z"/><path class="cls-7" d="M11.59,29.54a1.55,1.55,0,0,1,0,1.23c-.93.3-1.09-.17-.94-.95Z"/><path class="cls-13" d="M17.84,27.41c0,.48-.26.66-.66.6s-.39-.35-.32-.65C17.19,27.32,17.54,26.92,17.84,27.41Z"/><path class="cls-13" d="M18.3,26.89c.32.65-.13.54-.5.51C17.57,26.84,17.84,26.77,18.3,26.89Z"/><path class="cls-7" d="M34.06,50.08c-2.29-.65-2.29-.65-2-2.84C33.3,47.77,34.43,48.19,34.06,50.08Z"/><path class="cls-9" d="M31.09,51.27c-.05.14-.08.35-.18.39s-.26-.1-.4-.16c.06-.13.09-.34.19-.38S30.92,51.21,31.09,51.27Z"/><path class="cls-11" d="M26.92,42.41c.11-1.69,1.42-3.15,1-4.95,1,.71,1,1.91,1.33,2.93a1,1,0,0,1-.58,1.19A16.55,16.55,0,0,1,26.92,42.41Z"/><path class="cls-7" d="M31.35,31.87c.22,1.47.44,3,.65,4.42-1.75-1.09-1.46-3-1.64-4.6C30.28,31,31,31.72,31.35,31.87Z"/><path class="cls-8" d="M30.26,39.28c-.18-.08-.24-.23-.1-.38a1.25,1.25,0,0,1,.4-.2c0,.13.14.31.09.4S30.4,39.23,30.26,39.28Z"/><path class="cls-5" d="M15.83,35.46a7.81,7.81,0,0,0,.9-1.11c.48-.85,1.06-1.46,2.1-1.06s1.87.68,2,2a39.7,39.7,0,0,0,1,4.43,2.76,2.76,0,0,1-1.67,3.49c-.68.26-1,1.12-1.79,1,.17-1.61-.82-2.57-1.92-3.47,0-.37,0-.78-.46-.93h0c0-.81.07-1.62.11-2.44C16.78,36.71,16.08,36.1,15.83,35.46Zm3.07,2.89h0a2.81,2.81,0,0,0,0,.71c.17.57.12,1.64.76,1.5.9-.2.31-1,0-1.48s.28-.66.35-1a.67.67,0,0,0-.49-.81l-.14,0c-.39,0-.52.26-.51.62Zm-1.4-.09v-.15a.21.21,0,0,0-.19,0c-.16.1-.14.2.05.25s.09-.08.14-.1Z"/><path class="cls-7" d="M15.83,35.46c.25.64,1,1.25.2,2a1.5,1.5,0,0,0-.45,2.06,2.11,2.11,0,0,0,.35.38h0a.69.69,0,0,0,.46.93c1.1.9,2.09,1.86,1.92,3.47a3.28,3.28,0,0,1-3.71-2.7c-.1-.38,0-.85-.17-1.16C13.08,38.22,14.56,36.87,15.83,35.46Z"/><path class="cls-5" d="M22.12,42.63,22,42.51c.06,0,.12-.09.18-.09s.11.08.17.12Z"/><path class="cls-11" d="M18.92,38.35v-.48c0-.36.12-.66.51-.62a.67.67,0,0,1,.65.69.34.34,0,0,1,0,.14c-.07.34-.65.52-.35,1s.91,1.28,0,1.48c-.64.14-.59-.93-.76-1.5a2.81,2.81,0,0,1,0-.71Z"/><path class="cls-11" d="M15.92,39.89a1.5,1.5,0,0,1-.28-2.09,1.57,1.57,0,0,1,.38-.35C16,38.27,15.92,39.08,15.92,39.89Z"/><path class="cls-7" d="M17.5,38.26c-.05,0-.12.07-.17.06s-.21-.15,0-.25a.21.21,0,0,1,.19,0S17.49,38.21,17.5,38.26Z"/><path class="cls-11" d="M16.38,40.8c-.48-.15-.56-.5-.46-.93C16.4,40,16.35,40.41,16.38,40.8Z"/></g></g></svg>