<svg xmlns="http://www.w3.org/2000/svg" viewBox="0 0 75.32 101.6"><defs><style>.cls-1{fill:#fff;}.cls-2{fill:#868686;}.cls-3{fill:#9b9b9b;}.cls-4{fill:#6a4937;}.cls-5{fill:#909090;}.cls-6{fill:#a8a8a8;}.cls-7{fill:#fdfcfc;}.cls-8{fill:#44281b;}.cls-9{fill:#b5b5b5;}.cls-10{fill:#4e5764;}</style></defs><g id="Layer_2" data-name="Layer 2"><g id="Layer_1-2" data-name="Layer 1"><path class="cls-1" d="M38,80.68c-.07.62-.3,1.27.41,1.7h-.08c-.07.28-.16.59.25.64s.33-.24.4-.44a20.9,20.9,0,0,0,0-5.91c-.17-2.54-1.24-4.94-1-7.52a8.51,8.51,0,0,0,2.78-.62C43.17,68,45.47,67,48,66.77a77.34,77.34,0,0,1,1,11.67c.21,5.66.88,11.31,1.49,17a54,54,0,0,0,1.21,5.36c.15.68.49,1,1.18.76a1,1,0,0,0,.67-1.24l0-.09a2,2,0,0,0-.21-.44c-1.19-2-1.39-4.18-1.66-6.41-.3-2.46-.25-5-.57-7.39a83.63,83.63,0,0,1-.76-10.73,18.73,18.73,0,0,0-1.45-8.4,17.83,17.83,0,0,0,2.92-.28,64.94,64.94,0,0,0,10.74-3.28C67.09,61.44,71,59,73,54.14c1.35-3.25,2.77-6.48,2.13-10.14-.57-3.22-1-6.45-1.83-9.63a15.18,15.18,0,0,0-7.41-9.59,30.21,30.21,0,0,0-13.41-4.25c-2.06-.15-4.13-.23-6.25-.34a5.57,5.57,0,0,1,0-1c.47-4.09-.7-7.92-1.95-11.72a5.1,5.1,0,0,0-3-3.54c-.16-.27-.25-.65-.48-.79A45.29,45.29,0,0,1,36.33.37a1.06,1.06,0,0,0-1.5,0,1.09,1.09,0,0,0-.3.68c-.17.82-.78.91-1.39,1s-1.3-.09-1.61.69c-1.87,1.36-2.65,3.52-3.89,5.34C24.89,12.16,24,16.49,25.7,21.2c-2.16.59-4.42.49-6.61.88-5,.92-9.93,2.13-13.67,6,1.38,1.74,1.37,1.74,0,3.52-.23.32-.45.65-.67,1A12.09,12.09,0,0,0,.22,44.5C1,49.76,1.93,55,4.31,59.91a5.86,5.86,0,0,0,1.92,2.65.36.36,0,0,0,.27.18A9.35,9.35,0,0,0,11,66.13a3.6,3.6,0,0,1,2,1.17,21.41,21.41,0,0,0,.46,4c.17,1.31-.51,2.78.71,4.12.71-1.56.42-3,.36-4.38s-.76-2.78-.52-4.24a14.38,14.38,0,0,0,2.22.72c3.29.81,6.73.61,10,1.59a3.48,3.48,0,0,0-.45,2.94,13.47,13.47,0,0,1,.43,2.59c.67,7.71,2.43,15.24,3.73,22.85.1.6.05,1.46,1,1.25s.75-.92.5-1.56a27.94,27.94,0,0,1-.84-4.45C28.92,85,27.79,77.08,26.7,69.22a8.28,8.28,0,0,0,3.56.39c.32.38.63.39.94,0a19.44,19.44,0,0,0,4.82,0c.77,1.07.73,2.38,1,3.59C37.74,75.66,37.31,78.24,38,80.68Zm1.27,9.63c.06-2.29.16-4.59-.84-6.76.28,4.28-.66,8.57.28,12.83.3,1.32.5,2.66.8,4,.08.36.26.85.77.74A1.35,1.35,0,0,0,41.35,100c0-.18-.21-.4-.29-.62a21.66,21.66,0,0,1-1.68-8.07C39.68,90.9,39.74,90.59,39.29,90.31ZM13.91,74.84a6.82,6.82,0,0,0-.24,1.48c.59,3.6.55,7.29,1.53,10.84a22.42,22.42,0,0,1,1,5.86c0,.45-.08,1.09.58,1.08a.92.92,0,0,0,.89-1.18,24.85,24.85,0,0,0-.46-3.54,68.26,68.26,0,0,1-2-10.52,6.62,6.62,0,0,0-1.3-4Z"/><path class="cls-2" d="M48,66.81c-2.48.21-4.78,1.18-7.17,1.76a8.51,8.51,0,0,1-2.78.62c-.68,0-1.4-.21-2,.42a19.44,19.44,0,0,1-4.82,0c-.31-.41-.62-.43-.94,0a8.28,8.28,0,0,1-3.56-.39l-.52-.11c-3.26-1-6.7-.78-10-1.59A14.38,14.38,0,0,1,14,66.8l-1,.47a3.6,3.6,0,0,0-2-1.17A9.35,9.35,0,0,1,6.5,62.71l.56-.61c1.53,1.13,2.81,2.64,4.8,3.06,1.48.31,3,.63,4.43,1,3.79,1,7.73,1,11.55,1.92a19,19,0,0,0,8.57.35c5.2-1.17,10.35-2.55,15.67-3.27A41.92,41.92,0,0,0,64,61.53c3.21-1.48,6-3.38,7.36-6.8.51-1.26,1.13-2.47,1.67-3.71a10.32,10.32,0,0,0,.94-4.9,64.27,64.27,0,0,0-2.67-14.07,6.87,6.87,0,0,0-1.76-2.83,23.86,23.86,0,0,0-5.73-4.29,33.41,33.41,0,0,0-16.71-3.4c-1,0-1.49.39-1.57,1.37s-.17,2.21-.31,3.31c0,.43-.09,1.05-.83.84a.67.67,0,0,1-.51-.8.84.84,0,0,1,.08-.2,10.45,10.45,0,0,0,.18-2.85c.19-1.77.09-1.94-1.58-1.68-4,.63-8,.41-11.93.65-2.67.16-5.39-.2-8,.45a16.88,16.88,0,0,1-2.84.39A30.53,30.53,0,0,0,11,25.37a3.74,3.74,0,0,0-2.08,2.14C8,29.7,7,31.93,5,33.41c-.06-.29-.11-.58-.17-.87l.67-1c1.33-1.78,1.34-1.78,0-3.52,3.74-3.87,8.63-5.08,13.67-6,2.19-.39,4.45-.29,6.61-.88L27.65,21c3-.08,6-.09,9,.07A6.14,6.14,0,0,0,38.07,21a23.46,23.46,0,0,1,5.39-.84c.94,0,1.2-.55,1.27-1.36a19.77,19.77,0,0,0-.51-6.85c-.13-.51-.36-.88-.92-.92A6.25,6.25,0,0,0,44,9.94c.29-.65.15-1.17-.66-1.31-1.19-1.18-1.56-2.79-2.26-4.23l.24-.55a5.1,5.1,0,0,1,3,3.54c1.25,3.8,2.42,7.63,2,11.72a5.57,5.57,0,0,0,0,1c2.12.11,4.19.19,6.25.34A30.26,30.26,0,0,1,65.92,24.7a15.18,15.18,0,0,1,7.41,9.59c.81,3.18,1.26,6.41,1.83,9.63.64,3.66-.78,6.89-2.13,10.14-2,4.81-5.94,7.3-10.55,9.11a65.22,65.22,0,0,1-10.74,3.36,18.18,18.18,0,0,1-2.85.34Z"/><path class="cls-3" d="M48,66.81h.88c1.3,2.66,1.42,5.57,1.45,8.4a83.63,83.63,0,0,0,.76,10.73c.32,2.43.27,4.93.57,7.39.27,2.23.47,4.44,1.66,6.41a2,2,0,0,1,.21.44,1,1,0,0,1-.55,1.3l-.09,0c-.69.25-1-.08-1.18-.76a54,54,0,0,1-1.21-5.36c-.61-5.64-1.28-11.29-1.49-17A78.26,78.26,0,0,0,48,66.81Z"/><path class="cls-3" d="M26.22,69.09l.52.11c1.09,7.86,2.22,15.73,3.85,23.51a27.94,27.94,0,0,0,.84,4.45c.25.64.35,1.37-.5,1.56s-.9-.65-1-1.25c-1.3-7.61-3.06-15.14-3.73-22.85A13.47,13.47,0,0,0,25.77,72,3.48,3.48,0,0,1,26.22,69.09Z"/><path class="cls-4" d="M41.31,3.89c-.08.18-.16.37-.23.55-1.2-.43-2.4-.84-3.6-1.28C37,3,36.26,2.77,36.13,3.05,35.6,4.26,34.4,4,33.36,4.31c1.93,1.77,3.73,3.39,5.49,5a4.6,4.6,0,0,0,3,1.2c1.29.08.56-1.55,1.44-1.89.81.14,1,.66.66,1.31A6.25,6.25,0,0,1,43.21,11a2.23,2.23,0,0,1-2.71.53c-2.1-.68-3.67-2.1-5.41-3.28-1-.65-1.6-1.75-3-1.27-.3.1-.64-.39-.85-.74-.19-1.21.83-2.32.29-3.56.31-.78,1-.59,1.61-.69s1.22-.2,1.39-1a1.06,1.06,0,0,1,1.12-1,1.09,1.09,0,0,1,.68.3,45.29,45.29,0,0,0,4.5,2.77C41.06,3.24,41.15,3.62,41.31,3.89Z"/><path class="cls-5" d="M4.79,32.53c.06.29.11.58.17.87-.16.75-.81,1.16-1.21,1.74-1.82,2.59-3.28,5.38-2.6,8.62.62,3,1,6,1.73,8.86a26.82,26.82,0,0,0,4,9.3,1,1,0,0,0-.64.57,5.86,5.86,0,0,1-1.92-2.65C1.94,55,1,49.69.23,44.43A12.07,12.07,0,0,1,4.79,32.53Z"/><path class="cls-5" d="M31.53,2.74c.54,1.24-.48,2.35-.29,3.56a1,1,0,0,0-1,.45A20.26,20.26,0,0,0,26.81,13c-.75,2.73-1.35,5.6.77,8.12l-1.87.11c-1.68-4.71-.81-9,1.94-13.1C28.88,6.26,29.66,4.1,31.53,2.74Z"/><path class="cls-2" d="M13.91,74.84a6.64,6.64,0,0,1,1.34,4,68.26,68.26,0,0,0,2,10.52,24.85,24.85,0,0,1,.46,3.54c.07.63-.24,1.17-.89,1.18s-.58-.63-.58-1.08a22.42,22.42,0,0,0-1-5.86c-1-3.55-.94-7.24-1.53-10.84A6.58,6.58,0,0,1,13.91,74.84Z"/><path class="cls-5" d="M39.38,91.24a21.66,21.66,0,0,0,1.68,8.07c.08.22.32.44.29.62a1.35,1.35,0,0,1-1.05,1.17c-.51.11-.69-.38-.77-.74-.3-1.32-.5-2.66-.8-4-.94-4.26,0-8.55-.28-12.83,1,2.17.9,4.47.84,6.76C38.89,90.66,39,91,39.38,91.24Z"/><path class="cls-6" d="M36.06,69.61c.55-.63,1.27-.41,2-.42-.24,2.58.83,5,1,7.52a20.9,20.9,0,0,1,0,5.91l-.65-.2h.08c0-.59.19-1.24-.41-1.7-.71-2.44-.31-5-.92-7.48C36.79,72,36.83,70.68,36.06,69.61Z"/><path class="cls-3" d="M13,67.25l1-.47c-.24,1.46.45,2.81.52,4.24s.35,2.82-.36,4.38c-1.22-1.34-.54-2.81-.71-4.12A20.9,20.9,0,0,1,13,67.25Z"/><path class="cls-6" d="M30.3,69.59c.32-.44.63-.42.94,0C30.93,70,30.62,70,30.3,69.59Z"/><path class="cls-6" d="M39.38,91.24c-.43-.27-.49-.58-.09-.93C39.74,90.59,39.68,90.9,39.38,91.24Z"/><path class="cls-5" d="M38,80.68c.6.46.39,1.11.41,1.7C37.74,82,38,81.3,38,80.68Z"/><path class="cls-5" d="M38.35,82.42l.65.2c-.07.2-.13.47-.4.44S38.28,82.7,38.35,82.42Z"/><path class="cls-2" d="M6.27,62.53A1,1,0,0,1,6.91,62l.19.14-.56.61A.36.36,0,0,1,6.27,62.53Z"/><path class="cls-7" d="M7.1,62.08l-.19-.14a26.82,26.82,0,0,1-4-9.3c-.77-2.91-1.11-5.91-1.73-8.86-.68-3.24.78-6,2.6-8.62.4-.58,1.05-1,1.21-1.74,2-1.48,3-3.71,3.93-5.9A3.74,3.74,0,0,1,11,25.38,30.53,30.53,0,0,1,19.74,23a16.88,16.88,0,0,0,2.84-.39c2.65-.65,5.37-.29,8-.45,4-.24,8,0,11.93-.65,1.67-.26,1.77-.09,1.58,1.68a10.45,10.45,0,0,1-.18,2.85.67.67,0,0,0,.23.92.5.5,0,0,0,.2.08c.74.21.78-.41.83-.84.14-1.1.22-2.21.31-3.31s.59-1.34,1.57-1.37a33.43,33.43,0,0,1,16.69,3.35,23.86,23.86,0,0,1,5.73,4.29A6.87,6.87,0,0,1,71.23,32,64.27,64.27,0,0,1,73.9,46.08,10.32,10.32,0,0,1,73,51c-.54,1.24-1.16,2.45-1.67,3.71-1.39,3.42-4.15,5.32-7.36,6.8a42,42,0,0,1-11.84,3.67c-5.32.72-10.47,2.1-15.67,3.27a19,19,0,0,1-8.57-.35c-3.82-.89-7.76-.92-11.55-1.92-1.46-.39-3-.71-4.43-1C9.91,64.72,8.63,63.21,7.1,62.08Zm6.35-2.49.52.35A3.7,3.7,0,0,0,16.37,61a2.63,2.63,0,0,0,2.55,0,13.07,13.07,0,0,0,4-2.56,50.25,50.25,0,0,0,5.22-6.84c2.39-3.75,2.54-10.43-1.3-12.88a3.71,3.71,0,0,1-.77-.9c-2.51-3.17-6-4.56-9.79-5.43a1.24,1.24,0,0,0-.47,0c-2.93.83-5.78,1.81-7.72,4.39A3.55,3.55,0,0,0,6.3,38.9c-1.42,3.12-.93,6.3.22,9.26a41.35,41.35,0,0,0,4.2,8.77C11.43,58,11.74,59.53,13.45,59.59Zm45.81-6.77h1.2a10.24,10.24,0,0,0,9.38-6.93,37.32,37.32,0,0,0,1.49-6A3.32,3.32,0,0,0,70,36.53a9,9,0,0,0-5.28-2,2.73,2.73,0,0,1-2.33-.84c-.7-.86-1.66-.92-2.61.1a8.4,8.4,0,0,1-4.6,2.36c-1,.22-2,.56-3,.8-1.35.34-2.76,1.12-3.86-.55-.13-.2-.57-.23-.88-.27-1.06-.14-1.37.2-1,1.31.32.91.29,1.59-.7,1.88-1.31.37-1.53,1-.59,2,.33.35.77.72.32,1.21-1.28,1.4-.17,2.33.65,3.26,1.66,1.87,3.44,3.64,4,6.21.16.68.79,1.27,1.35,1.18,1.5-.25,3,.41,4.41.06A10.5,10.5,0,0,1,59.26,52.82Z"/><path class="cls-7" d="M27.57,21.07c-2.12-2.52-1.52-5.39-.77-8.12a20.26,20.26,0,0,1,3.43-6.2,1,1,0,0,1,1-.45c.21.35.55.84.85.74,1.44-.48,2.09.62,3,1.27,1.74,1.18,3.31,2.6,5.41,3.28a2.23,2.23,0,0,0,2.71-.53c.56,0,.79.41.92.92a19.77,19.77,0,0,1,.51,6.85c-.07.81-.33,1.4-1.27,1.36A23.46,23.46,0,0,0,38,21a6.14,6.14,0,0,1-1.42.11C33.59,21,30.58,21,27.57,21.07Z"/><path class="cls-8" d="M43.33,8.67c-.88.34-.15,2-1.44,1.89a4.6,4.6,0,0,1-3-1.2c-1.76-1.66-3.56-3.28-5.49-5,1-.35,2.24-.05,2.77-1.26.13-.28.89-.06,1.35.11,1.2.44,2.4.85,3.6,1.28C41.74,5.88,42.14,7.53,43.33,8.67Z"/><path class="cls-4" d="M59.26,52.83a10.51,10.51,0,0,0-3.3.34c-1.45.35-2.91-.31-4.41-.06-.56.09-1.19-.5-1.35-1.18-.58-2.57-2.36-4.34-4-6.21-.82-.93-1.93-1.86-.65-3.26.45-.49,0-.86-.32-1.21-.94-1-.72-1.61.59-2,1-.29,1-1,.7-1.88-.39-1.11-.08-1.45,1-1.31.31,0,.75.07.88.27,1.1,1.67,2.51.89,3.86.55,1-.24,2-.58,3-.8a8.4,8.4,0,0,0,4.6-2.36c1-1,1.91-1,2.61-.1a2.69,2.69,0,0,0,2.27.91,9,9,0,0,1,5.28,2,3.32,3.32,0,0,1,1.29,3.37,37.32,37.32,0,0,1-1.49,6,10.24,10.24,0,0,1-9.38,6.93C60.06,52.84,59.66,52.82,59.26,52.83Zm9.93-13.44a1.71,1.71,0,0,0-.11-.92,5,5,0,0,0-1.4-1.56c-.65-.37-1.06.41-1.59.71-1.29.74-2.6.27-3.87-.15-.5-.16-.09-.4,0-.66a1.33,1.33,0,0,0-.92-1.65,1.35,1.35,0,0,0-.82,0,4.09,4.09,0,0,0-2,1.13,3,3,0,0,1-2.9,1.18c-.87,0-1.87-.2-2.51.46-1,1-2.24,1-3.5,1h0c-.07-.5-.27-1.12-.85-.68a4.32,4.32,0,0,0-2,2.72c2.8-.21,2.8-.21,2,2.36a4.39,4.39,0,0,0-.18.69c-.13,1.48-.15,3.05,1.37,3.78,1.19.57,2.32.87,1.61,2.54a.86.86,0,0,0,.4.5A5,5,0,0,1,53.72,52a1.1,1.1,0,0,0,1.53.08A3.79,3.79,0,0,1,58,51.43c.53,0,1.14,0,1.3-.9-2.41.39-2.71-1.76-3.78-3.15,1.85.94,3.77-.35,5.6.39.46.19.73-.25.83-.64a.72.72,0,0,0-.43-.92l-.06,0a4.76,4.76,0,0,1-2.49-2.63c.47-.33,1-.37,1.23-.13a3,3,0,0,0,3.06,1.07c.81-.18,1.21.77.61,1.41-.84.88-1.25,1.7-.23,2.64.55.5-.58.94.08,1.43.8-.33,1.26-1.2,2.13-1.42l.23.19-.19-.22c.08-.23.14-.63.24-.64,1.8-.21,1.77-1.47,1.68-2.8a7.88,7.88,0,0,1,0-1.19c.13-1.81.13-1.81-1.33-2.62.62-1.08,1.33-1.94,2.73-1.84l.22.19Z"/><path class="cls-3" d="M8.07,36.77c1.94-2.58,4.79-3.56,7.72-4.39a1.24,1.24,0,0,1,.47,0c3.79.87,7.28,2.26,9.79,5.43a3.71,3.71,0,0,0,.77.9c3.84,2.45,3.69,9.13,1.3,12.88a50.25,50.25,0,0,1-5.22,6.84,13.07,13.07,0,0,1-4,2.56,2.63,2.63,0,0,1-2.55,0v-1.2a8.2,8.2,0,0,0,6.5-3,30.75,30.75,0,0,0,4.54-6.15,8.78,8.78,0,0,0,.51-8.29,15.32,15.32,0,0,0-8-7.59c-.63-.26-1.36-1.06-1.88.26-.17.41-.58,0-.63-.27-.22-1.25-1.14-1.13-2-1.09a8.32,8.32,0,0,0-4.79,2c-.68.54-1.21,1.3-2.15,1.47Z"/><path class="cls-2" d="M16.36,59.8V61A3.7,3.7,0,0,1,14,59.94a.5.5,0,0,0-.52-.35c-1.67-.11-2-1.61-2.75-2.67a41.35,41.35,0,0,1-4.2-8.77c-1.15-3-1.64-6.14-.22-9.26a3.55,3.55,0,0,1,1.79-2.12l.39.39A9,9,0,0,0,7,44.41a38.85,38.85,0,0,0,3.4,9.36C11.67,56.53,13.42,58.72,16.36,59.8Z"/><path class="cls-3" d="M13.45,59.59a.5.5,0,0,1,.52.35Z"/><path class="cls-8" d="M69.16,39.42c-1.4-.1-2.11.76-2.73,1.84,1.46.81,1.46.81,1.33,2.62a7.88,7.88,0,0,0,0,1.19c.09,1.33.12,2.59-1.68,2.8-.1,0-.16.41-.24.64h0c-.87.22-1.33,1.09-2.13,1.42-.66-.49.47-.93-.08-1.43-1-.94-.61-1.76.23-2.64.6-.64.2-1.59-.61-1.41a3,3,0,0,1-3.06-1.07c-.24-.24-.76-.2-1.23.13a4.76,4.76,0,0,0,2.49,2.63A.73.73,0,0,1,62,47s0,0,0,0c-.1.39-.37.83-.83.64-1.83-.74-3.75.55-5.6-.39,1.07,1.39,1.37,3.54,3.78,3.15-.16,1-.77.9-1.3.9a3.79,3.79,0,0,0-2.71.66A1.1,1.1,0,0,1,53.75,52,5,5,0,0,0,52,50.81c-.17-.05-.44-.4-.4-.5.71-1.67-.42-2-1.61-2.54-1.52-.73-1.5-2.3-1.37-3.78a4.39,4.39,0,0,1,.18-.69c.76-2.57.76-2.57-2-2.36a4.32,4.32,0,0,1,2-2.72c.58-.44.78.18.85.68-.22.07-.26.14-.11.17s.07-.12.1-.18c1.26,0,2.47.06,3.5-1,.64-.66,1.64-.48,2.51-.46a3,3,0,0,0,2.9-1.18,4.09,4.09,0,0,1,2-1.13,1.33,1.33,0,0,1,1.74,1.63c-.05.26-.46.5,0,.66,1.27.42,2.58.89,3.87.15.53-.3.94-1.08,1.59-.71a5,5,0,0,1,1.4,1.56c.16.22.08.61.11.92Z"/><path class="cls-8" d="M65.84,48.53l.19.22-.23-.19Z"/><path class="cls-8" d="M69.19,39.39l.19.22-.22-.19Z"/><path class="cls-7" d="M16.36,59.8c-2.94-1.08-4.69-3.25-6-6A38.85,38.85,0,0,1,7,44.44a9,9,0,0,1,1.5-7.25c.94-.17,1.47-.93,2.15-1.47a8.32,8.32,0,0,1,4.79-2c.89,0,1.81-.16,2,1.09.05.32.46.68.63.27.52-1.32,1.25-.52,1.88-.26a15.32,15.32,0,0,1,8,7.59,8.78,8.78,0,0,1-.51,8.29,30.75,30.75,0,0,1-4.54,6.15A8.22,8.22,0,0,1,16.36,59.8Zm-4.08-14v.75a8.05,8.05,0,0,0,3.22,6c.62.49,1.27.66,1.82-.15,2.38-.91,2.58-3.54.42-5.53-.67-.66-1.3-1.36-2-2-1.59-1.44-2.43-1.2-3.46.88Z"/><path class="cls-4" d="M49.49,38.92c0,.06-.08.19-.1.18s-.11-.1.11-.17Z"/><path class="cls-3" d="M17.31,52.31c-.55.81-1.2.64-1.82.15a8.05,8.05,0,0,1-3.22-6c.76,0,1.59.29,2.07-.61a.44.44,0,0,0-.09-.41c-.71-.39-1.3.29-2,.27,1-2.08,1.87-2.32,3.44-.94.71.61,1.34,1.31,2,2A22,22,0,0,0,17.31,52.31Zm-2.51-6A3.32,3.32,0,0,0,16.11,50c.44-1.63-.54-2.36-1.31-3.73Z"/><path class="cls-9" d="M17.31,52.31a22.33,22.33,0,0,1,.42-5.53C19.89,48.77,19.74,51.4,17.31,52.31Z"/><path class="cls-10" d="M12.28,45.75c.67,0,1.26-.66,2-.27a.44.44,0,0,1,.09.41c-.48.9-1.31.65-2.07.61Z"/><path class="cls-10" d="M14.8,46.27c.77,1.37,1.75,2.1,1.31,3.69A3.32,3.32,0,0,1,14.8,46.27Z"/></g></g></svg>