<svg xmlns="http://www.w3.org/2000/svg" viewBox="0 0 28 28"><defs><style>.cls-1{fill:none;stroke:#414042;stroke-linecap:round;stroke-linejoin:round;}</style></defs><g id="Layer_2" data-name="Layer 2"><g id="Layer_1-2" data-name="Layer 1"><line class="cls-1" x1="0.5" y1="13.5" x2="27.5" y2="13.5"/><path class="cls-1" d="M1.5,13.5,3.25,25.78a2,2,0,0,0,2,1.72H22.77a2,2,0,0,0,2-1.72L26.5,13.5"/><line class="cls-1" x1="1.5" y1="18.5" x2="26.5" y2="18.5"/><line class="cls-1" x1="2" y1="23.5" x2="26" y2="23.5"/><polyline class="cls-1" points="8.5 13.5 10 11.5 11.5 13.5"/><polyline class="cls-1" points="19.5 13.5 18 11.5 16.5 13.5"/><line class="cls-1" x1="18" y1="11.5" x2="14.5" y2="0.5"/><line class="cls-1" x1="13.5" y1="0.5" x2="10" y2="11.5"/><path class="cls-1" d="M6.5,13.5l1,12.28c.09,1,.59,1.72,1.19,1.72H19.26c.6,0,1.1-.73,1.19-1.72L21.5,13.5"/><path class="cls-1" d="M11,13.5l.42,12.28c0,1,.24,1.72.48,1.72h4.2c.24,0,.45-.73.48-1.72L17,13.5"/></g></g></svg>