<svg xmlns="http://www.w3.org/2000/svg" viewBox="0 0 119.12 218.42"><defs><style>.cls-1{fill:#fff;}.cls-2{fill:#96594a;}.cls-3{fill:#754bcc;}.cls-4{fill:#f9954a;}.cls-5{fill:#8b8186;}.cls-6{fill:#cabf99;}.cls-7{fill:#f3c4db;}.cls-8{fill:#f8431c;}.cls-9{fill:#e9abca;}.cls-10{fill:#d1f073;}.cls-11{fill:#c7e766;}.cls-12{fill:#fa3a19;}.cls-13{fill:#512da4;}.cls-14{fill:#f6e7ed;}.cls-15{fill:#e7f4b3;}.cls-16{fill:#d9f682;}</style></defs><g id="Layer_2" data-name="Layer 2"><g id="Layer_1-2" data-name="Layer 1"><path class="cls-1" d="M114.31,79c.39.41.77.85,1.41.48.23-.13.3-.49.15-.6-.42-.34-.89-.1-1.34,0l-.22.07c.17-.52.44-1.07-.38-1.31l-.87-.94c.22-.23.39-.53.66-.67a3.69,3.69,0,0,0,1.89-4c-.17-1.89-.07-3.8-.14-5.7,0-1.18.1-2.25,1.25-2.86a1.18,1.18,0,0,0,.59-1.4c-.18-1.26-.3-2.52-.54-3.77-.1-.55,0-1.36-.94-1.4a25.84,25.84,0,0,0,1-6.77c.09-1.64.31-3.28.48-4.91,1.74-.89,2.2-2,1.42-4a6.3,6.3,0,0,1-.47-3,18.69,18.69,0,0,0-1-8.32,7.13,7.13,0,0,1-.47-2.09c-.22-4.5-1.78-8.7-2.81-13-.14-.6-.28-1.26-1-1.54a5.73,5.73,0,0,0-.67-2.36c.1-.28,0-.45-.3-.5a.81.81,0,0,0-.73-.5c-.26-.43-.67-.33-1.06-.31l-.77.05c-.34-.31-.23,0-.24.17l-.57.46-.21-.06h.22a3.4,3.4,0,0,0,.07,1.87c-.78,1.33-.78,1.33-1.79.44-.34-.3-.67-.61-1-.92.06-.34.06-.66-.3-.85a.49.49,0,0,0-.11-.31A11.16,11.16,0,0,0,105.45,9c-.32-2-.33-2-2.49-2.19a1.6,1.6,0,0,1-1.53-.94c-.3-.64-.62-1.28-.94-1.92-.22-.44-.52-1-1-.86-1.1.41-2.43-.3-3.41,1-.78,1.06-1.56.79-2.22-.54-.43-.87-.86-1.62-2-1.1s-1.39-.17-1.79-.93C89.58.62,87.34-.34,86.49.12s-.19,1.57-.3,2.37a1,1,0,0,0,0,.24c.1,2-.16,2.17-2.11,1.66C82.94,4.1,82,3.3,80.68,3.45S78.83,4,78.93,5.39a9.65,9.65,0,0,0,.32,3.07c-.3.08-.64.28-.9.21C77,8.34,76,8.5,75.68,10.13a1.26,1.26,0,0,1-1.55.82l.18-.15-.37-.28V10a4.34,4.34,0,0,0-.63-2.25c-.49-1-1.32-1-2.21-1a1.56,1.56,0,0,0-1.63,1.43,2.34,2.34,0,0,1-1.36,2,3.29,3.29,0,0,0-1.46,2.35c-.49,1.78-.52,1.78-2.38,1.53-1.07-.15-2.33-.2-2.68.93-.7,2.32-2.31,4.34-2.3,6.89v.15c-.36.2-.29.45-.09.72C58.07,24.33,57.12,26,56,27.42a44.17,44.17,0,0,0-4.75,8c-.5,1-.69,2.3-2.12,2.69-.6.17-.5.94-.53,1.48a78.9,78.9,0,0,1-1.18,8.92,24.49,24.49,0,0,0,0,7.83A36.31,36.31,0,0,0,49,61.84c.12.37.2.79-.2,1.08a1,1,0,0,1-1.11,0,13.14,13.14,0,0,1-1.51-1.16c-.9-.82-1.73-1.69-3-.43a.85.85,0,0,1-1.18,0,.9.9,0,0,1-.2-.34c.25-1.44-.12-2.25-1.17-2.6s-1.26.67-1.71,1.24a2.6,2.6,0,0,0-.56,1.78c-1.69,1.22-3.91,1.08-5.62,2.23-1.61-1.27-1.63-1.3-3-.31-.83.6-1.55,1.36-2.35,2-1.15.9-1.17.88-1.94-.4-.65-1.07-1.44-1.21-2.29-.37a3.44,3.44,0,0,0-.69,1,19.08,19.08,0,0,1-3.83,5.09.65.65,0,0,0-.14.86c-1.61,1.15-2.83,2.77-4.68,3.67A4.41,4.41,0,0,0,12,77.08C10.7,79.42,9.25,81.67,7.85,84c-2.37,3.87-3.61,8.33-4.78,12.73A9.19,9.19,0,0,1,1.79,100,9.11,9.11,0,0,0,.1,105.6a31,31,0,0,0,.06,4.31c.35,3.18.87,6.32,1.51,9.46.31,1.52,1,3.16.21,4.64a4.16,4.16,0,0,0,.07,4.1,26.5,26.5,0,0,0,1.92,3.3c.91,1.37,1.88,2.85,1.59,4.61-.32,1.93-.4,1.92,1.47,2.66.49,1.67,1.28,3.23,1.9,4.85,1.27,3.31,3.48,6.19,4.32,9.68-.37.4-.74.81-1.13,1.2a1.18,1.18,0,0,0-.15,1.59,3.85,3.85,0,0,0,4,2.36,18.14,18.14,0,0,1,3.87,5.9c.18.43.31,1.1.64,1.23,1.39.56,1.41,2,2.11,3,0,2.68,1,5.12,1.79,7.62a12.9,12.9,0,0,1,.67,4.36,8.59,8.59,0,0,0,2.36,6c1.15,1.22,2.46,2.41,2.54,4.27,0,1.23.91,1.41,1.8,1.43s2.09.06,2.17-1.26c.06-1.12.6-1.36,1.53-1.27.55,0,.81-.46,1.26-.61a6,6,0,0,0,.67,1c2.16,2.13,4,4.4,4.29,7.61,0,.28.2.86.76.38l.52,1c-.51,1.61-.4,2.31.51,3,.29,1.21,1.08,2.19,1.36,3.46.38,1.76,2.74,2.08,3.94.69.35-.41.47-1,1-1.28,1.29,2,1.54,4-.53,5.7a3.46,3.46,0,0,0-.54,1c-1,.12-1.36,1-2,1.6-1.47,1.57-2.53,3.8-5.23,3.6-.31,0-.37.23-.37.47s0,.68.37.82a2.31,2.31,0,0,0,2.29-.1c2.28-1.5,4.4-3.16,5.47-5.81a11.65,11.65,0,0,0,1.22-.74c.71-.54,1.41-.26,1.51.4.26,1.78,1.49,1.64,2.63,1.76.9-2-1.35-3.78-.25-6a44.65,44.65,0,0,0,5.11,4.19c1.77,1.07,2.47,3.52,4.8,3.83q.41-.85,0-1.29a32.83,32.83,0,0,0-4.56-4.57,39.67,39.67,0,0,1-3.72-3c-.92-.9-.3-1.34.33-1.86a.76.76,0,0,0,.15-.4,12.32,12.32,0,0,0,1.2-1.75c1.69-3.88,4.49-7,6.79-10.53a84.61,84.61,0,0,0,5-8.46c1.74-1.6,2.45-3.84,3.56-5.82A139.92,139.92,0,0,0,78.86,165c1.1-2.54,2.39-5,3.28-7.64l.57-.61c2-.25,3.93-.53,5.9-.74a1.94,1.94,0,0,0,1.81-1.9,1.77,1.77,0,0,0-1.63-1.89h-.14c-.52-.06-1.09,0-1.41-.71.68-.84,1.7-.79,2.58-1s1.66-.5,1.63-1.46a1.89,1.89,0,0,0-1.69-2c-.51-.08-1.15,0-1.35-.69,1.91-1.49,2.26-2,1.43-3.17a2.94,2.94,0,0,1-.21-2.91c.34-1.05.58-2.53,1.34-3,1.27-.71,1.35-1.65,1.71-2.79.31-1.32.55-2.66.73-4,1.64-1.41,1.89-3.42,2.31-5.36a1,1,0,0,0,.86-.57c1.76.25,3.08-.23,3.52-2.14l1.83-.63c.66-.12,1-.5.79-1.17a5.77,5.77,0,0,1-.37-2.1c0-1.94,0-2,1.93-1.68.71.1,1.47.26,2-.35s.24-1.47,0-2.24A1.58,1.58,0,0,0,105,113a9.84,9.84,0,0,1-2-.61c-.45-.21-.65-.61-.18-1.14,1.07-1.2.91-2.29-.44-3.42-.06-1.91,1-3.52,1.46-5.27.8,0,1.49.55,2.31.42.4-.06,1-.21.85-.58-.53-1.21.36-3-1.45-3.67.71-3.08,1-6.26,2.63-9.07a3.43,3.43,0,0,0,.31-2.09,1.57,1.57,0,0,0,.38-1.31.89.89,0,0,0,.36-1.07,1,1,0,0,0,.21-.87l0-.78c.37-.59.34-1.43,1.11-1.77,1.45,0,1.87-1.29,2.72-2C113.93,79.9,114.05,79.35,114.31,79ZM116,87.72a1.07,1.07,0,0,0-1-.77.47.47,0,0,0-.51.43.54.54,0,0,0,0,.22.87.87,0,0,0,1,.66l.07,0a.44.44,0,0,0,.39-.47.09.09,0,0,1,0,0Z"/><path class="cls-2" d="M6.88,138.61c-1.87-.74-1.79-.73-1.47-2.66.29-1.76-.68-3.24-1.59-4.61A26.5,26.5,0,0,1,1.9,128a4.16,4.16,0,0,1-.07-4.1c.81-1.48.1-3.12-.21-4.64C1,116.16.46,113,.11,109.84a31,31,0,0,1-.06-4.31,9.11,9.11,0,0,1,1.69-5.62A9.19,9.19,0,0,0,3,96.61c1.17-4.4,2.41-8.86,4.78-12.73C9.2,81.6,10.65,79.35,12,77a4.41,4.41,0,0,1,1.78-1.9c1.85-.9,3.07-2.52,4.68-3.67a28.91,28.91,0,0,0,3.63-3,3,3,0,0,1,1.8-1.08c1.82-.16,3.23-1.2,4.7-2.1a10.41,10.41,0,0,1,4.12-1.64c1.71-1.15,3.93-1,5.62-2.23A7.31,7.31,0,0,1,41.74,61a.82.82,0,0,0,1,.54.9.9,0,0,0,.34-.2c1.26-1.26,2.09-.39,3,.43a13.14,13.14,0,0,0,1.51,1.16,1,1,0,0,0,1.11,0c.4-.29.32-.71.2-1.08a36.31,36.31,0,0,1-1.57-5.5,24.49,24.49,0,0,1,0-7.83,78.44,78.44,0,0,0,1.19-8.76c0-.54-.07-1.31.53-1.48,1.43-.39,1.62-1.67,2.12-2.69a44.17,44.17,0,0,1,4.75-8C57.09,26.09,58,24.47,59.17,23l.09-.72v-.15h.43c.78.52.81,0,.83-.59h0a1.82,1.82,0,0,0,2.07-1.17c.22-.48.41-1.11,1.06-1.17,2.42-.19,3.23-1.9,3.75-3.9h.67c.75.84,1.35.23,1.67-.34a15.94,15.94,0,0,1,2.86-3c1.28.06.66-1.32,1.31-1.74v.48c.06.14.13.28.19.43a1.26,1.26,0,0,0,1.55-.82C76,8.66,77,8.5,78.32,8.83c.26.07.6-.13.9-.21A27,27,0,0,1,86,5.89c4.51-1.37,8.7.31,13,.84,2,1.47,4.59,2.09,6.44,3.87a.49.49,0,0,1,.11.31,5,5,0,0,0,.13.74c0,.45-.06.91-.1,1.36a6.09,6.09,0,0,1-3.15-1.6c-2.68-2.75-6.14-3.63-9.72-4.15A10.41,10.41,0,0,0,88,7.2c-1.35.42-2.68,1.12-4.13.93-1.74-.24-2.59,1.31-4,1.84-1.79.68-3.73,1.39-5.07,3a1.8,1.8,0,0,1-.82.43c-2.11.57-3.34,2.35-4.88,3.65s-2,3.49-4.23,3.88c-.07,0-.13.1-.19.15-.57.57.11,1.4-.47,2s-1.27-.94-1.84.21a20.34,20.34,0,0,1-1,2.11c-.43.64-.44,2.39-2.07,1.3-.33-.22-.48.18-.72.37-2.26,1.84-3.67,4.32-5.2,6.72a31.37,31.37,0,0,0-3.89,8.94,39.25,39.25,0,0,0-.81,5.91c-.23,2.16-.63,4.43.33,6.58l.08,1c.22,3,1.74,5.49,2.79,8.18a1.19,1.19,0,0,0,0,.46l.43.57a.63.63,0,0,0,.06.38c-.5.5-.8,1.5-1.8.66-1.35.75-1.73-1-2.78-1.06-1.72,0-3.08-1-4.55-1.68l-.45-.34h0c-.26-1.26-1.2-.85-2-.8a5.5,5.5,0,0,0-2.35.24A64,64,0,0,0,32,65.18a45.29,45.29,0,0,0-10.49,5.51,38.22,38.22,0,0,0-7.74,7.66,16.11,16.11,0,0,1-2,2.36,14.08,14.08,0,0,0-3,4.5,59,59,0,0,0-3.61,8.27,30.56,30.56,0,0,0-1.79,9.32.74.74,0,0,0-.07.39c-1.06.33-.77,1.24-.85,2a.93.93,0,0,0-.36,1,13.29,13.29,0,0,1,.26,5.29,9.35,9.35,0,0,0,.17,3.76c.41,2.9,1.34,5.7,1.49,8.67a6,6,0,0,0,1.47,3.91c2,1.83,3.3,4.44,6,5.53.06,0,.1.12.14.19a7.16,7.16,0,0,1-.3.89c-.64,1.35-.47,1.74,1,2a9.13,9.13,0,0,1,2.79.39,1.08,1.08,0,0,1-.29.92,5.69,5.69,0,0,1-3.87-.48,10,10,0,0,0-4.12,1.5Zm0-3.88c.13-.06.33-.08.37-.18a.42.42,0,0,0-.14-.38.29.29,0,0,0-.41.06.37.37,0,0,0,0,.18c-.05.1.11.21.19.32Z"/><path class="cls-2" d="M109.45,84.51a1,1,0,0,1-.21.87c-.45.21-1,.28-1.17.87l.81.2a1.57,1.57,0,0,1-.38,1.31c-.43.17-1-.55-1.32.23a3.38,3.38,0,0,1-.41-.24,6.17,6.17,0,0,0-.24-2.34c-.14-.32,0-.56.35-.71,2.63-1,2.39-3.29,2.24-5.48.2-.87-.37-1.6-.44-2.42.73-.56,1.22-1.17.68-2.17a3.67,3.67,0,0,1-.18-1.14,1.45,1.45,0,0,1,.9-1.39c.59.29,1.19.68,1.5-.33.16-.53.29-1.08.46-1.6,1.69-5,1.39-10.23,1.84-15.36.21-2.45.14-5,.84-7.31.66-2.12.9-3.88,0-5.9-.48-1-.83-2.78.17-3.27,1.16-.57,1-1.23,1-2,0-3.86-1.12-7.55-1.78-11.3a4.33,4.33,0,0,0-1.45-3c-1.77-1.25-2.72-3.26-4.41-4.55.6-.4.51-1,.39-1.56-.13-1.22.45-1.42,1.45-1,.62.59,1,1.48,2,1.61A30.87,30.87,0,0,1,113.82,20a13.27,13.27,0,0,1,1.57,3.18,39.4,39.4,0,0,1,1.18,6.56c.18,2.22,1.78,4.36.44,6.7-.11.18.22.58.24.89.2,2.66,1.2,5.31.16,8-.17,1.63-.39,3.27-.48,4.91a25.84,25.84,0,0,1-1,6.77,17.56,17.56,0,0,1-1.09,8.21c-.83,2-.9,4.18-1.28,6.28v2.91a1.16,1.16,0,0,0-.56,1,4.29,4.29,0,0,0-1.09,2.31c-.44,1.41-.8,2.85-1.19,4.27-.77.34-.74,1.18-1.11,1.77C108.74,83.93,109.21,84.22,109.45,84.51Z"/><path class="cls-3" d="M93.41,130.64c-.18,1.34-.42,2.68-.73,4-.36,1.14-.44,2.08-1.71,2.79-.76.43-1,1.91-1.34,3a2.94,2.94,0,0,0,.21,2.91c.83,1.21.48,1.68-1.43,3.17.2.71.84.61,1.35.69a1.89,1.89,0,0,1,1.69,2c0,1-.82,1.24-1.63,1.46s-1.9.18-2.58,1c.32.74.89.65,1.41.71a1.75,1.75,0,0,1,1.77,1.74v.15a1.94,1.94,0,0,1-1.81,1.9c-2,.21-3.93.49-5.9.74a35.19,35.19,0,0,1,1.87-4.85c.85-1.74,2-3.45,2-5.52l.18-.32-.32.17-.81.05c0-1.54.48-3.1-.38-4.6-.36-.62.11-1,.78-1.1a3,3,0,0,0,2.71-2.86A6.76,6.76,0,0,1,92,131.69a2.67,2.67,0,0,0,.43-.57l.43-.62Z"/><path class="cls-4" d="M105.55,10.58c-1.85-1.78-4.4-2.4-6.44-3.87-4.32-.53-8.51-2.21-13-.84A27,27,0,0,0,79.35,8.6,9.65,9.65,0,0,1,79,5.53c-.1-1.4.36-1.78,1.75-1.94s2.26.65,3.4.94c1.95.51,2.21.36,2.11-1.66a1,1,0,0,1,0-.24c.11-.8-.73-1.79.3-2.37.85-.46,3.09.5,3.58,1.44.4.76.73,1.44,1.79.93s1.54.23,2,1.1c.66,1.33,1.44,1.6,2.22.54,1-1.32,2.31-.61,3.41-1,.48-.18.78.42,1,.86.32.64.64,1.28.94,1.92a1.6,1.6,0,0,0,1.53.94c2.16.15,2.17.17,2.49,2.19A10.9,10.9,0,0,1,105.55,10.58Z"/><path class="cls-5" d="M6.88,138.61a1.72,1.72,0,0,1,1.7-.87A40.19,40.19,0,0,0,13.45,148c.59.92,1.07,1.92,1.61,2.84.81,1.38.56,3.15,1.82,4.27,1.39,2.78,2.81,5.54,5.23,7.61a7.43,7.43,0,0,0,1.24,4,2.67,2.67,0,0,1,.24,1.86l-1.19-.2c-.7-1-.72-2.42-2.11-3-.33-.13-.46-.8-.64-1.23a18.14,18.14,0,0,0-3.87-5.9,26.24,26.24,0,0,0-2.68-5.15c-.84-3.49-3-6.37-4.32-9.68C8.16,141.84,7.37,140.28,6.88,138.61Z"/><path class="cls-5" d="M69.38,183.86a84.61,84.61,0,0,1-5,8.46c-2.3,3.48-5.1,6.65-6.79,10.53a12.32,12.32,0,0,1-1.2,1.75h-.58a.81.81,0,0,0-.79.27c-.58.79-.82.12-1.14-.25l.12-.93a2.27,2.27,0,0,0,1.48-1.37c.94-1.71,1.81-3.53,3.63-4.55a1,1,0,0,0,.47-1.2,1.34,1.34,0,0,1,.14-1.12c1.42-2.26,2.85-4.51,4.17-6.83,1-1.84,3.27-3,3.13-5.52,1.18-.47.56-2.13.74-2.18,1.49-.42,1.28-2.23,2.48-2.78h1a4.28,4.28,0,0,1-.58,2.15A5.42,5.42,0,0,0,69.38,183.86Z"/><path class="cls-3" d="M22.4,168.4l1.19.2c0,.36.07.72.1,1.09l.09,1.33v1.6c0,.25-.14.52.12.71l.29-.2a36.52,36.52,0,0,1,2.89,9,3.52,3.52,0,0,0,.49,1.58,13.84,13.84,0,0,0,7.24,4.6c.24.07.59-.17.88-.27a1.66,1.66,0,0,1,1,1.05c-.45.15-.71.66-1.26.61-.93-.09-1.47.15-1.53,1.27-.08,1.32-1.23,1.28-2.17,1.26s-1.75-.2-1.8-1.43c-.08-1.86-1.39-3.05-2.54-4.27a8.57,8.57,0,0,1-2.45-6.17,12.9,12.9,0,0,0-.67-4.36C23.43,173.51,22.42,171.08,22.4,168.4Z"/><path class="cls-6" d="M53.86,204.59c.32.37.56,1,1.14.25a.81.81,0,0,1,.79-.27l.43.43c-.63.52-1.25,1-.33,1.86a39.67,39.67,0,0,0,3.72,3,32.83,32.83,0,0,1,4.56,4.57c.29.32.29.72,0,1.29-2.33-.31-3-2.76-4.8-3.83a44.65,44.65,0,0,1-5.11-4.19c-1.1,2.2,1.15,4,.25,6-1.14-.12-2.37,0-2.63-1.76-.1-.66-.8-.94-1.51-.4a11.65,11.65,0,0,1-1.22.74l-.58-.58a3.46,3.46,0,0,1,.54-1c2.07-1.74,1.82-3.66.53-5.69l1-.86a3,3,0,0,0,2.52.3Zm-1.68,5.9a2.13,2.13,0,0,0-.14.35s.14.14.15.13.21-.16.22-.25-.1-.16-.23-.21Z"/><path class="cls-6" d="M69.38,183.86a5.48,5.48,0,0,1,1.24-3.64,4.28,4.28,0,0,0,.58-2.15,2.55,2.55,0,0,1,.31-1.38,147.45,147.45,0,0,0,7.92-16.83A5.59,5.59,0,0,1,81,157.51l1.12-.06c-.89,2.63-2.18,5.1-3.28,7.64A139.92,139.92,0,0,1,72.94,178C71.83,180,71.12,182.26,69.38,183.86Z"/><path class="cls-4" d="M117.31,45.3c1-2.69,0-5.34-.16-8,0-.31-.35-.71-.24-.89,1.34-2.34-.26-4.48-.44-6.7a39.4,39.4,0,0,0-1.18-6.56A13.27,13.27,0,0,0,113.72,20,30.87,30.87,0,0,0,112,16.52a3.25,3.25,0,0,1,1-3.14c.69.28.83.94,1,1.54,1,4.31,2.59,8.51,2.81,13a7.13,7.13,0,0,0,.47,2.09,18.69,18.69,0,0,1,1,8.32,6.3,6.3,0,0,0,.47,3C119.54,43.31,119.08,44.41,117.31,45.3Z"/><path class="cls-4" d="M68.15,15.28h-.68c-1.21-.17-2.45.41-3.67-.35a1.09,1.09,0,0,0-1.46.45,1.06,1.06,0,0,0-.09.25c-.48,2-1.72,3.76-1.65,5.89h0l-.83.59h-.43c0-2.55,1.6-4.57,2.3-6.89.35-1.13,1.61-1.08,2.68-.93,1.86.25,1.89.25,2.38-1.53a3.29,3.29,0,0,1,1.46-2.35,2.34,2.34,0,0,0,1.36-2A1.56,1.56,0,0,1,71.15,7a2,2,0,0,1,2.21.95A4.34,4.34,0,0,1,74,10.18c-.65.42,0,1.8-1.31,1.74-.23-1.7-.23-1.7-1.79-1.09a3.9,3.9,0,0,1-.46.12,2.46,2.46,0,0,0-2.2,2.69l0,.21A13.76,13.76,0,0,1,68.15,15.28Z"/><path class="cls-3" d="M50.64,204.08l-1,.86c-.53.26-.65.86-1,1.27-1.2,1.39-3.56,1.07-3.94-.69-.28-1.27-1.07-2.25-1.36-3.45a9.59,9.59,0,0,1-.51-3l-.52-1c-.19-.44-.69-.88-.2-1.38.1-.1.52.11.79.18,1,1.64,2.67,2.64,4.08,3.86,1.11,1,1.86,2.4,3.42,2.83A4.9,4.9,0,0,1,50.64,204.08Z"/><path class="cls-7" d="M102.39,108c1.35,1.13,1.51,2.22.44,3.42-.47.53-.27.93.18,1.14a9.84,9.84,0,0,0,2,.61,1.58,1.58,0,0,1,1.27,1.23c.22.77.62,1.52,0,2.24s-1.31.45-2,.35c-1.92-.28-1.93-.26-1.93,1.68a5.77,5.77,0,0,0,.37,2.1c.25.67-.13,1-.79,1.16a15.08,15.08,0,0,0-3.84-2.42c-.12-.78.42-1.14,1-1.52a11.13,11.13,0,0,0,1.15-.09c.81-.17,1.6-.56,1.38-1.5a1.31,1.31,0,0,0-2-.84c.21-.88.74-1.63.56-2.69a2.53,2.53,0,0,1,1.08-2.22c.59.16,1.09.07,1.15-.64a10.39,10.39,0,0,0-.06-1.58A2,2,0,0,1,102.39,108Zm3,8a1.5,1.5,0,0,0-1.78-.72,3,3,0,0,0,1.81.74Z"/><path class="cls-6" d="M102.39,108a2.07,2.07,0,0,0-.1.43c-.44.18-1-.54-1.37.08l-.44-.05a2.78,2.78,0,0,1,.38-1.09c.7-1.65,1.67-3.4,1.41-5.11a13.82,13.82,0,0,1,.09-4.8l0-1a2,2,0,0,0,2.56-1.2A2,2,0,0,0,105,95c.64-2.37,1.8-4.58,2.14-7,.31-.78.89-.06,1.32-.23a3.43,3.43,0,0,1-.31,2.09c-1.61,2.81-1.92,6-2.63,9.07-.58,1.27-.73,2.73-1.71,3.83C103.36,104.51,102.31,106.09,102.39,108Z"/><path class="cls-4" d="M112.89,75.36a1.16,1.16,0,0,1,.56-1c.82-.08,1-.61.87-1.3a2.85,2.85,0,0,0-.83-1.61c.38-2.1.45-4.25,1.28-6.28A17.56,17.56,0,0,0,115.86,57c.94,0,.85.85,1,1.4.24,1.25.36,2.51.54,3.77a1.18,1.18,0,0,1-.59,1.4c-1.15.61-1.29,1.68-1.25,2.86.07,1.9,0,3.81.14,5.7a3.69,3.69,0,0,1-1.89,4,2.59,2.59,0,0,0-.65.67C112.7,76.34,112.94,75.83,112.89,75.36Z"/><path class="cls-4" d="M32.68,63.62a10.26,10.26,0,0,0-4.12,1.64c-1.47.9-2.88,1.94-4.7,2.1a3,3,0,0,0-1.8,1.08,28.91,28.91,0,0,1-3.63,3,.65.65,0,0,1,.14-.86,19.08,19.08,0,0,0,3.83-5.09,3.44,3.44,0,0,1,.69-1c.85-.84,1.64-.7,2.29.37.77,1.28.79,1.3,1.94.4.8-.63,1.52-1.39,2.35-2C31.05,62.32,31.07,62.35,32.68,63.62Z"/><path class="cls-5" d="M42.92,196.86c-.27-.07-.69-.28-.79-.18-.49.5,0,.94.2,1.38-.56.48-.74-.1-.76-.38-.26-3.21-2.13-5.48-4.29-7.61a6,6,0,0,1-.67-1,1.66,1.66,0,0,0-1-1v-3.34c1.46,2,2.59,4.2,4.35,6,.64.77,2,1.4,1.74,2.34C41.2,194.74,42.5,195.61,42.92,196.86Z"/><path class="cls-8" d="M113,13.38a3.25,3.25,0,0,0-1,3.14c-1-.13-1.36-1-2-1.61-.51-.86-.61-1.91-1.29-2.69a3.4,3.4,0,0,1-.07-1.87h0l.57-.46h.18l.06-.17.77-.06c.24.47.46,1,1.06.32a.81.81,0,0,1,.73.5.35.35,0,0,0,.19.47.2.2,0,0,0,.11,0A5.63,5.63,0,0,1,113,13.38Z"/><path class="cls-9" d="M48.59,211.67l.58.58c-1.07,2.65-3.19,4.31-5.47,5.81a2.31,2.31,0,0,1-2.29.1c-.33-.14-.37-.49-.37-.82s.06-.49.37-.47c2.7.2,3.76-2,5.23-3.6C47.23,212.64,47.59,211.79,48.59,211.67Z"/><path class="cls-5" d="M82.14,157.45l-1.11.06.72-1.5c.47-1.6.44-3.38,1.8-4.67.22-.21.14-.74.2-1.12,1-1.08.71-2.86,1.93-3.85l.81-.05.15.15c0,2.07-1.21,3.78-2.06,5.52a35.19,35.19,0,0,0-1.87,4.85Z"/><path class="cls-3" d="M13.1,153.14a26.24,26.24,0,0,1,2.68,5.15,3.85,3.85,0,0,1-4-2.36c-.4-.73-.36-1.09.15-1.59S12.73,153.51,13.1,153.14Z"/><path class="cls-8" d="M112.89,75.36c0,.47-.19,1,.22,1.39s.57.63.86.94a8.9,8.9,0,0,0-.64,2.21c-.85.75-1.27,2.08-2.72,2,.39-1.42.75-2.86,1.19-4.27A4.31,4.31,0,0,1,112.89,75.36Z"/><path class="cls-4" d="M41.74,61a7.31,7.31,0,0,0-3.44.42,2.6,2.6,0,0,1,.56-1.78c.45-.57.54-1.64,1.71-1.24S42,59.51,41.74,61Z"/><path class="cls-7" d="M100.1,122.57c-.44,1.91-1.76,2.39-3.52,2.14l-.44-.39c.25-.93.15-2,1.28-2.53Z"/><path class="cls-5" d="M108.75,12.22c.68.78.78,1.83,1.29,2.69-1-.39-1.58-.19-1.45,1-.46-.25-.81-.72-1.42-.59h0a.74.74,0,0,0-.42-1l-.13,0-.44-.49c.06-.42,0-.78-.48-.93h0c0-.45.07-.91.1-1.36l.17.11c.33.31.66.62,1,.92C108,13.51,108,13.51,108.75,12.22Z"/><path class="cls-7" d="M103.85,102.73c1-1.1,1.13-2.56,1.71-3.83,1.81.68.92,2.46,1.45,3.67.17.37-.45.52-.85.58C105.31,103.28,104.65,102.72,103.85,102.73Z"/><path class="cls-6" d="M93.41,130.64l-.52-.2.09-.5a22.54,22.54,0,0,1,1.28-4.19c.51.06.86-.27,1.25-.52h.21C95.31,127.22,95.05,129.23,93.41,130.64Z"/><path class="cls-9" d="M100.1,122.57l-2.68-.78c.24-.75.13-1.61.67-2.28a15.08,15.08,0,0,1,3.84,2.42Z"/><path class="cls-5" d="M42.85,199.05a9.59,9.59,0,0,0,.51,3C42.45,201.36,42.31,200.66,42.85,199.05Z"/><path class="cls-10" d="M116,87.72a.43.43,0,0,1-.33.51h-.07a.87.87,0,0,1-1.09-.57.19.19,0,0,1,0-.07.47.47,0,0,1,.25-.62.41.41,0,0,1,.22,0A1.06,1.06,0,0,1,116,87.72Z"/><path class="cls-4" d="M113.31,79.9a8.9,8.9,0,0,1,.64-2.21c.82.24.55.79.38,1.31h0C114.05,79.35,113.93,79.9,113.31,79.9Z"/><path class="cls-11" d="M114.31,79h0l.22-.07c.45-.14.92-.38,1.34,0,.15.11.08.47-.15.6C115.12,79.86,114.74,79.42,114.31,79Z"/><path class="cls-5" d="M108.88,86.43l-.81-.2c.16-.59.72-.66,1.17-.87A.89.89,0,0,1,108.88,86.43Z"/><path class="cls-5" d="M111.31,10c-.6.71-.82.15-1.06-.32C110.64,9.69,111.05,9.59,111.31,10Z"/><path class="cls-9" d="M96.14,124.32l.44.39a1,1,0,0,1-.86.57h-.21C95.69,124.91,95.76,124.51,96.14,124.32Z"/><path class="cls-4" d="M106,11.74l-.17-.11a4.58,4.58,0,0,0-.13-.74C106,11.08,106,11.4,106,11.74Z"/><path class="cls-5" d="M109.48,9.76l-.06.17h-.18C109.25,9.78,109.14,9.45,109.48,9.76Z"/><path class="cls-4" d="M59.31,22.29l-.09.72C59,22.74,58.94,22.51,59.31,22.29Z"/><path class="cls-4" d="M74.21,11.09c-.06-.15-.13-.29-.19-.43l.37.28Z"/><path class="cls-5" d="M109.45,84.51c-.24-.27-.71-.56,0-.78C109.48,84,109.47,84.23,109.45,84.51Z"/><path class="cls-9" d="M56.22,205l-.43-.43h.58A.75.75,0,0,1,56.22,205Z"/><path class="cls-4" d="M112.31,11a.36.36,0,0,1-.33-.39.2.2,0,0,1,0-.11C112.31,10.57,112.44,10.74,112.31,11Z"/><polygon class="cls-5" points="108.67 10.39 108.68 10.35 108.46 10.33 108.67 10.39"/><path class="cls-12" d="M108.68,76.78c.07.82.64,1.55.44,2.42-.65,0-1.19,0-1.46.87-.62,2.05-2,2.46-3.86,1.25-1-.69-1.73-.52-2.22.55a.92.92,0,0,0,0,.69c.2.4.52.24.77,0s.53-.42.8-.08a.72.72,0,0,1,0,.9c-1.16,1.38-1.6,3.42-3.67,4a3.47,3.47,0,0,0-1.38.91c-1.63,1.55-2.29,1.33-2.9-.94v-.23c-.09-.47-.38-.72-.84-.61a.48.48,0,0,0-.4.55.46.46,0,0,0,.08.19c.35.76-.2,1.4-.27,2.09-.09.92-.74,1-1.37.57-1.39-1.06-2.94-2-3.85-3.53A4.37,4.37,0,0,0,85.47,84c-.77-.14-1.19-.75-1.73-1.22-2.27-2-3.92-4.81-7.26-5.35-.28-.05-.53-.34-.79-.51-1.24-.81-1.35-.77-2.53.75l-.17.49A8.6,8.6,0,0,0,67.31,81l-.82.08c0-1-.33-1.79-1.49-1.9-.08-.26-.07-.6-.42-.67-.07,0-.25.17-.24.23.08.35.42.33.68.42a2,2,0,0,1-.44,1.72,2,2,0,0,0-.45,1.71h0c-1.48-.22-1.86,1-2.3,1.93-.26.57.34.77.82.88l.5.46h0c-.08.64-.39,1.13-1.07.87a2.68,2.68,0,0,0-2.79.61h-.91c-.84-.07-1.72.15-2.1-1.07-.3-1-1.06-1.35-2.26-1.25a4.33,4.33,0,0,0-2.5.66c-.37-.57,0-.91,0-1.29.17-1.73-.18-2.05-1.82-1.66-1.93.47-1.94.47-2,2.53a11.53,11.53,0,0,1,0,1.44c-.32,2.17-1,4.13-3.34,4.94-1.1.38-1.56,1.69-2.77,1.91-.45,1.89-1.82,3.34-2.5,5.1-.62,1.6-1.1,3.19-3,3.7-.19,0-.33.34-.45.53-.27.43-.44.87,0,1.3s1,.14,1.51-.1-.19-1.18.8-1.18c.18.7.43,1.48-.1,1.85-1.07.76-1.08,1.83-1.34,2.91a6.32,6.32,0,0,1-1.52,3.2c-.93.9-.83,2-.47,3.18a4.82,4.82,0,0,0,3-1.51,1.61,1.61,0,0,1,2.64-.19v.87c-.76.66-.3.86.37,1l.08,1c-.7,0-1.29.5-2.09.23a1.69,1.69,0,0,0-2.07.74c-.5,1.13-1.46,1.88-2,3-.25.49-.83,1-.34,1.47a1.8,1.8,0,0,0,1.93.53c.34-.14.55-.57,1-.4.74.25,1.75,2,1.83,3.1s-.76,1.68-1.68,1.89a3.73,3.73,0,0,0-2.85,1.83c-1.61-.26-2,1.22-2.92,2h-.91c-1.34-1.41-2.35-1.29-2.93.37a3.19,3.19,0,0,1-.76,1.44c-.69.56-.56,1.07,0,1.54a1.5,1.5,0,0,1,.31,2.08,1.81,1.81,0,0,1-.3.25,11.5,11.5,0,0,0-1.1-1.81c-.4-.47-1-.95-1.66-.56-1.15.69-1.84.41-2.48-.71-.47-.83-1.29-.75-2.1-.42a1.5,1.5,0,0,0-1,1.88h0a11.1,11.1,0,0,0,.45,1.34c-.46.69-1.51.11-1.91.91-.7,0-1.43,0-1.78.82a9.13,9.13,0,0,0-2.79-.39c-1.47-.23-1.64-.62-1-2a7.16,7.16,0,0,0,.3-.89,4.23,4.23,0,0,0,1.17-.16c.72-.34,3-4.4,3.06-5.19,0-.62-.39-.73-.89-.88-1.48-.45-1.86-1.07-1.11-2.29a12.85,12.85,0,0,0,1-3.15c-.67-.24-1.27-.42-1.84-.68s-1.3-.48-1.6-1a2,2,0,0,1-.33-2.19c.23-.49-1.45-.24-1.38-1.39.1-1.65-1.32-3-1-4.77.15-.91-.84-1.29-1.68-1.28s-1.09.62-1.1,1.32a7,7,0,0,0,.2,2.84A.94.94,0,0,1,5.89,116l-.19.08a1.1,1.1,0,0,1-1.41-.56c-.43-.69-.92-1.47-.52-2.24.83-1.59-.35-3.55,1-5a.51.51,0,0,0,0-.41c-1.39-.51-.44-1.21-.24-1.95a2.46,2.46,0,0,0-1-2.73.74.74,0,0,1,.07-.39,1.38,1.38,0,0,0,.87-.78,23.15,23.15,0,0,1,1.71-3.92c.67-1.35,2-2.65.89-4.44a.92.92,0,0,1,.37-1.25,1.14,1.14,0,0,1,.26-.09,5.85,5.85,0,0,1,3.28.35c.8.29.71.9.88,1.51.42,1.47,1.16,1.76,2.64,1.46.72-.14,1.05-.62,1.53-1,1.2-1,2.28-.57,2.49.91a3.42,3.42,0,0,0,.67,1.73,1.57,1.57,0,0,1,0,2c-.84-.39-.67-1.31-1.17-1.78s-1-.57-1.27.19c-.34,1.11-.68,2.26.32,3.24-.59.62-1.48-.37-1.77.56a3.28,3.28,0,0,0,.53,2.28c.3.66.79.14,1.2,0,.12-.06.4,0,.41,0,.47,1.44,1.44.77,2.33.58s1.09.35,1.32,1,.38,1.49-.37,1.6c-2.51.39-2.81,2.06-2.74,4.1,0,.28-.24.58-.35.88-.33.92.4,3.61,1.1,3.73,1.75.31,1.29-1.47,1.94-2.22a2.63,2.63,0,0,0,.32-1.13c.08-.51.25-1,.74-1.14,1.37-.3,1.16-1.32,1.17-2.27s-.15-2,1.19-2.55a3.23,3.23,0,0,0,1.36-1.62,41.33,41.33,0,0,1,2.37-4.93.46.46,0,0,0-.05-.66.42.42,0,0,0-.17-.1c-1.39-.66-.88-1.68-.51-2.64C28.35,93,30,89.81,31.36,86.49s3.5-6.29,5.25-9.44c.82.26.71,1.35,1.62,1.41.3,0,.41.53.15.78-.81.78-.52,2-1.2,2.83A2.71,2.71,0,0,0,37,84.86c.81-.32,1.44-.76,1.55-1.46.22-1.33,1.15-2.26,1.71-3.39.4-.79.91-1.39.51-2.4s.22-1.32,1.14-1c.71.25,1.62.56,2-.12.77-1.41,2.47-2.34,2.26-4.25a1.39,1.39,0,0,1,.11-.92c.2-.39.47-.66.93-.56a.68.68,0,0,1,.53.7A1.7,1.7,0,0,1,47.37,73a.65.65,0,0,0-.23.9.63.63,0,0,0,.32.28A.78.78,0,0,0,48.54,74a.84.84,0,0,0,.13-.46c-.08-1.63,1.29-2.5,1.81-3.8s2.44-1,3.16-2.22c0-.06.44.1.67.14.62.09,1.17.51,1.88.34a2.14,2.14,0,0,0,.23-.64,5.69,5.69,0,0,1,2.71-5.65,1,1,0,0,0,.4-1.26c-.21-.41-.69-.35-1.07-.33-.85.06-1.77-.26-2.5.48a.65.65,0,0,1-1.16-.2c-.36-1.31-.73-2.69.6-3.88-1.45-.74-2.89-1.37-2-3.42.26-.62-.6-.85-1.1-1a.74.74,0,0,0-1,.36.59.59,0,0,0-.07.29c-.17.85-.4,1.7-.51,2.56s-.69,1-1.36,1c0-.32-.05-.64-.08-1,1-1.55.32-3.26.47-4.89.1-1.22-.35-2.6,1.39-3.12.47-.14.53-.76.53-1.26a2.83,2.83,0,0,1,.87-2.16c.82-.77.61-1.38-.25-1.89-.38-.23-1.07-.2-.83-.89s.84-.65,1.42-.66c1,0,1.83.48,2.81.52,1.6.06,1.49.15,1.42-1.37-.05-1.09-1-2.62,1.08-3,.56-.12,0-.45,0-.69-.2-1.35.25-2.33,1.47-2.4s.83-.49.8-1.19c-.08-1.48.33-1.69,1.64-.89.93.58,1.7,1.07,2.77.18A1.31,1.31,0,0,1,66.7,32l.07.12c.47.66-.37.88-.67,1.29-.76,1-.61,1.66.7,2.28.83.4.9.88.44,1.48a8.31,8.31,0,0,0-1,3.15.79.79,0,0,0,.63.9c.53.12.61-.31.71-.72a5.51,5.51,0,0,1,1-2.65c1.44-1.51,1.07-3,.11-4.57-.64-1-1.23-2-.73-3.32a1.73,1.73,0,0,0-.45-1.77c-.33-.38-1.09-.73-.55-1.35s1,.05,1.55.15A1.56,1.56,0,0,1,70,28.53a1.28,1.28,0,0,0,.51,1c1.24.93,1.31,2.33,1.36,3.65s.22,2.21,1.34,2.85c.37.21.77.68.47.94-.84.74-.54,2.07-1.41,2.67s-1.61,1.13-.49,2.15c-.73.76,1.17,2.87-1.4,2.7-.27,0-.36.34-.35.56.15,2.26-.7,4.67,1,6.7a1.37,1.37,0,0,1,.38,1.33c-.7,1.72.47,2,1.69,2.4.12-.24.25-.43.33-.64a1.25,1.25,0,0,1,1.51-1,.7.7,0,0,1,.19.06c.94.31.61,1.18.6,1.85a1.64,1.64,0,0,1-.37.84c-.68.82.11,1.17.52,1.55s.81-.07,1.1-.44c.52-.67,1.09-1.15,2-.67a1.75,1.75,0,0,0,1.4-.05c1.07-.42,1.58.14,1.57,1.09,0,1.94,1.38,3.16,2.18,4.67.3.56.84.8,1.21,0,.13-.3.25-.6.6-.49,1.1.94-.86,2.2.41,3.07a9.24,9.24,0,0,1,2.37,2.65,4,4,0,0,0,.86.84,1.6,1.6,0,0,0,.63.3c.34.07.75,0,.7-.42-.23-1.9.77-4.2-1.78-5.38-.45-.2-.71-.83-1-1.28a.88.88,0,0,1-.13-1.1c.35-.45.69-.09,1,.11s.69.54,1,0a.74.74,0,0,0-.2-1l0,0c-1.73-.86-1.78-2.54-2-4.07-.13-1.07,0-2.05-1.38-2.41a.82.82,0,0,1-.48-1.06,1.09,1.09,0,0,1,.08-.15,1,1,0,0,1,1.4-.22l.07.06a4.81,4.81,0,0,1,2,2.56c0,.15.38.29.59.3.43,0,.46-.36.5-.67A3,3,0,0,0,90,52.89c-.24-.51-.64-1.12-.27-1.57.65-.76-.35-2.64,1.15-2.4,1.16.18.57,1.75.46,2.71-.07.62-.57,1.28,0,1.8s.21,1.48.38,2.12c.81.39,1.12-.72,2-.36.22,1.21,1.19,2.4-.42,3.67-.83.65-.25,1.73,1.06,2.7,1,.72,1.23.06,1.5-.67.12-.31.29-.63.66-.53.54.14,1.08.35,1.2,1A4,4,0,0,0,98,63c.68,1.09,2.6,1.29,2.7.27.16-1.58,2-3.22.14-4.87a.63.63,0,0,1,.21-1c.66-.38,1.34-1,2,.14s1.49.83,2.39.24c1.23-.83,1.26-2.07,1.37-3.35.26-3,.3-3.05-2.39-4.26-.87-.39-1-.84-.67-1.65,2.64,1.05,2.81,1,2.78-1.28,0-.07.23-.15.55-.36,0,1.2,1.63,1.13,1.68,2.31s.51,1.43,1.68,1.13c1.45-.38,1.66-.13,1.7,1.38a53.9,53.9,0,0,1-.27,7.83,7.59,7.59,0,0,1-1.44,2.72c-.53.87-2.66.29-3.08-.72-1.07-2.53-1.42-2.67-3.22-1.19.86.53,1,1.64,1.77,2.19s.93,1,.4,1.95c-.7,1.23.27,3,1.4,2.8a7,7,0,0,0,2.62-1.09c.64-.44-.25-1.16-.07-1.78.09-.3.14-.63.59-.59.48.35.5,1,.72,1.45,1.13,2.51.33,3.95-2.34,4.64a7.43,7.43,0,0,1-3,.22l.17.14a1.3,1.3,0,0,0-.05-.44c0-.14-.09-.18-.13-.17s-.24.14,0,.47a3.66,3.66,0,0,1-.22,2.46,4.77,4.77,0,0,0,.53,5.37c.08.11.25.14.42.23C107.41,77.6,107.73,76.68,108.68,76.78ZM14.46,103.66a2.14,2.14,0,0,0-2.05-.9c-1.47.32-2.95,0-4.39.18-1.07.12-1.07-.16-.86-1a.46.46,0,0,0-.28-.58.48.48,0,0,0-.24,0,.79.79,0,0,0-.57.32,7.35,7.35,0,0,0-.35,1.38c-.22,1.19.47,1.94,1.35,1.33,1.58-1.11,1.88,0,2.34,1A13.8,13.8,0,0,1,10.46,108c.24,1.24,1.15,2.48.91,3.57-.31,1.46.29,2.48.76,3.62s1,1.08,1.77.31a1.42,1.42,0,0,0,.45-1.71c-.28-.65-.53-1.33-.79-2-.66-1.61.32-3.16,0-4.68S13.31,104.58,14.46,103.66ZM35.67,89.29c0-.64,0-1.19-.59-1.33s-.82.35-1,.76a6.91,6.91,0,0,0-.81,2.47,4.27,4.27,0,0,1-1.67,3.29c-.9.6-1,1.75-1.34,2.65-.22.63,1,.81,1.44,1.42a.52.52,0,0,0,.14.19c.7.57,2.29.3,2.3-.48a8.53,8.53,0,0,1,1.18-3.32c.86-2-.56-4,.4-5.65ZM108.19,55.7c-.4,0-.83.09-.87.59-.06.83.59.79,1.13.8.37,0,.89,0,.89-.51,0-.7-.58-.82-1.15-.88ZM18,118.32a.48.48,0,0,0,.36-.49c0-.33-.21-.59-.56-.46-.13.06-.22.37-.23.57a.34.34,0,0,0,.33.38.17.17,0,0,0,.1,0Z"/><path class="cls-13" d="M85.68,146.37c-1.22,1-.88,2.77-1.93,3.85-1.08-.39-1.36-1.45-1.8-2.34a17.6,17.6,0,0,0-3,1c-.9.3-1.54.64-2.33,0-.07-.06-.33,0-.45.11-1.19.86-2.62.75-4.15.8.89,1,.92,1.3.3,1.36-1.08.11-1.91.77-2.93,1-2.1.51-2.19.72-1.81,2.76.26,1.42.24,1.46-1.19,1.56a5.79,5.79,0,0,0-3,.66c-.94.59-2.35.31-3.12,1.4-2.15-.66-4.23.67-6.37.25l0-.22c0-.19,0-.39-.24-.39-.09,0-.17.16-.25.25l-.63.13c-.91-.37-1.71.18-2.57.28a1.13,1.13,0,0,0-1,1.54c.39,1.37,1.34,2.58,1.21,4.11,0,.06.26.14.4.22l-.05,2.21c-.2.23-.51.43-.59.7a20.73,20.73,0,0,0,.21,6.09c.71-.71.34-2,1.34-2.57.74.3.67.9.69,1.44s.15,1.1.83,1.24l.19,1.77a2.13,2.13,0,0,0-.42.23c-.43.34-1.18.22-1.39.83a5.07,5.07,0,0,0-.41,2.07c.17,1.19,1.15,1.34,2.19,1.3.87,0,1,.62,1,1.32a3,3,0,0,1-.74,2.2c-1.27.83-.62,1.57-.19,2.36s.89,1.4,1.32,2.06c1.58-.81,3.19-1.4,3.37-3.38a.5.5,0,0,1,.24-.4c1.21-.59,1.09-2.56,2-2.78,2.3-.56-.1-2.19,1-3,.52-.42.24-1.55.76-2.2,1.92-2.44,3.22-5.09,2.88-8.31-.09-.86.51-1.28,1-1.79.27-.28.58-.31.77,0,.63,1.17.82.16.92-.23.49-1.78-.15-3.7.61-5.47l-.46-.13.11-.85c.28-.15.58-.45.84-.42,2.35.3,3.28-1.47,4.32-3a5.54,5.54,0,0,0,1.07-2.09,2.12,2.12,0,0,1,2.07-1.63,1.62,1.62,0,0,1,1.67,1.57v.1c0,.69.75,1,.68,1.82-1.88.3-2.3,1.58-2,3.28a17.84,17.84,0,0,1-.84,3.21,57.73,57.73,0,0,0-3.63,9.24c-.63,2.2-1.69,4.28-1.87,6.61-1.2.55-1,2.36-2.48,2.78-.18.05.44,1.71-.74,2.18.14,2.5-2.08,3.68-3.13,5.52-1.32,2.32-2.75,4.57-4.17,6.83a1.34,1.34,0,0,0-.14,1.12,1,1,0,0,1-.47,1.2c-1.82,1-2.69,2.84-3.63,4.55A2.27,2.27,0,0,1,54,203.65h-.66a2.16,2.16,0,0,1-1.22-.59c-1-1.1-1.36-.4-1.68.53-1.56-.43-2.31-1.87-3.42-2.83-1.41-1.22-3.06-2.22-4.08-3.86-.42-1.25-1.72-2.12-1.16-3.84.31-.94-1.1-1.57-1.74-2.34.5-1.33-.25-2.43-.74-3.54a5.48,5.48,0,0,0-3.79-3.4l.18,1v3.34c-.29.1-.64.34-.88.27a13.84,13.84,0,0,1-7.24-4.6,3.52,3.52,0,0,1-.49-1.58,36.52,36.52,0,0,0-2.89-9l-.41-.51v-1.6c1-.52.68-.94-.09-1.33,0-.37-.07-.73-.1-1.09a2.67,2.67,0,0,0-.24-1.86,7.43,7.43,0,0,1-1.24-4c.28-.16.68-.49.49-.7-.94-1-.8-2.31-.94-3.54a1.51,1.51,0,0,0-.49-.77c-.78-.77-2.72-.46-2.24-2.42a2.29,2.29,0,0,0-.63-.19H16.85c-1.26-1.12-1-2.89-1.82-4.27-.54-.92-1-1.92-1.61-2.84a40.19,40.19,0,0,1-4.87-10.25,1.72,1.72,0,0,1,2.35-.67l.07,0a5.67,5.67,0,0,0,3.86.48c.43.65,1,.35,1.49.18.7.5,1.66.5,2.25,1.25s1.08.43,1.64-.06.85-1.2,1.53-1c2,.63,3.27-.64,4.74-1.47.81-.25,1.73-.16,2.43-.75,1.07-.13,2.15-.17,2.89-1.18,1.08-1.49,1.1-1.48,3-.42.07.67-.24,1.54.89,1.64.1,2,2.57,1.82,3.22,3.42,0-.94.9-1.35,1.06-2.16a.86.86,0,0,1,1-.75l.1,0c1.25.24,2-.55,3-1.55.31,1.29.66,2.28,2,1.6a.57.57,0,0,1,.46.08c2.4.64,4.85-.09,7.26.27a2.3,2.3,0,0,0,1.57-.49c.49-.31.46-.78.27-1.26,2.42-.48,3-1.33,2.39-3.7a.84.84,0,0,1,.54-1.07l.07,0a2.8,2.8,0,0,1,2.09,0,11.61,11.61,0,0,1,0,1.18c-.38,2.76-.36,2.75.81,5.75a2,2,0,0,1-.35,2.22c-.26.27-.73.36-.7,1,1.27,1.32,3.06,1.74,4.75,2.32,1,.34.63-.59.79-1l.44-.47,0-.48a.51.51,0,0,1,.23-.15c.66.09,1.16,0,.9-.85s-.67-2-1-2.94a4.4,4.4,0,0,1,.27-3.48,10.75,10.75,0,0,0,3,4c.49-1.18,1.06-2.17.74-3.17-.39-1.22.06-2.33,0-3.49a3,3,0,0,1,3-.94,26.71,26.71,0,0,1,3.16.83c-2.21.82-2.58,1.76-1.83,4.41.15.51.3.9.89.92s1.17.12,1.47-.5.54-1.32.82-2a.49.49,0,0,1,.49-.39c.42.49-.1,1.29.7,1.83.74-.86,2.12-.55,3-1.45-.58-.42-1.27-.58-1.22-1.42a1.33,1.33,0,0,0-.92-1.28c.19-.35.37-.71.56-1.07.5-.47,1.17-.94.86-1.71-.44-1.08-.22-2.3-.84-3.32.91-1.07,2.12-.46,3.21-.59.76,1.32,2,1.06,3.11.81a3.25,3.25,0,0,1,2.26,0c0,.34,0,.86.41.86.62,0,.46-.6.52-1l1.45-.24a1.47,1.47,0,0,0,.82,1.44l-.08.55a.54.54,0,0,0-.2.74l0,0c.11.83.23,1.65.35,2.48a1.32,1.32,0,0,0-.31,1.51,2.67,2.67,0,0,1-.43.57,6.76,6.76,0,0,0-3.24,6.18A3,3,0,0,1,86,140.79c-.67.13-1.14.48-.78,1.1C86.16,143.27,85.7,144.83,85.68,146.37Zm-51.84,9.72c.43-.17,1,0,1.35-.32a8.92,8.92,0,0,1-1-3.56c-.1-1.27-.89-1.65-2-1.46a14,14,0,0,1-3.27.47,1.11,1.11,0,0,0-1.18.66c-.34,1.16-1,1.12-2,.85a1.89,1.89,0,0,0-1.81.19c.25.78,1.26.55,1.56,1.31a2.56,2.56,0,0,0,3,1.38,7.15,7.15,0,0,1,3.24.43c.1.89.26,1.71-1.06,2-.9.16-2,.64-.27,1.49.38.18.2.54,0,.79-.44.51-.35,1,.32.94,1.61-.09,1.8,1.11,2,2.16.51,2.89,2,5.28,3.5,7.77a29.87,29.87,0,0,1,2.31-1.9,1.48,1.48,0,0,0,.64-2h0a8.5,8.5,0,0,1,0-4.25c.14-.67,1.52-1.52-.43-1.61a1,1,0,0,1-.1-.65c.83-2.2-.21-4.49.3-6.71a.64.64,0,0,0-.45-.76.59.59,0,0,0-.23,0,.63.63,0,0,0-.6.63,23,23,0,0,1-.1,2.63c-.1.87-1.87,2.47-2.67,2.3-1.45-.3-1.19-1.45-1.1-2.49A1.26,1.26,0,0,1,33.84,156.09Zm17.89,38.1c.81-1.87-.11-3.62-.29-5.39-.06-.59-.62-.71-1.11-.5s-1.42.45-.95,1.3c.76,1.39.25,2.71-.13,4.06a7.8,7.8,0,0,0,2.48.53Zm1.81-47.63c-1.12-.95-2.4-.65-3.62-.57-.58,0-.8.48-.77,1s-.26,1.34.54,1.65a1,1,0,0,0,1.18-.58c.57-1,1.86-.75,2.67-1.5Zm-7,29.36c.22-2.26.18-2.7-.19-3.42s-.83-.67-1.3-.16c-1.11,1.23-.74,2.17,1.5,3.58Zm-3.43-13.81c1.66-.91,2.09-1.85,1.35-2.82a.91.91,0,0,0-1-.35c-.35.1-.55.41-.37.71.45.78-.43,1.5,0,2.46Zm5.2,37.31c-.09-1.23-.14-2.44-1.53-2.87-.3-.09-.61-.2-.83.12a.78.78,0,0,0,0,.88C46.45,198.51,47.44,198.81,48.31,199.42Zm.3-58.3c.06.62,0,1.38.89,1.34a1,1,0,0,0,1-1v-.08a1.46,1.46,0,0,0-1.26-1.5c-.8-.06-.58.74-.65,1.24ZM28.78,164.24c.42-1.06.42-1.06-.36-2.14-.63.83.13,1.41.34,2.14Zm.62,2.57-.18-.38c-.07.12-.19.23-.19.35a1.11,1.11,0,0,0,.16.38Z"/><path class="cls-8" d="M108.68,76.78c-1-.1-1.27.82-1.89,1.21-.17-.09-.34-.12-.42-.23a4.77,4.77,0,0,1-.53-5.37,4.87,4.87,0,0,0,.39-2.32,10.41,10.41,0,0,0,2.83-.36c2.67-.69,3.47-2.13,2.34-4.64-.22-.49-.24-1.1-.72-1.45-.45,0-.5.29-.59.59-.18.62.71,1.34.07,1.78a7,7,0,0,1-2.62,1.09c-1.13.22-2.1-1.57-1.4-2.8.53-.94.42-1.38-.4-2s-.91-1.66-1.77-2.19c1.8-1.48,2.15-1.34,3.22,1.19.42,1,2.55,1.59,3.08.72a7.59,7.59,0,0,0,1.44-2.72A53.9,53.9,0,0,0,112,51.5c0-1.51-.25-1.76-1.7-1.38-1.17.3-1.63.1-1.68-1.13s-1.65-1.11-1.68-2.31c-.32.21-.55.29-.55.36,0,2.25-.14,2.33-2.78,1.28-.38.81-.2,1.26.67,1.65,2.69,1.21,2.65,1.25,2.39,4.26-.11,1.28-.14,2.52-1.37,3.35-.9.59-1.75.91-2.39-.24s-1.32-.52-2-.14a.63.63,0,0,0-.32.83.62.62,0,0,0,.11.17c1.81,1.65,0,3.29-.14,4.87-.1,1-2,.82-2.7-.27a4,4,0,0,1-.32-1.63c-.12-.66-.66-.87-1.2-1-.37-.1-.54.22-.66.53-.27.73-.53,1.39-1.5.67-1.31-1-1.89-2-1.06-2.7,1.61-1.27.64-2.46.42-3.67-.84-.36-1.15.75-2,.36-.17-.64.34-1.46-.38-2.12-.56-.52-.06-1.18,0-1.8.11-1,.7-2.53-.46-2.71-1.5-.24-.5,1.64-1.15,2.4-.37.45,0,1.06.27,1.57a3,3,0,0,1,.49,1.58c0,.31-.07.69-.5.67-.21,0-.55-.15-.59-.3a4.81,4.81,0,0,0-2-2.56,1,1,0,0,0-1.41.09l-.06.07A.8.8,0,0,0,86,53.38a.53.53,0,0,0,.15.08c1.35.36,1.25,1.34,1.38,2.41.18,1.53.23,3.21,2,4.07a.75.75,0,0,1,.24,1l0,0c-.32.49-.68.16-1,0s-.67-.56-1-.11a.88.88,0,0,0,.13,1.1c.34.45.6,1.08,1,1.28,2.55,1.18,1.55,3.48,1.78,5.38,0,.37-.36.49-.7.42a1.6,1.6,0,0,1-.63-.3,4,4,0,0,1-.86-.84,9.24,9.24,0,0,0-2.37-2.65c-1.27-.87.69-2.13-.41-3.07-.35-.11-.47.19-.6.49-.37.84-.91.6-1.21,0-.8-1.51-2.2-2.73-2.18-4.67,0-.95-.5-1.51-1.57-1.09a1.75,1.75,0,0,1-1.4,0c-.94-.48-1.51,0-2,.67-.29.37-.57.93-1.1.44s-1.2-.73-.52-1.55a1.64,1.64,0,0,0,.37-.84c0-.67.34-1.54-.6-1.85a1.26,1.26,0,0,0-1.64.7.6.6,0,0,0-.06.19c-.08.21-.21.4-.33.64-1.22-.38-2.39-.68-1.69-2.4a1.37,1.37,0,0,0-.38-1.33c-1.67-2-.82-4.44-1-6.7,0-.22.08-.57.35-.56,2.57.17.67-1.94,1.4-2.7-1.12-1-.4-1.52.49-2.15s.57-1.93,1.41-2.67c.3-.26-.1-.73-.47-.94-1.12-.64-1.29-1.65-1.34-2.85s-.12-2.72-1.36-3.65a1.28,1.28,0,0,1-.51-1.05,1.56,1.56,0,0,0-1.47-1.59c-.52-.1-1.09-.68-1.55-.15s.22,1,.55,1.35a1.74,1.74,0,0,1,.45,1.77c-.5,1.3.09,2.29.73,3.32,1,1.54,1.33,3.06-.11,4.57a5.51,5.51,0,0,0-1,2.65c-.1.41-.18.84-.71.72a.79.79,0,0,1-.63-.9,8.31,8.31,0,0,1,1-3.15c.46-.6.39-1.08-.44-1.48-1.31-.62-1.46-1.26-.7-2.28.3-.41,1.14-.63.67-1.29a1.32,1.32,0,0,0-1.77-.57l-.11.07c-1.07.89-1.84.4-2.77-.18-1.31-.8-1.72-.59-1.64.89,0,.7.29,1.11-.8,1.19s-1.67,1-1.47,2.4c0,.24.61.57,0,.69-2.08.43-1.13,2-1.08,3,.07,1.52.18,1.43-1.42,1.37-1,0-1.84-.53-2.81-.52-.58,0-1.2.05-1.42.66s.45.66.83.89c.86.51,1.07,1.12.25,1.89a2.83,2.83,0,0,0-.87,2.16c0,.5-.06,1.12-.53,1.26-1.74.52-1.29,1.9-1.39,3.12-.15,1.63.51,3.34-.47,4.89-1-2.15-.56-4.42-.33-6.58a39.25,39.25,0,0,1,.81-5.91,31.49,31.49,0,0,1,3.89-8.94c1.53-2.4,2.94-4.88,5.2-6.72.24-.19.39-.59.72-.37,1.63,1.09,1.64-.66,2.07-1.3a20.34,20.34,0,0,0,1-2.11C63,22,63.72,23.58,64.3,23s-.1-1.44.47-2c.06,0,.12-.14.19-.15,2.26-.39,2.78-2.66,4.23-3.88s2.77-3.08,4.88-3.65a1.8,1.8,0,0,0,.82-.43c1.34-1.59,3.28-2.3,5.07-3,1.37-.53,2.22-2.08,4-1.84,1.45.19,2.78-.51,4.13-.93a10.41,10.41,0,0,1,4.71.06c3.58.52,7,1.4,9.72,4.15a6.09,6.09,0,0,0,3.15,1.6h0a.79.79,0,0,0,.48.93l.44.49c0,.43,0,.85.55,1h0c.34.72.68,1.43,1,2.15,1.69,1.29,2.64,3.3,4.41,4.55A4.33,4.33,0,0,1,114,25c.66,3.75,1.8,7.44,1.78,11.3,0,.78.19,1.44-1,2-1,.49-.65,2.23-.17,3.27.92,2,.68,3.78,0,5.9-.7,2.29-.63,4.86-.84,7.31-.45,5.13-.15,10.37-1.84,15.36-.17.52-.3,1.07-.46,1.6-.31,1-.91.62-1.5.32-.34-1.49-.4-1.47-1.53-1.09s-.92,1.31-1.28,2c.69.42,1.4,0,1.91.46a3.67,3.67,0,0,0,.18,1.14C109.9,75.61,109.41,76.22,108.68,76.78ZM80.78,29a5.62,5.62,0,0,1-.46-2.65c.16-1.23-.53-2.32-.54-3.52a.65.65,0,0,0-.6-.68.58.58,0,0,0-.19,0c-.39.05-.51.36-.55.67a1.71,1.71,0,0,0,0,.95c.69,1.26.18,2.48-.1,3.7-.44,1.91-.47,1.9-2.58,1.93a1.14,1.14,0,0,0-.64.21c-.74.6-1,.44-.8-.47.09-.47,0-.82-.54-.8a.62.62,0,0,0-.64.6.59.59,0,0,0,0,.23,3.68,3.68,0,0,0,.51,1.58c1.28,1.51,1.33,3.27,1.44,5.1a3.69,3.69,0,0,1-.24,2.27A2.58,2.58,0,0,0,74.57,40c.13.7.28,1.55,1.14,1.62s1.2-.65,1.21-1.45a1.67,1.67,0,0,1,1.44-1.84c1.6-.44,1.78-1,.94-2.35-.48-.79-.47-2-1.92-2.12-.37,0-.77-.74-1-1.21-.45-.74-.67-1.47.4-2s1.51-.4,2,.79a7,7,0,0,1,.21.93c.16.58.61.68,1.12.6a.79.79,0,0,0,.71-.86.65.65,0,0,0,0-.2A3.72,3.72,0,0,1,80.78,29Zm30.58,17.72c2.36-.48,2.4-.51,1.08-2.17a1.21,1.21,0,0,1-.16-1.51c1.64-3-.18-5.6-1-8.3a.87.87,0,0,0-1.06-.61l-.1,0c-.61.21-.47.71-.35,1.19.25,1.07.52,2.15.71,3.24a.84.84,0,0,1-.52,1.07l-.11,0a.89.89,0,0,1-1.16-.52v0c-.15-.37-.3-.74-.48-1.09a.82.82,0,0,0-1.14-.47.67.67,0,0,0-.23.92.41.41,0,0,0,.1.13c1.13,1,.13,3.38,2.32,3.79.19,0,.2.39.11.63-.2.57,0,1,.59,1,1,.1,1.08.76,1.07,1.53A1.32,1.32,0,0,0,111.36,46.76Zm-38.9,3.31c1.83.26,3.33-.89,5.07-.84.79,0,1-.93.6-1.69-.28-.55-1-1.2-.92-1.55.71-1.86-1-2.07-1.82-2.77S73.47,43,73.73,44s-.13,1.52-1.07,1.86a4.73,4.73,0,0,0-1.38.91,2.27,2.27,0,0,0-.6,2.4C70.89,49.91,71.56,50.59,72.46,50.07Zm9.2-2.21a15.32,15.32,0,0,0-1.9-.3c-.41,0-.93.25-.53.71.88,1,.16,1.56-.45,2.2a.74.74,0,0,0-.26.85c.15.36.44.4.78.28,1.41-.5,2,.19,1.93,1.48-.07,1,.64,1.58,1,2.35.19.43.44.67.9.48s.9-.28.84-.73c-.16-1.35,1.56-2.93-.54-4.1-.41-.23-.59-1.15-.61-1.76-.06-1.28-.7-2.45-.6-3.76,0-.44,0-1-.8-1A6.18,6.18,0,0,0,81.66,47.86ZM99.76,53c-1-.69-1.86-1.41-1.7-2.73a1.86,1.86,0,0,0-1-2c-1-.5-.78.75-1.29,1a1.2,1.2,0,0,1-.45.15c-.9.07-1,.52-.73,1.29.2.51.15,1.16.45,1.58,1,1.4.65,3,1,4.55.08.4-.43,1,.31,1.13s.79-.41,1-.81c.74-1.41,1-3.06,2.41-4.16Zm2.79-17c-.22,0-.4.19-.58.49-.64,1.07-.75,2.94-.09,3,2.08.27-.48,2.2,1,2.54a2.52,2.52,0,0,1,1.5,1.09,1,1,0,0,0,1.39.26l.09-.07a1,1,0,0,0,.19-1.3c-.94-1.09-.74-2.37-.83-3.63a2.89,2.89,0,0,0-2.67-2.38Zm3.83-3.61c-.74-.33-.16-1.41-1.09-1.24a11.78,11.78,0,0,0-2.74.72c-.78.34-.71,1.19-.56,1.91s.8.78,1.33.6a2,2,0,0,1,2,.25c.74.51,1.42.51,1.15-.79-.17-.81.39-.66.88-.51s1.18.36,1.53-.19a2.44,2.44,0,0,0,0-2.29,1,1,0,0,0-.95-.63c-.91,0-1.17.67-1.27,1.45a3.47,3.47,0,0,1-.28.76Zm-9.1,3.45c-.77,2.69.62,5.28-.09,7.88a.49.49,0,0,0,0,.24,1.12,1.12,0,0,0,1.14,1c.78,0,.78-.73.63-1.27-.23-.85-.25-1.76-.51-2.55-.53-1.71.24-3.71-1.14-5.3Zm7.59,11.15c.36-1.4.95-2.2,2.35-1.65.28.11.56-.21.68-.52a.43.43,0,0,0-.17-.57l0,0c-1.07-.43-2,.22-2.92.53-.73.25-.52,1.19.1,2.23ZM99.44,35.75c-.9,1.63,0,3.09.33,4.62a6.87,6.87,0,0,0-.33-4.62ZM53.23,38.26l-.4-.17c-.06.13-.19.29-.15.39s.24.12.38.18a3.7,3.7,0,0,1,.17-.4Z"/><path class="cls-8" d="M49.19,56.15c.67,0,1.25-.08,1.36-1s.34-1.71.51-2.56a.74.74,0,0,1,.76-.72.73.73,0,0,1,.29.07c.5.16,1.36.39,1.1,1-.85,2,.59,2.68,2,3.42-1.33,1.19-1,2.57-.6,3.88.13.5.71.65,1.16.2.73-.74,1.65-.42,2.5-.48.38,0,.86-.08,1.07.33a1,1,0,0,1-.4,1.26,5.69,5.69,0,0,0-2.71,5.65,2.14,2.14,0,0,1-.23.64c-.71.17-1.26-.25-1.88-.34-.23,0-.63-.2-.67-.14-.72,1.23-2.61.86-3.16,2.22s-1.89,2.17-1.81,3.8a.79.79,0,0,1-.75.81.82.82,0,0,1-.46-.13.66.66,0,0,1-.09-1.18,1.7,1.7,0,0,0,.41-1.55.68.68,0,0,0-.53-.7c-.46-.1-.73.17-.93.56a1.4,1.4,0,0,0-.11.92c.21,1.91-1.49,2.84-2.26,4.25-.37.68-1.28.37-2,.12-.92-.32-1.54,0-1.14,1s-.11,1.61-.51,2.4c-.56,1.13-1.49,2.06-1.71,3.39-.11.7-.74,1.14-1.55,1.46A2.71,2.71,0,0,1,37,81.94c.68-.85.39-2,1.2-2.83.26-.25.15-.76-.15-.78-.91-.06-.8-1.15-1.62-1.41-1.75,3.15-3.86,6.06-5.25,9.44s-3,6.53-4.32,9.89c-.37,1-.88,2,.51,2.64a.45.45,0,0,1,.31.58.38.38,0,0,1-.09.18,41.33,41.33,0,0,0-2.37,4.93,3.23,3.23,0,0,1-1.36,1.62c-1.34.52-1.19,1.52-1.19,2.55s.2,2-1.17,2.27c-.49.11-.66.63-.74,1.14a2.63,2.63,0,0,1-.32,1.13c-.65.75-.19,2.53-1.94,2.22-.7-.12-1.43-2.81-1.1-3.73.11-.3.36-.6.35-.88-.07-2,.23-3.71,2.74-4.1.75-.11.6-.93.37-1.6s-.53-1.2-1.32-1-1.86.86-2.33-.58c0-.05-.29-.06-.41,0-.41.18-.9.7-1.2,0a3.28,3.28,0,0,1-.53-2.28c.29-.93,1.18.06,1.77-.56-1-1-.66-2.13-.32-3.24.24-.76.75-.69,1.27-.19s.33,1.39,1.17,1.78a1.57,1.57,0,0,0,0-2,3.42,3.42,0,0,1-.67-1.73c-.21-1.48-1.29-1.88-2.49-.91-.48.39-.81.87-1.53,1-1.48.3-2.22,0-2.64-1.46-.17-.61-.08-1.22-.88-1.51a5.85,5.85,0,0,0-3.28-.35.93.93,0,0,0-.73,1.08.82.82,0,0,0,.1.26C7.89,95.3,6.61,96.6,5.94,98a23.15,23.15,0,0,0-1.71,3.92,1.38,1.38,0,0,1-.87.78,30.56,30.56,0,0,1,1.79-9.32,59,59,0,0,1,3.61-8.27,14.08,14.08,0,0,1,3-4.5,16.11,16.11,0,0,0,2-2.36,38.22,38.22,0,0,1,7.74-7.66A45.29,45.29,0,0,1,32,65a64,64,0,0,1,6.47-2.35,5.5,5.5,0,0,1,2.35-.24c-.2.56-.76,1.31.57,1,.46-.1.94-.15,1.41-.23h0c.08.33-.18.74.24,1l.21-.64c1.47.7,2.83,1.67,4.55,1.68,1,0,1.43,1.81,2.78,1.06,1,.84,1.3-.16,1.8-.66a2.08,2.08,0,0,0,2.18-1.13.76.76,0,0,0-.17-1.06,2,2,0,0,0-2.51.78C50.93,61.64,49.41,59.12,49.19,56.15ZM28,74.86h0c0,.66,0,1.34.89,1.43s1,.82,1,1.57A3,3,0,0,1,29.05,80c-.86.91.12,1.33.57,1.66.66.48,1-.14,1.17-.7a10.77,10.77,0,0,1,2.91-4.77c.69-.67,1.55-1.09,2.18-1.82s1.56-1.44.87-2.67a1,1,0,0,1,.12-1.13c.79-1,1.56-2,2.44-2.93.53-.55,1.07-.36,1.09.45a8.86,8.86,0,0,1-.24,3.55.77.77,0,0,0,.43,1c.34.19.59,0,.75-.3s.16-.72.57-.63.42.58.33,1c-.12.57.17.72.65.62,1.33-.29,1.86-1.47.82-2.23a4.33,4.33,0,0,1-1.83-4.07c0-.92-.57-1.06-1.28-1.39-1.17-.54-2.54,0-3.63-.94-.87-.75-1.27-.14-1.32.78a15.4,15.4,0,0,1-.15,2.14.92.92,0,0,1-1.11.67c-.47-.08-.49-.47-.52-.91-.13-1.61-.68-1.87-2-1-.84.54-1.44,1.47-2.68,1.33s-1.75.61-1.69,1.78c0,.94-.51,1.19-1.22,1.7-1.2.84-3.15,1.08-3.24,3.15,0,.44-.57.48-.93.63a3.24,3.24,0,0,0-1.36.94,27.43,27.43,0,0,1-5.53,4.73c-.38.27-.65.47-.38.9a.67.67,0,0,0,.9.33l.1-.05c1-.76,2.46-.82,3.06-2.16a.62.62,0,0,1,.81-.36.52.52,0,0,1,.19.11c.45.35,0,.68-.13,1-.66,1.31-2.17,2.2-2,3.94a.7.7,0,0,1-.46.47c-2.12.13-1.77,1.84-2.12,3.12,2.43.79,3.1.52,4.08-1.59.13-.28.16-.62.3-.9.8-1.62,2-3.24,3.59-3.66,1.79-.48,2.38-1.72,3.24-2.9.49-.66.8-1.42-.17-2s-.45-1,.18-1.43A2.93,2.93,0,0,1,28,74.86ZM13.84,88.51c-.25.86-.6,1.62.35,2.13a.45.45,0,0,0,.43-.08c.53-.72-.12-1.27-.34-1.88C14.31,88.59,14.16,88.58,13.84,88.51ZM56.43,62.27c.06-.14.19-.3.15-.4s-.24-.12-.38-.18c-.05.14-.19.3-.15.39s.26.08.38.14ZM12,90.64c-.14-.06-.3-.19-.4-.15s-.12.24-.18.38c.14,0,.3.19.39.15s.13-.3.19-.43Z"/><path class="cls-8" d="M3.38,103.11a2.46,2.46,0,0,1,1,2.73c-.2.74-1.15,1.44.24,2,.06,0,.11.34,0,.41-1.38,1.46-.2,3.42-1,5-.4.77.09,1.55.52,2.24A1.1,1.1,0,0,0,5.6,116a1,1,0,0,0,.64-1.17,1.54,1.54,0,0,0-.08-.19A7,7,0,0,1,6,111.8c0-.7.34-1.3,1.1-1.32s1.83.37,1.68,1.28c-.29,1.79,1.13,3.12,1,4.77-.07,1.15,1.61.9,1.38,1.39a2,2,0,0,0,.33,2.19c.3.47,1,.68,1.6,1s1.17.44,1.84.68a12.85,12.85,0,0,1-1,3.15c-.75,1.22-.37,1.84,1.11,2.29.5.15.9.26.89.88,0,.79-2.34,4.85-3.06,5.19a4.23,4.23,0,0,1-1.17.16.27.27,0,0,0-.14-.19c-2.67-1.09-4-3.7-6-5.53a6,6,0,0,1-1.47-3.91c-.15-3-1.08-5.77-1.49-8.67a9.35,9.35,0,0,1-.17-3.76,13.29,13.29,0,0,0-.26-5.29c.42-.09,1.07.19,1.1-.54,0-.35-.43-.39-.74-.44C2.61,104.35,2.31,103.44,3.38,103.11Zm2,14.14c-.78,1.35-.8,1.38-.47,1.67.16.14.52.29.63.21.64-.45.39-1.06.19-1.64,0,0-.14-.08-.37-.24Z"/><path class="cls-8" d="M60.6,21.56c-.07-2.13,1.17-3.91,1.65-5.89A1.09,1.09,0,0,1,63.8,15c1.22.76,2.46.18,3.67.35-.51,2-1.32,3.71-3.74,3.9-.65.06-.84.69-1.06,1.17A1.82,1.82,0,0,1,60.6,21.56Z"/><path class="cls-8" d="M68.15,15.28a13.76,13.76,0,0,0,.11-1.43,2.46,2.46,0,0,1,2-2.87l.21,0a3.9,3.9,0,0,0,.46-.12c1.56-.61,1.56-.61,1.79,1.09a15.94,15.94,0,0,0-2.86,3C69.5,15.51,68.9,16.12,68.15,15.28Z"/><path class="cls-12" d="M52,64.33a2,2,0,0,1,2.51-.78.76.76,0,0,1,.17,1.06,2.08,2.08,0,0,1-2.18,1.13.63.63,0,0,1-.06-.38.68.68,0,0,0-.43-.57A1,1,0,0,1,52,64.33Z"/><path class="cls-9" d="M16.31,137.77c-.52.17-1.06.47-1.49-.18.33-.24.3-.59.3-.92.35-.8,1.08-.78,1.78-.82v.85l-.09.1-.11.09Z"/><path class="cls-4" d="M42.91,63.31c-.47.08-.95.13-1.41.23-1.33.28-.77-.47-.57-1C41.71,62.51,42.65,62.05,42.91,63.31Z"/><path class="cls-12" d="M2.53,105.09c.31,0,.76.09.74.44,0,.73-.68.45-1.1.54A.93.93,0,0,1,2.53,105.09Z"/><path class="cls-6" d="M6.84,134.73c-.08-.11-.24-.22-.23-.32a.3.3,0,0,1,.28-.3.28.28,0,0,1,.18.06.42.42,0,0,1,.14.38C7.17,134.65,7,134.67,6.84,134.73Z"/><path class="cls-4" d="M43.31,63.66l-.21.64c-.42-.24-.16-.65-.24-1Z"/><path class="cls-8" d="M59.77,22.16l.83-.59C60.58,22.13,60.55,22.68,59.77,22.16Z"/><path class="cls-8" d="M52,64.79a.68.68,0,0,1,.43.57Z"/><path class="cls-8" d="M73.1,77.68c1.18-1.52,1.29-1.56,2.53-.75.26.17.51.46.79.51,3.34.54,5,3.37,7.26,5.35.54.47,1,1.08,1.73,1.22a4.37,4.37,0,0,1,3.08,2.38c.91,1.55,2.46,2.47,3.85,3.53.63.47,1.28.35,1.37-.57.07-.69.62-1.33.27-2.09a.48.48,0,0,1,.33-.75c.46-.11.75.14.84.61v.23c.61,2.27,1.27,2.49,2.9.94a3.47,3.47,0,0,1,1.38-.91c2.07-.57,2.51-2.61,3.67-4a.72.72,0,0,0,0-.9c-.27-.34-.54-.14-.8.08s-.57.38-.77,0a.92.92,0,0,1,0-.69c.49-1.07,1.19-1.24,2.22-.55,1.82,1.21,3.24.8,3.86-1.25.27-.85.81-.86,1.46-.87.15,2.19.39,4.43-2.24,5.48-.38.15-.49.39-.35.71a6,6,0,0,1,.23,2.34c-1.66.88-1.3,2.81-2.12,4.15s-1.1,1.59-2.2.84c-.6-.41-1-.76-1.53,0a.55.55,0,0,1-.74.21l-.08-.06c-1.42-1.1-2.69-.33-4,.31l-3.33-.48A35.94,35.94,0,0,0,88,89.62a6.31,6.31,0,0,0-1.21-1.1,7.11,7.11,0,0,1-3.9-3.85A2.94,2.94,0,0,0,81,83.07,24.4,24.4,0,0,0,79.46,81C77.82,79,75.94,77.38,73.1,77.68Z"/><path class="cls-14" d="M96.12,93.14c1.28-.64,2.55-1.41,4-.31a.54.54,0,0,0,.76-.07l.06-.08c.56-.72.93-.37,1.53,0,1.1.75,1.42.4,2.2-.84s.46-3.27,2.12-4.15l.42.24c-.34,2.46-1.5,4.67-2.14,7a2,2,0,0,1-2.4,1.5l-.23-.07A7.22,7.22,0,0,1,101,95.15a1.92,1.92,0,0,0-2.33-.94C98,94.41,96.5,94.51,96.12,93.14Z"/><path class="cls-12" d="M109.18,73.51c-.51-.45-1.22,0-1.91-.46.36-.72.18-1.66,1.28-2s1.19-.4,1.53,1.09A1.46,1.46,0,0,0,109.18,73.51Z"/><path class="cls-8" d="M113.49,71.51a2.85,2.85,0,0,1,.83,1.61c.15.69,0,1.22-.87,1.3C113.47,73.41,113.48,72.44,113.49,71.51Z"/><path class="cls-7" d="M108.2,17.51c-.35-.72-.69-1.43-1-2.15.61-.13,1,.34,1.42.59C108.71,16.51,108.8,17.1,108.2,17.51Z"/><path class="cls-5" d="M92.46,131.06c-.12-.55-.23-1.09.31-1.51a1.47,1.47,0,0,1,.21.39l-.09.5Z"/><path class="cls-5" d="M86.49,146.32l.32-.17-.18.32Z"/><path class="cls-3" d="M16.88,155.1H18.3a2.29,2.29,0,0,1,.63.19c-.48,2,1.46,1.65,2.24,2.42a1.51,1.51,0,0,1,.49.77c.14,1.23,0,2.5.94,3.54.19.21-.21.54-.49.7C19.69,160.64,18.31,157.88,16.88,155.1Z"/><path class="cls-7" d="M70.22,178.11c.18-2.33,1.24-4.41,1.87-6.61a57.73,57.73,0,0,1,3.63-9.24,17.84,17.84,0,0,0,.84-3.21,21.45,21.45,0,0,1,2-1.62c1-.61,1.76-1.69,3.14-1.42l-.72,1.5a5.52,5.52,0,0,0-1.6,2.35,147.45,147.45,0,0,1-7.92,16.83,2.55,2.55,0,0,0-.31,1.38Z"/><path class="cls-9" d="M53.31,203.61H54l-.12.93-.7-.21A2.62,2.62,0,0,0,53.31,203.61Z"/><path class="cls-5" d="M23.69,169.69c.77.39,1.11.81.09,1.33Z"/><path class="cls-5" d="M23.75,172.62l.41.51c-.1.07-.26.22-.29.2C23.61,173.14,23.75,172.87,23.75,172.62Z"/><path class="cls-5" d="M53.31,203.61c-.05.26-.11.51-.16.77a3,3,0,0,1-2.52-.3c-.07-.18-.15-.35-.22-.53.32-.93.72-1.63,1.68-.53A2.16,2.16,0,0,0,53.31,203.61Z"/><path class="cls-1" d="M52.18,210.51c.08.07.23.16.23.23s-.14.18-.22.25-.16-.09-.15-.13A2.13,2.13,0,0,1,52.18,210.51Z"/><path class="cls-5" d="M96.14,124.32c-.38.19-.45.59-.63.91-.39.25-.74.58-1.25.52a3.43,3.43,0,0,0,.43-1.47c.41-.23.44-.65.53-1,.82-1.18.26-2.51.44-3.76.81-.86,1.91-1.52,1.89-2.91a3.74,3.74,0,0,0,.75-1.84,2.78,2.78,0,0,0,.77-2.24,3.27,3.27,0,0,0,.87-2.58,2.76,2.76,0,0,0,.51-1.44h0l.44.06a2.07,2.07,0,0,1,.28,2.14,2.53,2.53,0,0,0-1.08,2.22c.18,1.06-.35,1.81-.56,2.69a4.29,4.29,0,0,0-.52,2.43c-.53.38-1.07.74-1,1.52-.54.67-.43,1.53-.67,2.28C96.31,122.28,96.39,123.39,96.14,124.32Z"/><path class="cls-4" d="M99,118a4.29,4.29,0,0,1,.52-2.43c1-.42,1.77-.16,2,.84s-.57,1.33-1.38,1.5A10.94,10.94,0,0,1,99,118Z"/><path class="cls-9" d="M101.2,110.65a2.07,2.07,0,0,0-.28-2.14c.42-.62.93.1,1.37-.08a10.39,10.39,0,0,1,.06,1.58C102.31,110.72,101.79,110.81,101.2,110.65Z"/><path class="cls-4" d="M105.42,116a3,3,0,0,1-1.78-.72A1.5,1.5,0,0,1,105.42,116Z"/><path class="cls-7" d="M99.94,109.92a3.27,3.27,0,0,1-.87,2.58,4.81,4.81,0,0,0-.6-.4c-1.21-.66-2.39-1.31-1.83-3.07a1.16,1.16,0,0,0-.7-1.38c-1.9-.77-3-2.49-4.62-3.62l.32-.36,2.58,1.18c1.65.74,3.25,1.39,5.17.74,1.44-.49,1.64-.5,1.61-2,0-.83-.44-1.18-1.1-1.61-1-.65-2.51-.67-2.92-2.14l1.56-.49c.18.2.31.6.65.17l-.62-.21a1.12,1.12,0,0,1,.06-.46c1.88-2.63.7-2.69,3.73-1.41a13.82,13.82,0,0,0-.09,4.8c.26,1.71-.71,3.46-1.41,5.11a2.78,2.78,0,0,0-.38,1.09h0a1.07,1.07,0,0,0-1.11,1C99.31,109.84,99.63,109.89,99.94,109.92Z"/><path class="cls-9" d="M102.36,97.51c-3-1.28-1.85-1.22-3.73,1.41-.08.11,0,.31-.06.46h0L97,99.87c-1.34,0-1.19-1.06-1.32-1.91.34-.91,1.15-1,2-1.09a.83.83,0,0,0,.73-.81c0-.5-.45-.61-.79-.77-.54-.27-1.07-.35-1.36.38-.08.19-.18.57-.44.33-1.1-1-3.13-1.2-3-3.33l3.33.48c.38,1.38,1.83,1.27,2.53,1.15a1.92,1.92,0,0,1,2.33.94,7.22,7.22,0,0,0,1.43,1.21C102.39,96.78,102.38,97.12,102.36,97.51Z"/><path class="cls-9" d="M35.67,184.72l-.18-1a5.48,5.48,0,0,1,3.79,3.4c.49,1.11,1.24,2.21.74,3.54C38.31,188.92,37.13,186.7,35.67,184.72Z"/><path class="cls-3" d="M81.75,156c-1.38-.27-2.16.81-3.14,1.42a21.45,21.45,0,0,0-2,1.62c-.3-1.7.12-3,2-3.28.07-.79-.63-1.13-.68-1.82a1.62,1.62,0,0,0-1.57-1.67h-.1a2.12,2.12,0,0,0-2.07,1.63A5.54,5.54,0,0,1,73.07,156c-1,1.53-2,3.3-4.32,3-.26,0-.56.27-.84.42a7,7,0,0,1-.79-.85c-.54-.75-1.14-.23-1.7-.1-.39.08-1,.57-.76.74,1.15,1,.17,1.95.08,2.88,0,.53-.12.88.41,1.17.69.37,1,0,1.31-.53.44-.82.9-1.64,1.34-2.46l.46.13c-.76,1.77-.12,3.69-.61,5.47-.1.39-.29,1.4-.92.23-.19-.34-.5-.31-.77,0-.49.51-1.09.93-1,1.79.34,3.22-1,5.87-2.88,8.31-.52.65-.24,1.78-.76,2.2-1,.84,1.35,2.47-1,3-.9.22-.78,2.19-2,2.78a.52.52,0,0,0-.24.4c-.18,2-1.79,2.57-3.37,3.38-.43-.66-.92-1.33-1.32-2.06s-1.08-1.53.19-2.36c.54-.36.71-1.39.74-2.2s-.11-1.34-1-1.32-2-.11-2.19-1.3a5.07,5.07,0,0,1,.41-2.07c.21-.61,1-.49,1.39-.83a2.13,2.13,0,0,1,.42-.23c.34-.22.46,1.11.9.14.23-.51.41-1,.62-1.55a30.62,30.62,0,0,0,2.65-9.07c.07-.81.13-1.73-.86-1.83s-.73.92-.87,1.51c-.39,1.64-.16,3.61-2.38,4.25-.11,0-.93.76,0,1,1.39.31,1.46.82.63,1.92-.39.52-.4,1.36-.92,1.89-.68-.14-.81-.65-.83-1.24s0-1.14-.69-1.44c-1,.55-.63,1.86-1.34,2.57a20.73,20.73,0,0,1-.21-6.09c.08-.27.39-.47.59-.7a1.48,1.48,0,0,1,.76,1.55l-.12.13.1-.14a2.92,2.92,0,0,0,2.35-2c.49-1-1-.91-1-1.63,0-.15-.14-.28-.21-.41a3.09,3.09,0,0,1,.37-2.78c.48-.64.73,1.44.84.06a17.18,17.18,0,0,1,.09-2.87c2.14.42,4.22-.91,6.37-.25.77-1.09,2.18-.81,3.12-1.4a5.79,5.79,0,0,1,3-.66c1.43-.1,1.45-.14,1.19-1.56-.38-2-.29-2.25,1.81-2.76,1-.25,1.85-.91,2.93-1,.62-.06.59-.39-.3-1.36,1.53,0,3,.06,4.15-.8.12-.09.38-.17.45-.11.79.68,1.43.34,2.33,0a17.6,17.6,0,0,1,3-1c.44.89.72,1.95,1.8,2.34-.06.38,0,.91-.2,1.12C82.19,152.63,82.22,154.41,81.75,156Zm-.25-3.26c0-.07-.31-.19-.61-.13-.59.1-1.32.1-1.39.95,0,.4.34.5.64.54C80.88,154.2,81.36,153.89,81.5,152.75ZM62.16,164a2.37,2.37,0,0,0-.78,2.48A2.94,2.94,0,0,0,62.16,164Zm-6-2.67a.23.23,0,0,0,.23.23l.09,0c.06,0,.15-.13.13-.17a1.69,1.69,0,0,0-.19-.32ZM51.72,170h.12v-.18Z"/><path class="cls-7" d="M107.19,15.37c-.53-.13-.54-.55-.55-1a.74.74,0,0,1,.59.86A.57.57,0,0,1,107.19,15.37Z"/><path class="cls-2" d="M106.2,13.9a.79.79,0,0,1-.48-.93A.7.7,0,0,1,106.2,13.9Z"/><path class="cls-7" d="M94.69,124.28a3.43,3.43,0,0,1-.43,1.47A22.54,22.54,0,0,0,93,129.94a1.47,1.47,0,0,0-.21-.39c-.12-.83-.24-1.65-.35-2.48a.77.77,0,0,0,.16-.79,3.47,3.47,0,0,1,.08-.55C93.44,125.39,93.76,124.41,94.69,124.28Z"/><path class="cls-4" d="M95.66,98c.13.85,0,1.89,1.32,1.91.41,1.47,1.91,1.49,2.92,2.14.66.43,1.08.78,1.1,1.61,0,1.48-.17,1.49-1.61,2-1.92.65-3.52,0-5.17-.74l-2.58-1.18c-.17-2.13-1.7-3-3.44-3.66a.79.79,0,0,0-.88.1.72.72,0,0,0-.15.87,4.77,4.77,0,0,0,4.15,3c1.59,1.13,2.72,2.85,4.62,3.62a1.16,1.16,0,0,1,.7,1.38c-.56,1.76.62,2.41,1.83,3.07a4.81,4.81,0,0,1,.6.4,2.77,2.77,0,0,1-.77,2.24c-.53-.15-1.06-.32-1.57-.52-1.94-.85-3.88-1.71-5.8-2.6-.45-.2-.92-.44-1.29,0a1.16,1.16,0,0,0,.12,1.66.08.08,0,0,0,0,0,6.75,6.75,0,0,0,1.16.82,12.91,12.91,0,0,1,2.75,1.83c1.2,1.33,2.44,1.16,3.84.6,0,1.39-1.08,2-1.88,2.91a8.26,8.26,0,0,1-4.35,1.3c.45-1.3,1.84-1.07,2.72-1.68.43-.3.79-.62.46-1.14s-.69-.25-1.07-.1c-2.34.9-3,.74-4.45-1-1-1.27-1.51-1.38-3.2-.82-.45.15-.92.21-1.38.34-1.06.3-2.16.9-2.81-.64-.14-.33-.49-.33-.82-.2a2.7,2.7,0,0,1-1.86,0c-1.73-.47-3.32.25-5,.54.51,2,3,1.09,3.55,2.79.21-.09.49-.13.63-.28.8-.87,1.65-.74,2.77-.62,1.68.17,2.63,1.33,3.9,2l-.12,1a2.08,2.08,0,0,0-1,.85,4.74,4.74,0,0,1-1.19,0c-1.59-.37-3.4.49-4.82-1.14-.57-.66-1.82-.35-2.74-.11-.62.16-.77.75-.76,1.35-.31,0-.76,0-.74-.4.07-1.24-.46-1.15-1.54-1.29-1.52-.2-2.49.72-3.74,1.1a15.37,15.37,0,0,0-.62-1.64c-.15-.29-.43-.6.08-.64,1.71-.15,1-1.33.58-1.81s-1.2-.52-2,.08c-2.08,1.52-4.7,2.05-6.87,3.55-1.13.78.41,1.53-.4,2.1-.06,0,.22,1.57.75,1.37s2.3,1.12,1.66-1c-.12-.42.55-.45.94-.42.64,0,.49.45.38.85s-.49.68-.11,1.08v.87a18.58,18.58,0,0,1-2.36,0,3.81,3.81,0,0,0-4.27,1.94c.56.47,1.52-.52,1.93.51-.44.47-.49,1.23-1.12,1.57a1.84,1.84,0,0,0-1.72-.54c-1.93.54-4,.34-5.86,1.3a1.16,1.16,0,0,1-1.05-.39c-1.63-2.08-2.38-2-3.79.25a2,2,0,0,1-2.57.89c-1.56-1.16-2.61-.48-3.77.44a5.23,5.23,0,0,0-1.89.1,2.24,2.24,0,0,1-2.76-.75,7.83,7.83,0,0,1,5.51-4.28c1.47-.27,2.82-.36,4.06-1.31a1.76,1.76,0,0,1,1.81-.18c1.63,1,2.82-.41,4.21-.66a.86.86,0,0,0,.63-1l0-.1c-.2-.61-.72-.53-1.18-.35a3.44,3.44,0,0,1-3,.13c-1.72-1.19-3.7-1.33-5.58-1.83-1.17-.31-1.32-.86-1.12-1.82l.92-.13c.18.13.47.41.52.38,1.2-1,2.79-1.65,3-3.57-.89-.27-2,.1-2.5-1a4.39,4.39,0,0,0-.08-1,.89.89,0,0,0-.37-1v-.87a3.88,3.88,0,0,1,.65-1.24c1-.84,1.42-1.62.39-2.77a.82.82,0,0,1,.21-1.13l.17-.08c.78-.42,1.57.68,2.27.06.94-.82-.84-1.48-.25-2.34.09-.13.12-.3.21-.43.6-.8.56-1.8.78-3,.54,1.72.14,3.29,1.07,4.57.29.4-.72,1.16.2,1.38.68.16.83-.62,1.07-1.1a5.87,5.87,0,0,0,.76-1.74c.38-2.64,3.32-2.69,4.45-4.54,1,.49,1.61,0,2.12-.87.18-.29.58-.21.89-.09s.87.38,1.31.57a.8.8,0,0,0,1.09-.29,1.42,1.42,0,0,0,.08-.18c.19-.51-.23-.67-.63-.78a2,2,0,0,1-1.14-.63c-.19-.88.73-1.28.67-2C54.7,95,53,94,51.13,96c.37-2.74,2.8-3.84,3.09-6.1a6.22,6.22,0,0,0,2.06.23c.19.78-.17,1.73,1.11,2.06s2.63.33,3.82,1.14c.54.36,1.42-.07,1.68-.87S62.67,91.27,62,91c-.46-.22-1.17-.08-1.3-.83,1.16.05,1.53-1.3,2.61-1.45a1.25,1.25,0,0,0,1.11-1.32,1.36,1.36,0,0,0-1.17-1.53h-.23a.62.62,0,0,0-.5-.46c-.48-.11-1.08-.31-.82-.88.44-1,.82-2.15,2.3-1.93-.08.36-.49.65-.15,1.21.84-.21,1.75-.4,2.63-.68,1.42-.45,1.41-.48.74-2.14a8.6,8.6,0,0,1,5.68-2.85,5.18,5.18,0,0,0,2.87,2.37c1.74.84,3.15,2.43,5.26,2.49a2.94,2.94,0,0,1,1.88,1.6,7.11,7.11,0,0,0,3.9,3.85,6.31,6.31,0,0,1,1.21,1.1c-.84,1.08-2.26.3-3.17.81-.1.61.27.69.46.92,1,1.14,2.57,1.51,3.59,2.61a22.89,22.89,0,0,0,4.5,3.45A2.81,2.81,0,0,0,95.66,98Zm-19.59,3.38c0,.56-.09,1.26.71,1.25a18.1,18.1,0,0,1,3.49.68,2.46,2.46,0,0,0,2.47-1,1.37,1.37,0,0,0-.91-2.41A16.33,16.33,0,0,1,77.19,99c-.5-.14-1-.11-1.21.43-1-.14-1.76-1.5-3-.85A5.15,5.15,0,0,0,76.07,101.33Zm-10.76,12.3c.12.6,0,1.31.85,1.55a20.43,20.43,0,0,0,6.23,1.25c.2,0,.55-.16.57-.29.17-1.16,1.18-1.41,2-1.9.58-.37.41-.78.05-1.18a1.28,1.28,0,0,0-1.46-.46c-1.89.57-3.87.32-5.8.57-.38-.91,1.34-2-.38-2.86a7.46,7.46,0,0,0-3.12-.91c-1.43-.06-1.72.81-2,1.82-.37,1.2.46,1.5,1.34,1.78C64.14,113.19,64.73,113.42,65.31,113.63ZM77.08,90.76a3.33,3.33,0,0,0-2.87,1.81c-.24.67-.83,1.39-.13,2.21a2.62,2.62,0,0,0,3.13,1,2.15,2.15,0,0,1,2.21.14,1.52,1.52,0,0,0,2-.6c.57-.79-.07-1.31-.58-1.8a14.37,14.37,0,0,1-2.19-2.15,1.7,1.7,0,0,0-1.6-.61Zm-7,16.84.32-.53a13.27,13.27,0,0,0-2.15-1.41c-3-1.3-6-2.88-9.27-3.58-.71-.15-1.56-1.1-2,0-.32.83.79,1.23,1.43,1.63a3.5,3.5,0,0,0,1.34.42,4.53,4.53,0,0,1,1.82.52c2.74,1.48,5.81,1.76,8.58,2.95ZM49.35,120.25c0,.78.72.73,1,1.08,1.25,1.86,3.14,1.45,4.92,1.47.47,0,1-.08,1.08-.66s-.46-.84-.9-1a28.33,28.33,0,0,0-3.62-1.06,4.06,4.06,0,0,0-2.41.17Z"/><path class="cls-8" d="M56.31,90.15a6.22,6.22,0,0,1-2.06-.23c-.29,2.26-2.72,3.36-3.09,6.1,1.84-2,3.57-1,5.31-.26.06.67-.86,1.07-.67,1.95a2,2,0,0,0,1.14.63c.4.11.82.27.63.78a.81.81,0,0,1-1,.55.75.75,0,0,1-.18-.08c-.44-.19-.87-.4-1.31-.57s-.71-.2-.89.09c-.51.82-1.09,1.36-2.12.87-1.13,1.85-4.07,1.9-4.45,4.54a5.87,5.87,0,0,1-.76,1.74c-.24.48-.39,1.26-1.07,1.1-.92-.22.09-1-.2-1.38-.93-1.28-.53-2.85-1.07-4.57-.22,1.24-.18,2.24-.78,3-.09.13-.12.3-.21.43-.59.86,1.19,1.52.25,2.34-.7.62-1.49-.48-2.27-.06a.81.81,0,0,0-.47,1,.65.65,0,0,0,.09.16c1,1.15.57,1.93-.39,2.77a3.88,3.88,0,0,0-.65,1.24,1.63,1.63,0,0,0-2.27-.25,1.73,1.73,0,0,0-.37.44,4.82,4.82,0,0,1-3,1.51c-.36-1.22-.46-2.28.47-3.18a6.32,6.32,0,0,0,1.52-3.2c.26-1.08.27-2.15,1.34-2.91.53-.37.28-1.15.1-1.85-1,0-.34.95-.8,1.18s-1,.66-1.51.1-.26-.87,0-1.3c.12-.19.26-.48.45-.53,1.9-.51,2.38-2.1,3-3.7.68-1.76,2-3.21,2.5-5.1,1.21-.22,1.67-1.53,2.77-1.91,2.35-.81,3-2.77,3.34-4.94a11.53,11.53,0,0,0,0-1.44c0-2.06,0-2.06,2-2.53,1.64-.39,2-.07,1.82,1.66,0,.38-.4.72,0,1.29A4.33,4.33,0,0,1,54,85c1.2-.1,2,.29,2.26,1.25.38,1.22,1.26,1,2.1,1.07l-.51,1-1,1a.51.51,0,0,0-.43.54A.54.54,0,0,0,56.31,90.15Zm-5.25.54.08-.07-.07.09-.1.09Zm-1-.5a4.21,4.21,0,0,0,0-.71c-.05-.36.08-.9-.52-.86-.39,0-.39.44-.4.74s0,.64,0,1c-1.14.55-1.9,1.28-1.21,2.9,1.16-.89,2.19-1.57,2.14-3.07Zm.6-2.41c.51.72,1.16.45,1.64.72s1,1.07,1.59.22a2.62,2.62,0,0,0,.47-1.8c-.07-.86-.57-1.17-1.28-.78a26.21,26.21,0,0,0-2.41,1.64ZM44,99.33c.6-1.19,1.58-1.63,1.64-2.69,0-.4,0-.83-.45-1a.73.73,0,0,0-.94.43v0A4,4,0,0,0,44,99.33Z"/><path class="cls-8" d="M40.48,115.19c.47,1.15,1.61.78,2.5,1-.17,1.92-1.76,2.59-3,3.57a4.68,4.68,0,0,1-.52-.38c-.53-1.61-.59-1.63-2.63-.89.32.77,1,.85,1.71,1-.2,1,0,1.51,1.12,1.82,1.88.5,3.86.64,5.58,1.83a3.44,3.44,0,0,0,3-.13c.46-.18,1-.26,1.18.35a.87.87,0,0,1-.5,1.11l-.1,0c-1.39.25-2.58,1.69-4.21.66a1.76,1.76,0,0,0-1.81.18c-1.24,1-2.59,1-4.06,1.31A7.83,7.83,0,0,0,33.23,131c-.88.19-1.83.27-1.94,1.47h-.57c-2.61.16-2.72.29-2.35,2.55H27a1.49,1.49,0,0,0-.31-2.08c-.57-.47-.7-1,0-1.54a3.19,3.19,0,0,0,.76-1.44c.58-1.66,1.59-1.78,2.93-.37,0,.35-.16.87.41.87s.47-.49.5-.86c.9-.78,1.31-2.26,2.92-2A3.73,3.73,0,0,1,37,125.75c.92-.21,1.77-.66,1.68-1.89-.08-1.08-1.09-2.85-1.83-3.1-.48-.17-.69.26-1,.4a1.8,1.8,0,0,1-1.93-.53c-.49-.48.09-1,.34-1.47.53-1.08,1.49-1.83,2-3a1.69,1.69,0,0,1,2.07-.74C39.19,115.69,39.78,115.15,40.48,115.19Z"/><path class="cls-8" d="M14.46,103.66c-1.19.92-1.22,2.13-.92,3.54s-.64,3.07,0,4.68c.26.65.51,1.33.79,2a1.42,1.42,0,0,1-.45,1.71c-.79.77-1.35.72-1.77-.31a5.82,5.82,0,0,1-.76-3.62c.24-1.09-.67-2.33-.91-3.57a13.8,13.8,0,0,0-1-2.65c-.46-1-.76-2.12-2.34-1-.88.61-1.57-.14-1.35-1.33a7.35,7.35,0,0,1,.35-1.38.79.79,0,0,1,.57-.32.45.45,0,0,1,.53.34.43.43,0,0,1,0,.25c-.21.81-.21,1.09.86,1,1.44-.16,2.92.14,4.39-.18A2.14,2.14,0,0,1,14.46,103.66Z"/><path class="cls-2" d="M16.31,137.77l.36-.88.11-.09.09-.1a2.86,2.86,0,0,0,2.44-1.1c.39-.4-.08-.62-.5-.66a11.1,11.1,0,0,1-.45-1.34,1.51,1.51,0,0,1,1-1.89h0c.81-.33,1.63-.41,2.1.42.64,1.12,1.33,1.4,2.48.71.65-.39,1.26.09,1.66.56a11.5,11.5,0,0,1,1.1,1.81l-.24,1.3c-1.47.83-2.77,2.1-4.74,1.47-.68-.22-1.07.57-1.53,1s-1.12.7-1.64.06S17.05,138.27,16.31,137.77Z"/><path class="cls-8" d="M35.67,89.29c-1,1.7.46,3.69-.4,5.65a8.53,8.53,0,0,0-1.18,3.32c0,.78-1.6,1-2.3.48a.52.52,0,0,1-.14-.19c-.39-.61-1.66-.79-1.44-1.42.31-.9.44-2,1.34-2.65a4.27,4.27,0,0,0,1.67-3.29A6.91,6.91,0,0,1,34,88.72c.23-.41.45-.9,1-.76S35.63,88.65,35.67,89.29Z"/><path class="cls-15" d="M81.06,83C79,83,77.54,81.38,75.8,80.54a5.18,5.18,0,0,1-2.87-2.37c0-.16.11-.33.17-.49,2.84-.3,4.72,1.34,6.44,3.25A24.4,24.4,0,0,1,81.06,83Z"/><path class="cls-8" d="M63.05,85.88a1.36,1.36,0,0,1,1.41,1.31,1.85,1.85,0,0,1,0,.23,1.25,1.25,0,0,1-1.11,1.32c-1.08.15-1.45,1.5-2.61,1.45,0-1-1-1.21-1.54-1.82v-1A2.68,2.68,0,0,1,62,86.76C62.66,87,63,86.51,63.05,85.88Z"/><path class="cls-7" d="M67.25,81c.67,1.66.68,1.69-.74,2.14-.88.28-1.79.47-2.63.68-.34-.56.07-.85.15-1.21h0a4.58,4.58,0,0,0,2.36-1.51Z"/><path class="cls-4" d="M66.43,81.1c-.71.62-1.32,1.4-2.36,1.51a2,2,0,0,1,.45-1.71A2,2,0,0,0,65,79.18h0C66.1,79.31,66.4,80.1,66.43,81.1Z"/><path class="cls-9" d="M26.51,136.51l.24-1.3a1.81,1.81,0,0,0,.3-.25h1.39c.17.26.34.52.5.78C28.24,136.35,27.31,136.26,26.51,136.51Z"/><path class="cls-8" d="M18.85,134.94c.42,0,.89.26.5.66a2.86,2.86,0,0,1-2.44,1.1v-.85C17.31,135.05,18.39,135.63,18.85,134.94Z"/><path class="cls-8" d="M108.19,55.7c.57.06,1.15.18,1.15.88,0,.54-.52.51-.89.51-.54,0-1.19,0-1.13-.8C107.36,55.79,107.79,55.74,108.19,55.7Z"/><path class="cls-8" d="M18,118.32a.36.36,0,0,1-.43-.27.21.21,0,0,1,0-.11c0-.2.1-.51.23-.57.35-.13.54.13.56.46A.47.47,0,0,1,18,118.32Z"/><path class="cls-4" d="M59.19,87.36v1l-.53.13-.89-.16.51-1Z"/><path class="cls-8" d="M40,113.25a.89.89,0,0,1,.37,1C39.73,114.11,39.31,113.91,40,113.25Z"/><path class="cls-4" d="M31.31,129.51c0,.37,0,.87-.5.86s-.39-.52-.41-.87Z"/><path class="cls-4" d="M65,79.18c-.26-.09-.6-.07-.68-.42,0-.06.17-.24.24-.23.35.07.34.41.42.67Z"/><path class="cls-8" d="M105.9,69.79c-.09-.19,0-.31.15-.33a.55.55,0,0,1,.13.17,3.09,3.09,0,0,0,0,.44Z"/><path class="cls-8" d="M62.55,85.44a.62.62,0,0,1,.5.46Z"/><path class="cls-2" d="M62.5,125.68v-.86a6,6,0,0,1,.76-.56c2.13-1.22,2.4-1.11,3.13,1.15a21.69,21.69,0,0,1,.69,2.75,10.23,10.23,0,0,0,.78-3.86c0-1.53.53-1.9,2-1.93,1,0,1.56.66,2.27,1.14a1.8,1.8,0,0,0,2,.08c.62-.43.42-1.11,0-1.66,0-.6.14-1.19.76-1.35.92-.24,2.17-.55,2.74.11,1.42,1.63,3.23.77,4.82,1.14a4.74,4.74,0,0,0,1.19,0c.22.61.45,1.21.67,1.82l-.24.25c-1.09.13-2.3-.48-3.21.59-.86.46-2,1.51-1.54,2,.81.94,0,2.58,1.52,3l-.56,1.07-3.43-.14a26.71,26.71,0,0,0-3.16-.83,3,3,0,0,0-3,.94c-1.45-.07-3-.4-3.93,1.21-.15.25-1,.6-1.21.08-.54-1.13-1.85-1.08-2.55-1.91C62.76,128.51,63.41,127,62.5,125.68Z"/><path class="cls-3" d="M33.84,156.09a1.55,1.55,0,0,0-.05.23c-.09,1-.35,2.19,1.1,2.49.8.17,2.58-1.4,2.67-2.3s.06-1.75.1-2.63a.63.63,0,0,1,.6-.63.61.61,0,0,1,.69.53.65.65,0,0,1,0,.24c-.51,2.22.53,4.51-.3,6.71a1,1,0,0,0,.1.65c1.95.09.57.94.43,1.61a8.5,8.5,0,0,0,0,4.25,1.48,1.48,0,0,1-.63,2h0a29.87,29.87,0,0,0-2.31,1.9c-1.48-2.49-3-4.88-3.5-7.77-.19-1.05-.38-2.25-2-2.16-.67,0-.76-.43-.32-.94.22-.25.4-.61,0-.79-1.77-.85-.63-1.33.27-1.49,1.32-.24,1.16-1.06,1.06-2l.19-.18h1.69Z"/><path class="cls-3" d="M63,129.94c.7.83,2,.78,2.55,1.91.24.52,1.06.17,1.21-.08,1-1.61,2.48-1.28,3.93-1.21,0,1.16-.44,2.27,0,3.49.32,1-.25,2-.74,3.17a10.75,10.75,0,0,1-3-4,4.4,4.4,0,0,0-.27,3.48c.29,1,.65,2,1,2.94s-.24.94-.9.85c0-.87-.36-1.37-1.28-1s-.65,1.09-.23,1.69c.15.22.52.29.79.42-.16.43.19,1.36-.79,1-1.69-.58-3.48-1-4.75-2.32,0-.59.44-.68.7-.95a2,2,0,0,0,.35-2.22c-1.17-3-1.19-3-.81-5.75a11.61,11.61,0,0,0,0-1.18l1-.34A1.7,1.7,0,0,0,63,129.94Z"/><path class="cls-2" d="M61.64,129.88l-1,.34a2.8,2.8,0,0,0-2.09,0,.85.85,0,0,0-.63,1,.14.14,0,0,0,0,.07c.6,2.37,0,3.22-2.39,3.7a21.5,21.5,0,0,1-4.44-.77c-1.53-.38-3.24-1.07-4.63-.48-2.67,1.14-5.29.54-8,.45-.21-.71,0-1.65-1.1-1.85l.45-.68c1.16-.92,2.21-1.6,3.77-.44a2,2,0,0,0,2.57-.89c1.41-2.29,2.16-2.33,3.79-.25a1.16,1.16,0,0,0,1,.39c.32,0,.72-.09.94.07,1.54,1.1,3.21.89,5,.83,1.38,0,1.67-.54,1.66-1.66.63-.34.68-1.1,1.12-1.57h2.13C61.07,128.14,61.71,128.67,61.64,129.88Z"/><path class="cls-3" d="M38.57,134.18c2.66.09,5.28.69,8-.45,1.39-.59,3.1.1,4.63.48a21.5,21.5,0,0,0,4.44.77c.19.48.22,1-.27,1.26a2.3,2.3,0,0,1-1.57.49c-2.41-.36-4.86.37-7.26-.27-.15,0-.35-.14-.46-.08-1.37.68-1.72-.31-2-1.6-.93,1-1.71,1.79-3,1.55a.85.85,0,0,0-1,.63.3.3,0,0,0,0,.1c-.16.81-1.06,1.22-1.06,2.16-.65-1.6-3.12-1.39-3.22-3.42l.26-.25a2.35,2.35,0,0,0,2,.86c.72-.08,1-.31.63-1a4.59,4.59,0,0,1-.24-.9A.72.72,0,0,0,38.57,134.18Z"/><path class="cls-3" d="M31.78,156a7.15,7.15,0,0,0-3.24-.43,2.56,2.56,0,0,1-3-1.38c-.3-.76-1.31-.53-1.56-1.31a1.89,1.89,0,0,1,1.81-.19c1,.27,1.66.31,2-.85a1.11,1.11,0,0,1,1.18-.66,14,14,0,0,0,3.27-.47,1.51,1.51,0,0,1,2,1.46,8.92,8.92,0,0,0,1,3.56c-.39.36-.92.15-1.35.32l-.18-.18c0-.73-.54-.83-1.11-.83s-.59.37-.58.78Z"/><path class="cls-3" d="M76.87,130.45l3.43.14a1.33,1.33,0,0,1,.92,1.28c0,.84.64,1,1.22,1.42-.91.9-2.29.59-3,1.45-.8-.54-.28-1.34-.7-1.83a.49.49,0,0,0-.49.39c-.28.66-.51,1.34-.82,2s-.91.53-1.47.5-.74-.41-.89-.92C74.31,132.21,74.66,131.27,76.87,130.45Z"/><path class="cls-9" d="M53.24,173.82c.52-.53.53-1.37.92-1.89.83-1.1.76-1.61-.63-1.92-1-.21-.15-.94,0-1,2.22-.64,2-2.61,2.38-4.25.14-.59-.08-1.6.87-1.51s.93,1,.86,1.83A30.62,30.62,0,0,1,55,174.15c-.21.52-.39,1-.62,1.55-.44,1-.56-.36-.9-.14C53.37,175,53.31,174.41,53.24,173.82Z"/><path class="cls-9" d="M53.91,158.79a17.18,17.18,0,0,0-.09,2.87c-.11,1.38-.36-.7-.84-.06a3.09,3.09,0,0,0-.37,2.78c.07.13.2.26.21.41.06.72,1.57.46,1,1.63s-1.08,1.92-2.35,2h0a1.48,1.48,0,0,0-.76-1.55c0-.74,0-1.48,0-2.21A2.28,2.28,0,0,0,51.5,163c-.1-1.64.72-3,1.19-4.47l.63-.13.49.14Z"/><path class="cls-2" d="M84.67,121l.12-1c2.18-.56,2.18-.56,2.92,1.6,0,.14.19.25.29.37-.25,1.22.4,1.89,1.44,2.33a.94.94,0,0,1,0,.41,3.25,3.25,0,0,0-2.26,0c-1.12.25-2.35.51-3.11-.81l.24-.25c.8.2,1.35,0,1.07-.93A3.21,3.21,0,0,0,84.67,121Z"/><path class="cls-2" d="M28.94,135.76c-.16-.26-.33-.52-.5-.78-.37-2.26-.26-2.39,2.35-2.55.19.13.36.6.57,0h0a8.2,8.2,0,0,1,3.81.75l-.11.19-.22.75c-1.88-1.06-1.9-1.07-3,.42C31.09,135.59,30,135.63,28.94,135.76Z"/><path class="cls-3" d="M51.73,194.19a7.8,7.8,0,0,1-2.48-.53c.38-1.35.89-2.67.13-4.06-.47-.85.4-1.07.95-1.3s1.05-.09,1.11.5C51.62,190.57,52.54,192.32,51.73,194.19Z"/><path class="cls-9" d="M67.8,160.27c-.44.82-.9,1.64-1.34,2.46-.29.54-.62.9-1.31.53-.53-.29-.46-.64-.41-1.17.09-.93,1.07-1.91-.08-2.88-.19-.17.37-.66.76-.74.56-.13,1.16-.65,1.7.1a7,7,0,0,0,.79.85C67.88,159.7,67.84,160,67.8,160.27Z"/><path class="cls-3" d="M52.74,158.56c-.47,1.47-1.29,2.83-1.19,4.47a2.28,2.28,0,0,1-.74,1.68c-.14-.08-.41-.16-.4-.22.13-1.53-.82-2.74-1.21-4.11a1.07,1.07,0,0,1,1-1.54C51.2,158.71,51.83,158.19,52.74,158.56Z"/><path class="cls-9" d="M91.31,120.79c1.52-.19,3.08-.25,4.35-1.3-.19,1.25.37,2.58-.45,3.76,0-1.12-.86-1.46-1.68-1.62s-.92.83-1.28,1.36a2,2,0,0,0-.42,1.3l-1.45.24-.41-.28a3.8,3.8,0,0,1,.84-1.57,1,1,0,0,0,.14-1.41h0Z"/><path class="cls-3" d="M91.84,124.29a2,2,0,0,1,.42-1.3c.36-.53.32-1.55,1.28-1.36s1.68.5,1.68,1.62c-.09.38-.12.8-.53,1-.93.13-1.25,1.11-2,1.45A1.46,1.46,0,0,1,91.84,124.29Z"/><path class="cls-3" d="M53.54,146.56c-.81.75-2.1.48-2.67,1.51a1,1,0,0,1-1.18.58c-.8-.31-.51-1.06-.54-1.65s.19-1,.77-1C51.14,145.91,52.42,145.61,53.54,146.56Z"/><path class="cls-5" d="M80.86,129.51c-1.5-.44-.71-2.08-1.52-3-.43-.5.68-1.55,1.54-2,.62,1,.4,2.24.84,3.32C82,128.58,81.36,129.05,80.86,129.51Z"/><path class="cls-3" d="M46.55,175.92c-2.26-1.43-2.61-2.35-1.49-3.58.47-.51.93-.55,1.3.16S46.77,173.66,46.55,175.92Z"/><path class="cls-3" d="M43.12,162.11c-.46-1,.42-1.68,0-2.46-.18-.3,0-.61.37-.71a.91.91,0,0,1,1,.35C45.21,160.26,44.78,161.2,43.12,162.11Z"/><path class="cls-3" d="M48.31,199.42c-.85-.61-1.84-1-2.35-1.87a.78.78,0,0,1,0-.88c.22-.32.53-.21.83-.12C48.15,197,48.2,198.19,48.31,199.42Z"/><path class="cls-3" d="M48.59,141.12c.07-.5-.15-1.3.64-1.24a1.46,1.46,0,0,1,1.26,1.5,1,1,0,0,1-.92,1.08h-.08C48.54,142.51,48.65,141.74,48.59,141.12Z"/><path class="cls-9" d="M66,141.62c-.27-.13-.64-.2-.79-.42-.42-.6-.75-1.3.23-1.69s1.28.14,1.28,1a.51.51,0,0,0-.23.15c-.47.11-.39.28,0,.48Z"/><path class="cls-3" d="M28.76,164.24c-.21-.69-1-1.31-.36-2.14C29.18,163.18,29.18,163.18,28.76,164.24Z"/><path class="cls-3" d="M34.81,134.16c.07-.25.15-.5.22-.75.29.5.57,1,.85,1.5l.08.64-.26.25C34.57,135.7,34.88,134.83,34.81,134.16Z"/><path class="cls-3" d="M90,124.25l.41.28c-.06.4.1,1-.52,1-.45,0-.38-.52-.41-.86a.94.94,0,0,0,0-.41Z"/><path class="cls-3" d="M29.38,166.81l-.21.35c-.06-.13-.17-.25-.16-.38s.12-.23.19-.35Z"/><path class="cls-5" d="M92.58,126.28a.77.77,0,0,1-.16.79.54.54,0,0,1,.11-.76Z"/><path class="cls-3" d="M66.39,141.15c-.34-.2-.42-.37,0-.48C66.43,140.83,66.41,141,66.39,141.15Z"/><path class="cls-3" d="M53.86,158.57l-.49-.14c.08-.09.16-.24.25-.25C53.86,158.18,53.86,158.38,53.86,158.57Z"/><path class="cls-12" d="M80.78,29a3.69,3.69,0,0,0,0,2.93.79.79,0,0,1-.47,1,.73.73,0,0,1-.2.05c-.51.08-1,0-1.12-.6a7,7,0,0,0-.21-.93c-.47-1.19-.85-1.31-2-.79s-.85,1.22-.4,2c.28.47.68,1.2,1,1.21,1.45.07,1.44,1.33,1.92,2.12.84,1.39.66,1.91-.94,2.35a1.67,1.67,0,0,0-1.44,1.84c0,.8-.3,1.52-1.21,1.45s-1-.92-1.14-1.62a2.58,2.58,0,0,1,.32-1.84A3.69,3.69,0,0,0,75.08,36c-.11-1.83-.16-3.59-1.44-5.1a3.68,3.68,0,0,1-.51-1.58.61.61,0,0,1,.37-.79.59.59,0,0,1,.23,0c.54,0,.63.33.54.8-.19.91.06,1.07.8.47a1.14,1.14,0,0,1,.64-.21c2.11,0,2.14,0,2.58-1.93.28-1.22.79-2.44.1-3.7a1.71,1.71,0,0,1,0-.95.62.62,0,0,1,.55-.67.64.64,0,0,1,.77.47.62.62,0,0,1,0,.19c0,1.2.7,2.29.54,3.52A5.59,5.59,0,0,0,80.78,29Z"/><path class="cls-12" d="M111.36,46.76a1.31,1.31,0,0,1-.33-1.1c0-.77-.09-1.43-1.07-1.53-.61-.06-.79-.45-.59-1,.09-.24.08-.6-.11-.63-2.19-.41-1.19-2.75-2.32-3.79a.68.68,0,0,1,0-1l.13-.1c.52-.31.9,0,1.14.47a11.18,11.18,0,0,1,.48,1.09.9.9,0,0,0,1.15.55h0a.84.84,0,0,0,.66-1l0-.11c-.19-1.09-.46-2.17-.71-3.24-.12-.48-.26-1,.35-1.19a.85.85,0,0,1,1.12.46.49.49,0,0,1,0,.11c.81,2.7,2.63,5.3,1,8.3a1.21,1.21,0,0,0,.16,1.51C113.76,46.25,113.72,46.28,111.36,46.76Z"/><path class="cls-12" d="M72.46,50.07c-.9.52-1.57-.16-1.78-.86a2.27,2.27,0,0,1,.6-2.4,4.73,4.73,0,0,1,1.38-.91c.94-.34,1.35-.68,1.07-1.86s.76-1.59,1.66-.82,2.53.91,1.82,2.77c-.13.35.64,1,.92,1.55.39.76.19,1.72-.6,1.69C75.79,49.18,74.31,50.33,72.46,50.07Z"/><path class="cls-12" d="M81.66,47.86a6,6,0,0,1-.26-3.29c.77,0,.83.55.8,1-.1,1.31.54,2.48.6,3.76,0,.61.2,1.53.61,1.76,2.1,1.17.38,2.75.54,4.1.06.45-.48.58-.84.73s-.71,0-.9-.48c-.34-.77-1-1.32-1-2.35.1-1.29-.52-2-1.93-1.48-.34.12-.63.08-.78-.28a.74.74,0,0,1,.26-.85c.61-.64,1.33-1.19.45-2.2-.4-.46.12-.72.53-.71A13.91,13.91,0,0,1,81.66,47.86Z"/><path class="cls-12" d="M99.76,53c-1.39,1.1-1.67,2.75-2.44,4.12-.23.4-.41.94-1,.81s-.23-.73-.31-1.13c-.31-1.51,0-3.15-1-4.55-.3-.42-.25-1.07-.45-1.58-.3-.77-.17-1.22.73-1.29a1.2,1.2,0,0,0,.45-.15c.51-.21.31-1.46,1.29-1a1.86,1.86,0,0,1,1,2C97.9,51.62,98.72,52.34,99.76,53Z"/><path class="cls-12" d="M102.55,36.08a2.9,2.9,0,0,1,2.7,2.41c.09,1.26-.11,2.54.83,3.63a1,1,0,0,1-.19,1.3,1,1,0,0,1-1.41-.1l-.07-.09a2.52,2.52,0,0,0-1.5-1.09c-1.51-.34,1-2.27-1-2.54-.66-.09-.55-2,.09-3C102.15,36.27,102.31,36.05,102.55,36.08Z"/><path class="cls-12" d="M106.38,32.51a3.23,3.23,0,0,0,.3-.72c.1-.78.36-1.42,1.27-1.45a1,1,0,0,1,1,.63,2.44,2.44,0,0,1,0,2.29c-.35.55-1,.36-1.53.19s-1-.3-.88.51c.27,1.3-.41,1.3-1.15.79a2,2,0,0,0-2-.25c-.53.18-1.18.15-1.33-.6s-.22-1.57.56-1.91a11.78,11.78,0,0,1,2.74-.72C106.22,31.06,105.64,32.14,106.38,32.51Z"/><path class="cls-4" d="M97.31,35.92c1.41,1.63.64,3.6,1.2,5.32.26.79.28,1.7.51,2.55.15.54.15,1.22-.63,1.27a1.12,1.12,0,0,1-1.14-1,.49.49,0,0,1,0-.24C97.9,41.2,96.51,38.61,97.31,35.92Z"/><path class="cls-12" d="M104.87,47.07c-.62-1-.83-2-.1-2.23.9-.31,1.85-1,2.92-.53a.42.42,0,0,1,.23.55s0,0,0,0c-.12.31-.4.63-.68.52C105.82,44.87,105.23,45.67,104.87,47.07Z"/><path class="cls-4" d="M99.44,35.75a6.87,6.87,0,0,1,.33,4.62C99.47,38.84,98.54,37.38,99.44,35.75Z"/><path class="cls-12" d="M53.23,38.26c-.06.13-.12.26-.17.4-.14-.06-.34-.09-.38-.18s.09-.26.15-.39Z"/><path class="cls-12" d="M28,74.86a3,3,0,0,0-1.56.57c-.63.38-1.06.87-.18,1.43s.66,1.38.17,2c-.86,1.18-1.45,2.42-3.24,2.9-1.6.42-2.79,2-3.59,3.66-.14.28-.17.62-.3.9-1,2.11-1.65,2.38-4.08,1.59.35-1.28,0-3,2.12-3.12a.66.66,0,0,0,.46-.47c-.15-1.74,1.36-2.63,2-3.94.17-.34.58-.67.13-1a.63.63,0,0,0-.89.06.52.52,0,0,0-.11.19c-.6,1.34-2.07,1.4-3.06,2.16a.69.69,0,0,1-.95-.18.47.47,0,0,1-.05-.1c-.27-.43,0-.63.38-.9a27.43,27.43,0,0,0,5.53-4.73,3.24,3.24,0,0,1,1.36-.94c.36-.15.91-.19.93-.63.09-2.07,2-2.31,3.24-3.15.71-.51,1.27-.76,1.22-1.7-.06-1.17.48-1.91,1.69-1.78s1.84-.79,2.68-1.33c1.33-.85,1.88-.59,2,1,0,.44,0,.83.52.91a.92.92,0,0,0,1.11-.67,15.4,15.4,0,0,0,.15-2.14c0-.92.45-1.53,1.32-.78,1.09.94,2.46.4,3.63.94.71.33,1.32.47,1.28,1.39a4.33,4.33,0,0,0,1.83,4.07c1,.76.51,1.94-.82,2.23-.48.1-.77,0-.65-.62.09-.39.19-.85-.33-1s-.45.36-.57.63a.52.52,0,0,1-.75.3.77.77,0,0,1-.43-1,8.86,8.86,0,0,0,.24-3.55c0-.81-.56-1-1.09-.45-.88.91-1.65,1.93-2.44,2.93a1,1,0,0,0-.12,1.13c.69,1.23-.17,1.88-.87,2.67s-1.49,1.15-2.18,1.82a10.77,10.77,0,0,0-2.91,4.77c-.16.56-.51,1.18-1.17.7-.45-.33-1.43-.75-.57-1.66a3,3,0,0,0,.83-2.17c0-.75,0-1.47-1-1.57S28,75.46,28,74.8c.23-.08.26-.16.1-.19S28,74.8,28,74.86Z"/><path class="cls-12" d="M13.84,88.51c.32.12.43.13.44.17.22.61.87,1.16.34,1.88a.45.45,0,0,1-.43.08C13.24,90.08,13.59,89.32,13.84,88.51Z"/><path class="cls-12" d="M56.43,62.22c-.13-.06-.34-.09-.38-.19s.1-.25.15-.39c.14.06.34.09.38.18S56.49,62.08,56.43,62.22Z"/><path class="cls-12" d="M12,90.59c-.06.13-.09.34-.19.38s-.25-.1-.39-.15c.06-.14.09-.34.18-.38S11.84,90.51,12,90.59Z"/><path class="cls-12" d="M5.36,117.25c.23.16.33.19.35.24.2.58.45,1.19-.19,1.64-.11.08-.47-.07-.63-.21C4.56,118.63,4.58,118.6,5.36,117.25Z"/><path class="cls-8" d="M16.82,136.8l-.11.09Z"/><path class="cls-7" d="M95.66,98a2.83,2.83,0,0,1-2.23-.58,22.89,22.89,0,0,1-4.5-3.45c-1-1.1-2.58-1.47-3.59-2.61-.19-.23-.56-.31-.46-.92.91-.51,2.33.27,3.17-.81a35.94,35.94,0,0,1,4.74,3.08c-.17,2.13,1.86,2.32,3,3.33.26.24.36-.14.44-.33.29-.73.82-.65,1.36-.38.34.16.79.27.79.77a.83.83,0,0,1-.73.81C96.81,97,96,97,95.66,98Z"/><path class="cls-7" d="M97.55,116.58c-1.4.56-2.64.73-3.84-.6A12.91,12.91,0,0,0,91,114.15a6.75,6.75,0,0,1-1.16-.82,1.19,1.19,0,0,1-.2-1.66l0,0c.37-.45.84-.21,1.29,0,1.92.88,3.86,1.75,5.8,2.6.51.2,1,.37,1.57.52A3.7,3.7,0,0,1,97.55,116.58Z"/><path class="cls-6" d="M99.94,109.92c-.31,0-.68-.08-.6-.48a1.07,1.07,0,0,1,1.11-1A2.72,2.72,0,0,1,99.94,109.92Z"/><path class="cls-16" d="M91.31,104a4.77,4.77,0,0,1-4.15-3,.72.72,0,0,1,.15-.87.79.79,0,0,1,.88-.1c1.74.67,3.27,1.53,3.44,3.66Z"/><path class="cls-9" d="M98.57,99.33l.62.21c-.34.43-.47,0-.65-.17Z"/><path class="cls-9" d="M81.5,152.75c-.14,1.14-.62,1.45-1.36,1.36-.3,0-.68-.14-.64-.54.07-.85.8-.85,1.39-.95C81.19,152.56,81.5,152.68,81.5,152.75Z"/><path class="cls-9" d="M62.16,164a2.94,2.94,0,0,1-.78,2.48A2.37,2.37,0,0,1,62.16,164Z"/><path class="cls-9" d="M56.13,161.3l.26-.28a1.69,1.69,0,0,1,.19.32s-.07.15-.13.17a.23.23,0,0,1-.3-.12A.15.15,0,0,1,56.13,161.3Z"/><polygon class="cls-9" points="51.69 169.95 51.77 169.79 51.81 169.97 51.69 169.95"/><polygon class="cls-9" points="51.5 168.46 51.4 168.6 51.52 168.47 51.5 168.46"/><path class="cls-8" d="M74.15,121.93c.45.55.65,1.23,0,1.66a1.8,1.8,0,0,1-2-.08c-.71-.48-1.27-1.16-2.27-1.14-1.5,0-2,.4-2,1.93a10.23,10.23,0,0,1-.78,3.86,21.69,21.69,0,0,0-.69-2.75c-.73-2.26-1-2.37-3.13-1.15a6,6,0,0,0-.76.56c-.38-.4,0-.73.11-1.08s.26-.81-.38-.85c-.39,0-1.06,0-.94.42.64,2.16-1.17.85-1.66,1s-.81-1.32-.75-1.37c.81-.57-.73-1.32.4-2.1,2.17-1.5,4.79-2,6.87-3.55.82-.6,1.56-.65,2-.08s1.13,1.66-.58,1.81c-.51,0-.23.35-.08.64a15.37,15.37,0,0,1,.62,1.64c1.25-.38,2.22-1.3,3.74-1.1,1.08.14,1.61,0,1.54,1.29C73.39,121.9,73.84,121.9,74.15,121.93Z"/><path class="cls-8" d="M91.31,120.79l-.35.48a10.27,10.27,0,0,1-3,.66c-.1-.12-.25-.23-.29-.37-.74-2.16-.74-2.16-2.92-1.6-1.27-.71-2.22-1.87-3.9-2-1.12-.12-2-.25-2.77.62-.14.15-.42.19-.63.28-.55-1.7-3-.76-3.55-2.79,1.65-.29,3.24-1,5-.54a2.7,2.7,0,0,0,1.86,0c.33-.13.68-.13.82.2.65,1.54,1.75.94,2.81.64.46-.13.93-.19,1.38-.34,1.69-.56,2.18-.45,3.2.82,1.44,1.79,2.11,2,4.45,1.05.38-.15.81-.31,1.07.1s0,.84-.46,1.14C93.16,119.72,91.77,119.51,91.31,120.79Z"/><path class="cls-11" d="M77.1,90.76a1.72,1.72,0,0,1,1.62.63,14.18,14.18,0,0,0,2.19,2.12c.51.49,1.15,1,.58,1.8a1.52,1.52,0,0,1-2,.6,2.15,2.15,0,0,0-2.21-.14,2.62,2.62,0,0,1-3.13-1c-.7-.82-.11-1.54.13-2.21A3.33,3.33,0,0,1,77.1,90.76Z"/><path class="cls-8" d="M67.73,113.17c1.93-.25,3.91,0,5.8-.57a1.28,1.28,0,0,1,1.46.46c.36.4.53.81,0,1.18-.78.49-1.79.74-2,1.9,0,.13-.37.29-.57.29a20.43,20.43,0,0,1-6.23-1.25c-.81-.24-.73-1-.85-1.55A4.14,4.14,0,0,1,67.73,113.17Z"/><path class="cls-10" d="M76,99.45c.26-.54.71-.57,1.21-.43a16.33,16.33,0,0,0,4.64.86,1.37,1.37,0,0,1,1.39,1.35,1.39,1.39,0,0,1-.48,1.06,2.46,2.46,0,0,1-2.47,1,18.1,18.1,0,0,0-3.49-.68c-.8,0-.71-.69-.71-1.25.69-.19,1-.46.31-1.08A2.55,2.55,0,0,1,76,99.45Z"/><path class="cls-9" d="M70.15,107.6c-2.77-1.19-5.83-1.47-8.5-2.95a4.53,4.53,0,0,0-1.82-.52,3.5,3.5,0,0,1-1.34-.42c-.64-.4-1.75-.8-1.43-1.63.43-1.1,1.28-.15,2,0,3.29.7,6.23,2.28,9.27,3.58a13.27,13.27,0,0,1,2.15,1.41Z"/><path class="cls-10" d="M67.73,113.17a4.15,4.15,0,0,0-2.4.46c-.6-.21-1.19-.44-1.79-.63-.88-.28-1.71-.58-1.34-1.78.31-1,.6-1.88,2-1.82a7.46,7.46,0,0,1,3.12.91C69.07,111.14,67.31,112.26,67.73,113.17Z"/><path class="cls-8" d="M61.64,129.88c.07-1.21-.57-1.74-1.71-1.76H57.8c-.41-1-1.37,0-1.93-.51a3.81,3.81,0,0,1,4.27-1.94,18.58,18.58,0,0,0,2.36,0c.91,1.33.26,2.84.51,4.25A1.68,1.68,0,0,1,61.64,129.88Z"/><path class="cls-6" d="M58.66,88.51l.53-.13c.52.61,1.52.8,1.54,1.82.13.75.84.61,1.3.83.64.31,1.12.71.86,1.46s-1.14,1.23-1.68.87c-1.19-.81-2.55-.81-3.82-1.14s-.92-1.28-1.11-2.06a.54.54,0,0,1,.07-.32l.5.1c.17.52.3,1.16,1,1.06.55-.07.72-.58.77-1.06A13.81,13.81,0,0,0,58.66,88.51Z"/><path class="cls-6" d="M49.42,120.25a4.07,4.07,0,0,1,2.44-.16,28.33,28.33,0,0,1,3.62,1.06c.44.15.93.49.9,1s-.61.66-1.08.66c-1.78,0-3.67.39-4.92-1.47C50.14,121,49.46,121,49.42,120.25Z"/><path class="cls-8" d="M56.68,129.7c0,1.12-.28,1.62-1.66,1.66-1.77.06-3.44.27-5-.83-.22-.16-.62,0-.94-.07,1.83-1,3.93-.76,5.86-1.3A1.86,1.86,0,0,1,56.68,129.7Z"/><path class="cls-9" d="M35.14,133.22a8.15,8.15,0,0,0-3.83-.71c.11-1.2,1.06-1.28,1.94-1.47a2.24,2.24,0,0,0,2.76.75,5.23,5.23,0,0,1,1.89-.1l-.45.68Z"/><path class="cls-15" d="M76,99.45a2.61,2.61,0,0,0,.4.8c.67.62.38.89-.31,1.08a5.14,5.14,0,0,1-3.13-2.73C74.22,98,74.93,99.31,76,99.45Z"/><path class="cls-8" d="M84.67,121a3.19,3.19,0,0,1,.73,1.74c.28.89-.27,1.13-1.07.93-.22-.61-.45-1.21-.67-1.82A2.05,2.05,0,0,1,84.67,121Z"/><path class="cls-12" d="M38.58,119.56c-.67-.17-1.39-.25-1.71-1,2-.74,2.1-.72,2.63.89Z"/><path class="cls-12" d="M50.67,87.78a25.06,25.06,0,0,1,2.42-1.64c.71-.39,1.21-.08,1.28.78a2.62,2.62,0,0,1-.47,1.8c-.63.85-1.11.06-1.59-.22S51.18,88.51,50.67,87.78Z"/><path class="cls-6" d="M50.07,90.19c0,1.5-1,2.18-2.13,3-.69-1.62.07-2.35,1.21-2.9Z"/><path class="cls-14" d="M58.66,88.51v1.43A1,1,0,0,1,57.89,91c-.74.1-.87-.54-1-1.07,0-.21,0-.42-.07-.63l1-1Z"/><path class="cls-4" d="M44,99.33a4,4,0,0,1,.24-3.21.72.72,0,0,1,.91-.48h0c.47.16.47.59.45,1C45.62,97.7,44.64,98.14,44,99.33Z"/><path class="cls-12" d="M50.07,90.19l-.92.13v-1c0-.36,0-.72.4-.74.6,0,.47.5.52.86A4.7,4.7,0,0,1,50.07,90.19Z"/><polygon class="cls-6" points="51.05 90.71 51.12 90.62 51.03 90.69 51.05 90.71"/><path class="cls-4" d="M56.78,89.29a1.94,1.94,0,0,0,.07.63l-.5-.09A.51.51,0,0,1,56.78,89.29Z"/><polygon class="cls-6" points="51.03 90.69 50.94 90.8 51.05 90.71 51.03 90.69"/><path class="cls-9" d="M31.36,132.45c-.21.58-.38.11-.57,0Z"/><path class="cls-9" d="M32,155.86c0-.41.07-.78.58-.78s1.08.1,1.11.83Z"/><path class="cls-4" d="M35.14,133.22l2.33-.89c1.06.2.89,1.14,1.1,1.85a.73.73,0,0,1-.17.31l-2.52.42c-.28-.5-.56-1-.85-1.5Z"/><path class="cls-14" d="M35.88,134.91l2.52-.42a4.59,4.59,0,0,0,.24.9c.34.71.09.94-.63,1a2.35,2.35,0,0,1-2-.86A2.63,2.63,0,0,1,35.88,134.91Z"/><path class="cls-4" d="M88,121.93a10.27,10.27,0,0,0,3-.66,1,1,0,0,1-.15,1.41h0a3.8,3.8,0,0,0-.84,1.57h-.54C88.4,123.82,87.75,123.15,88,121.93Z"/><path class="cls-8" d="M28,74.86c0-.06.09-.19.11-.18s.13.11-.1.19Z"/></g></g></svg>