<svg xmlns="http://www.w3.org/2000/svg" viewBox="0 0 809.53 1125.04"><defs><style>.cls-1{fill:none;}</style></defs><g id="Layer_2" data-name="Layer 2"><g id="_ÎÓÈ_1" data-name="—ÎÓÈ_1"><path d="M0,190.47v65H809.53v-65a80.14,80.14,0,0,0-80.15-80.15H80.15A80.14,80.14,0,0,0,0,190.47Z"/><path class="cls-1" d="M524.31,95.16a56.86,56.86,0,0,0-56.79-56.79H342a56.85,56.85,0,0,0-56.78,56.79v1.53H524.31Z"/><path d="M285.23,96.69V95.16A56.85,56.85,0,0,1,342,38.37H467.52a56.86,56.86,0,0,1,56.79,56.79v1.53h38.37V95.16A95.27,95.27,0,0,0,467.52,0H342a95.27,95.27,0,0,0-95.16,95.16v1.53h38.38Z"/><path d="M46.74,282.67v762.22A80.15,80.15,0,0,0,126.89,1125H682.64a80.15,80.15,0,0,0,80.15-80.15V282.67Zm178.59,751.49H164.89V373.55h60.44Zm209.66,0H374.55V373.55H435Zm209.66,0H584.21V373.55h60.44Z"/></g></g></svg>